<?xml version="1.0" encoding="UTF-8" standalone="no"?>
<!DOCTYPE svg PUBLIC "-//W3C//DTD SVG 1.1//EN"
 "http://www.w3.org/Graphics/SVG/1.1/DTD/svg11.dtd">
<!-- Generated by graphviz version 2.38.0 (20140413.2041)
 -->
<!-- Title: MySQL Pages: 1 -->
<svg width="87pt" height="345pt"
 viewBox="0.00 0.00 87.37 345.00" xmlns="http://www.w3.org/2000/svg" xmlns:xlink="http://www.w3.org/1999/xlink">
<g id="graph0" class="graph" transform="scale(1 1) rotate(0) translate(4 341)">
<title>MySQL</title>
<polygon fill="white" stroke="none" points="-4,4 -4,-341 83.374,-341 83.374,4 -4,4"/>
<!-- Node1 -->
<g id="node1" class="node"><title>Node1</title>
<polygon fill="#bfbfbf" stroke="black" points="0.234375,-0.5 0.234375,-64.5 79.1396,-64.5 79.1396,-0.5 0.234375,-0.5"/>
<text text-anchor="middle" x="39.687" y="-52.5" font-family="Helvetica,sans-Serif" font-size="10.00">MySQL</text>
<polyline fill="none" stroke="black" points="0.234375,-46.5 79.1396,-46.5 "/>
<text text-anchor="start" x="8.23438" y="-34.5" font-family="Helvetica,sans-Serif" font-size="10.00">+ rxBufferSize</text>
<text text-anchor="start" x="8.23438" y="-24.5" font-family="Helvetica,sans-Serif" font-size="10.00">+ txBufferSize</text>
<polyline fill="none" stroke="black" points="0.234375,-18.5 79.1396,-18.5 "/>
<text text-anchor="start" x="8.23438" y="-6.5" font-family="Helvetica,sans-Serif" font-size="10.00">+ use()</text>
</g>
<!-- Node2 -->
<g id="node2" class="node"><title>Node2</title>
<g id="a_node2"><a xlink:href="../../d6/d91/classDbConnection.html" target="_top" xlink:title="数据库连接对象，用于建立和维护一个数据库连接会话。 ">
<polygon fill="white" stroke="black" points="0,-101.5 0,-215.5 79.374,-215.5 79.374,-101.5 0,-101.5"/>
<text text-anchor="middle" x="39.687" y="-203.5" font-family="Helvetica,sans-Serif" font-size="10.00">DbConnection</text>
<polyline fill="none" stroke="black" points="0,-197.5 79.374,-197.5 "/>
<text text-anchor="middle" x="39.687" y="-185.5" font-family="Helvetica,sans-Serif" font-size="10.00"> </text>
<polyline fill="none" stroke="black" points="0,-179.5 79.374,-179.5 "/>
<text text-anchor="start" x="8" y="-167.5" font-family="Helvetica,sans-Serif" font-size="10.00">+ close()</text>
<text text-anchor="start" x="8" y="-157.5" font-family="Helvetica,sans-Serif" font-size="10.00">+ begin()</text>
<text text-anchor="start" x="8" y="-147.5" font-family="Helvetica,sans-Serif" font-size="10.00">+ commit()</text>
<text text-anchor="start" x="8" y="-137.5" font-family="Helvetica,sans-Serif" font-size="10.00">+ rollback()</text>
<text text-anchor="start" x="8" y="-127.5" font-family="Helvetica,sans-Serif" font-size="10.00">+ execute()</text>
<text text-anchor="start" x="8" y="-117.5" font-family="Helvetica,sans-Serif" font-size="10.00">+ execute()</text>
<text text-anchor="start" x="8" y="-107.5" font-family="Helvetica,sans-Serif" font-size="10.00">+ format()</text>
</a>
</g>
</g>
<!-- Node2&#45;&gt;Node1 -->
<g id="edge1" class="edge"><title>Node2&#45;&gt;Node1</title>
<path fill="none" stroke="midnightblue" d="M39.687,-91.2677C39.687,-82.0273 39.687,-72.9128 39.687,-64.7504"/>
<polygon fill="none" stroke="midnightblue" points="36.1871,-91.3049 39.687,-101.305 43.1871,-91.305 36.1871,-91.3049"/>
</g>
<!-- Node3 -->
<g id="node3" class="node"><title>Node3</title>
<g id="a_node3"><a xlink:href="../../dc/dd8/classobject.html" target="_top" xlink:title="基础对象，所有对象均继承于此 ">
<polygon fill="white" stroke="black" points="6.3501,-252.5 6.3501,-336.5 73.0239,-336.5 73.0239,-252.5 6.3501,-252.5"/>
<text text-anchor="middle" x="39.687" y="-324.5" font-family="Helvetica,sans-Serif" font-size="10.00">object</text>
<polyline fill="none" stroke="black" points="6.3501,-318.5 73.0239,-318.5 "/>
<text text-anchor="middle" x="39.687" y="-306.5" font-family="Helvetica,sans-Serif" font-size="10.00"> </text>
<polyline fill="none" stroke="black" points="6.3501,-300.5 73.0239,-300.5 "/>
<text text-anchor="start" x="14.3501" y="-288.5" font-family="Helvetica,sans-Serif" font-size="10.00">+ dispose()</text>
<text text-anchor="start" x="14.3501" y="-278.5" font-family="Helvetica,sans-Serif" font-size="10.00">+ toString()</text>
<text text-anchor="start" x="14.3501" y="-268.5" font-family="Helvetica,sans-Serif" font-size="10.00">+ toJSON()</text>
<text text-anchor="start" x="14.3501" y="-258.5" font-family="Helvetica,sans-Serif" font-size="10.00">+ ValueOf()</text>
</a>
</g>
</g>
<!-- Node3&#45;&gt;Node2 -->
<g id="edge2" class="edge"><title>Node3&#45;&gt;Node2</title>
<path fill="none" stroke="midnightblue" d="M39.687,-241.94C39.687,-233.347 39.687,-224.397 39.687,-215.696"/>
<polygon fill="none" stroke="midnightblue" points="36.1871,-242.202 39.687,-252.202 43.1871,-242.202 36.1871,-242.202"/>
</g>
</g>
</svg>
