<?xml version="1.0" encoding="UTF-8" standalone="no"?>
<!DOCTYPE svg PUBLIC "-//W3C//DTD SVG 1.1//EN"
 "http://www.w3.org/Graphics/SVG/1.1/DTD/svg11.dtd">
<!-- Generated by graphviz version 2.38.0 (20140413.2041)
 -->
<!-- Title: AsyncWait Pages: 1 -->
<svg width="75pt" height="275pt"
 viewBox="0.00 0.00 74.67 275.00" xmlns="http://www.w3.org/2000/svg" xmlns:xlink="http://www.w3.org/1999/xlink">
<g id="graph0" class="graph" transform="scale(1 1) rotate(0) translate(4 271)">
<title>AsyncWait</title>
<polygon fill="white" stroke="none" points="-4,4 -4,-271 70.6738,-271 70.6738,4 -4,4"/>
<!-- Node1 -->
<g id="node1" class="node"><title>Node1</title>
<polygon fill="#bfbfbf" stroke="black" points="1.9043,-0.5 1.9043,-54.5 64.7695,-54.5 64.7695,-0.5 1.9043,-0.5"/>
<text text-anchor="middle" x="33.3369" y="-42.5" font-family="Helvetica,sans-Serif" font-size="10.00">AsyncWait</text>
<polyline fill="none" stroke="black" points="1.9043,-36.5 64.7695,-36.5 "/>
<text text-anchor="middle" x="33.3369" y="-24.5" font-family="Helvetica,sans-Serif" font-size="10.00"> </text>
<polyline fill="none" stroke="black" points="1.9043,-18.5 64.7695,-18.5 "/>
<text text-anchor="start" x="9.9043" y="-6.5" font-family="Helvetica,sans-Serif" font-size="10.00">+ end()</text>
</g>
<!-- Node2 -->
<g id="node2" class="node"><title>Node2</title>
<g id="a_node2"><a xlink:href="../../d4/d22/classHandler.html" target="_top" xlink:title="消息处理器接口 ">
<polygon fill="white" stroke="black" points="3.24463,-91.5 3.24463,-145.5 63.4292,-145.5 63.4292,-91.5 3.24463,-91.5"/>
<text text-anchor="middle" x="33.3369" y="-133.5" font-family="Helvetica,sans-Serif" font-size="10.00">Handler</text>
<polyline fill="none" stroke="black" points="3.24463,-127.5 63.4292,-127.5 "/>
<text text-anchor="middle" x="33.3369" y="-115.5" font-family="Helvetica,sans-Serif" font-size="10.00"> </text>
<polyline fill="none" stroke="black" points="3.24463,-109.5 63.4292,-109.5 "/>
<text text-anchor="start" x="11.2446" y="-97.5" font-family="Helvetica,sans-Serif" font-size="10.00">+ invoke()</text>
</a>
</g>
</g>
<!-- Node2&#45;&gt;Node1 -->
<g id="edge1" class="edge"><title>Node2&#45;&gt;Node1</title>
<path fill="none" stroke="midnightblue" d="M33.3369,-81.1155C33.3369,-72.2061 33.3369,-62.8475 33.3369,-54.5341"/>
<polygon fill="none" stroke="midnightblue" points="29.837,-81.2784 33.3369,-91.2784 36.837,-81.2785 29.837,-81.2784"/>
</g>
<!-- Node3 -->
<g id="node3" class="node"><title>Node3</title>
<g id="a_node3"><a xlink:href="../../dc/dd8/classobject.html" target="_top" xlink:title="基础对象，所有对象均继承于此 ">
<polygon fill="white" stroke="black" points="0,-182.5 0,-266.5 66.6738,-266.5 66.6738,-182.5 0,-182.5"/>
<text text-anchor="middle" x="33.3369" y="-254.5" font-family="Helvetica,sans-Serif" font-size="10.00">object</text>
<polyline fill="none" stroke="black" points="0,-248.5 66.6738,-248.5 "/>
<text text-anchor="middle" x="33.3369" y="-236.5" font-family="Helvetica,sans-Serif" font-size="10.00"> </text>
<polyline fill="none" stroke="black" points="0,-230.5 66.6738,-230.5 "/>
<text text-anchor="start" x="8" y="-218.5" font-family="Helvetica,sans-Serif" font-size="10.00">+ dispose()</text>
<text text-anchor="start" x="8" y="-208.5" font-family="Helvetica,sans-Serif" font-size="10.00">+ toString()</text>
<text text-anchor="start" x="8" y="-198.5" font-family="Helvetica,sans-Serif" font-size="10.00">+ toJSON()</text>
<text text-anchor="start" x="8" y="-188.5" font-family="Helvetica,sans-Serif" font-size="10.00">+ ValueOf()</text>
</a>
</g>
</g>
<!-- Node3&#45;&gt;Node2 -->
<g id="edge2" class="edge"><title>Node3&#45;&gt;Node2</title>
<path fill="none" stroke="midnightblue" d="M33.3369,-172.111C33.3369,-162.937 33.3369,-153.738 33.3369,-145.655"/>
<polygon fill="none" stroke="midnightblue" points="29.837,-172.396 33.3369,-182.396 36.837,-172.396 29.837,-172.396"/>
</g>
</g>
</svg>
