<?xml version="1.0" encoding="UTF-8" standalone="no"?>
<!DOCTYPE svg PUBLIC "-//W3C//DTD SVG 1.1//EN"
 "http://www.w3.org/Graphics/SVG/1.1/DTD/svg11.dtd">
<!-- Generated by graphviz version 2.38.0 (20140413.2041)
 -->
<!-- Title: AsyncWait Pages: 1 -->
<svg width="74pt" height="275pt"
 viewBox="0.00 0.00 74.29 275.00" xmlns="http://www.w3.org/2000/svg" xmlns:xlink="http://www.w3.org/1999/xlink">
<g id="graph0" class="graph" transform="scale(1 1) rotate(0) translate(4 271)">
<title>AsyncWait</title>
<polygon fill="white" stroke="none" points="-4,4 -4,-271 70.2881,-271 70.2881,4 -4,4"/>
<!-- Node1 -->
<g id="node1" class="node"><title>Node1</title>
<polygon fill="#bfbfbf" stroke="black" points="1.71143,-0.5 1.71143,-54.5 64.5767,-54.5 64.5767,-0.5 1.71143,-0.5"/>
<text text-anchor="middle" x="33.144" y="-42.5" font-family="Helvetica,sans-Serif" font-size="10.00">AsyncWait</text>
<polyline fill="none" stroke="black" points="1.71143,-36.5 64.5767,-36.5 "/>
<text text-anchor="middle" x="33.144" y="-24.5" font-family="Helvetica,sans-Serif" font-size="10.00"> </text>
<polyline fill="none" stroke="black" points="1.71143,-18.5 64.5767,-18.5 "/>
<text text-anchor="start" x="9.71143" y="-6.5" font-family="Helvetica,sans-Serif" font-size="10.00">+ end()</text>
</g>
<!-- Node2 -->
<g id="node2" class="node"><title>Node2</title>
<g id="a_node2"><a xlink:href="../../d4/d22/classHandler.html" target="_top" xlink:title="消息处理器接口 ">
<polygon fill="white" stroke="black" points="3.05176,-91.5 3.05176,-145.5 63.2363,-145.5 63.2363,-91.5 3.05176,-91.5"/>
<text text-anchor="middle" x="33.144" y="-133.5" font-family="Helvetica,sans-Serif" font-size="10.00">Handler</text>
<polyline fill="none" stroke="black" points="3.05176,-127.5 63.2363,-127.5 "/>
<text text-anchor="middle" x="33.144" y="-115.5" font-family="Helvetica,sans-Serif" font-size="10.00"> </text>
<polyline fill="none" stroke="black" points="3.05176,-109.5 63.2363,-109.5 "/>
<text text-anchor="start" x="11.0518" y="-97.5" font-family="Helvetica,sans-Serif" font-size="10.00">+ invoke()</text>
</a>
</g>
</g>
<!-- Node2&#45;&gt;Node1 -->
<g id="edge1" class="edge"><title>Node2&#45;&gt;Node1</title>
<path fill="none" stroke="midnightblue" d="M33.144,-81.1155C33.144,-72.2061 33.144,-62.8475 33.144,-54.5341"/>
<polygon fill="none" stroke="midnightblue" points="29.6441,-81.2784 33.144,-91.2784 36.6441,-81.2785 29.6441,-81.2784"/>
</g>
<!-- Node3 -->
<g id="node3" class="node"><title>Node3</title>
<g id="a_node3"><a xlink:href="../../dc/dd8/classobject.html" target="_top" xlink:title="基础对象，所有对象均继承于此 ">
<polygon fill="white" stroke="black" points="0,-182.5 0,-266.5 66.2881,-266.5 66.2881,-182.5 0,-182.5"/>
<text text-anchor="middle" x="33.144" y="-254.5" font-family="Helvetica,sans-Serif" font-size="10.00">object</text>
<polyline fill="none" stroke="black" points="0,-248.5 66.2881,-248.5 "/>
<text text-anchor="middle" x="33.144" y="-236.5" font-family="Helvetica,sans-Serif" font-size="10.00"> </text>
<polyline fill="none" stroke="black" points="0,-230.5 66.2881,-230.5 "/>
<text text-anchor="start" x="8" y="-218.5" font-family="Helvetica,sans-Serif" font-size="10.00">+ dispose()</text>
<text text-anchor="start" x="8" y="-208.5" font-family="Helvetica,sans-Serif" font-size="10.00">+ toString()</text>
<text text-anchor="start" x="8" y="-198.5" font-family="Helvetica,sans-Serif" font-size="10.00">+ toJSON()</text>
<text text-anchor="start" x="8" y="-188.5" font-family="Helvetica,sans-Serif" font-size="10.00">+ valueOf()</text>
</a>
</g>
</g>
<!-- Node3&#45;&gt;Node2 -->
<g id="edge2" class="edge"><title>Node3&#45;&gt;Node2</title>
<path fill="none" stroke="midnightblue" d="M33.144,-172.111C33.144,-162.937 33.144,-153.738 33.144,-145.655"/>
<polygon fill="none" stroke="midnightblue" points="29.6441,-172.396 33.144,-182.396 36.6441,-172.396 29.6441,-172.396"/>
</g>
</g>
</svg>
