<?xml version="1.0" encoding="UTF-8" standalone="no"?>
<!DOCTYPE svg PUBLIC "-//W3C//DTD SVG 1.1//EN"
 "http://www.w3.org/Graphics/SVG/1.1/DTD/svg11.dtd">
<!-- Generated by graphviz version 2.38.0 (20140413.2041)
 -->
<!-- Title: uuid Pages: 1 -->
<svg width="73pt" height="234pt"
 viewBox="0.00 0.00 73.18 234.00" xmlns="http://www.w3.org/2000/svg" xmlns:xlink="http://www.w3.org/1999/xlink">
<g id="graph0" class="graph" transform="scale(1 1) rotate(0) translate(4 230)">
<title>uuid</title>
<polygon fill="white" stroke="none" points="-4,4 -4,-230 69.1846,-230 69.1846,4 -4,4"/>
<!-- Node1 -->
<g id="node1" class="node"><title>Node1</title>
<polygon fill="#bfbfbf" stroke="black" points="0,-0.5 0,-134.5 65.1846,-134.5 65.1846,-0.5 0,-0.5"/>
<text text-anchor="middle" x="32.5923" y="-122.5" font-family="Helvetica,sans-Serif" font-size="10.00">uuid</text>
<polyline fill="none" stroke="black" points="0,-116.5 65.1846,-116.5 "/>
<text text-anchor="start" x="8" y="-104.5" font-family="Helvetica,sans-Serif" font-size="10.00">+ DNS</text>
<text text-anchor="start" x="8" y="-94.5" font-family="Helvetica,sans-Serif" font-size="10.00">+ URL</text>
<text text-anchor="start" x="8" y="-84.5" font-family="Helvetica,sans-Serif" font-size="10.00">+ OID</text>
<text text-anchor="start" x="8" y="-74.5" font-family="Helvetica,sans-Serif" font-size="10.00">+ X509</text>
<polyline fill="none" stroke="black" points="0,-68.5 65.1846,-68.5 "/>
<text text-anchor="start" x="8" y="-56.5" font-family="Helvetica,sans-Serif" font-size="10.00">+ uuid()</text>
<text text-anchor="start" x="8" y="-46.5" font-family="Helvetica,sans-Serif" font-size="10.00">+ uuid()</text>
<text text-anchor="start" x="8" y="-36.5" font-family="Helvetica,sans-Serif" font-size="10.00">+ node()</text>
<text text-anchor="start" x="8" y="-26.5" font-family="Helvetica,sans-Serif" font-size="10.00">+ md5()</text>
<text text-anchor="start" x="8" y="-16.5" font-family="Helvetica,sans-Serif" font-size="10.00">+ random()</text>
<text text-anchor="start" x="8" y="-6.5" font-family="Helvetica,sans-Serif" font-size="10.00">+ sha1()</text>
</g>
<!-- Node2 -->
<g id="node2" class="node"><title>Node2</title>
<g id="a_node2"><a xlink:href="../../d0/dd3/classmodule.html" target="_top" xlink:title="基础模块对象，所有模块对象均继承于此 ">
<polygon fill="white" stroke="black" points="8.19336,-171.5 8.19336,-225.5 56.9912,-225.5 56.9912,-171.5 8.19336,-171.5"/>
<text text-anchor="middle" x="32.5923" y="-213.5" font-family="Helvetica,sans-Serif" font-size="10.00">module</text>
<polyline fill="none" stroke="black" points="8.19336,-207.5 56.9912,-207.5 "/>
<text text-anchor="middle" x="32.5923" y="-195.5" font-family="Helvetica,sans-Serif" font-size="10.00"> </text>
<polyline fill="none" stroke="black" points="8.19336,-189.5 56.9912,-189.5 "/>
<text text-anchor="middle" x="32.5923" y="-177.5" font-family="Helvetica,sans-Serif" font-size="10.00"> </text>
</a>
</g>
</g>
<!-- Node2&#45;&gt;Node1 -->
<g id="edge1" class="edge"><title>Node2&#45;&gt;Node1</title>
<path fill="none" stroke="midnightblue" d="M32.5923,-161.287C32.5923,-152.928 32.5923,-143.78 32.5923,-134.588"/>
<polygon fill="none" stroke="midnightblue" points="29.0924,-161.395 32.5923,-171.395 36.0924,-161.395 29.0924,-161.395"/>
</g>
</g>
</svg>
