<?xml version="1.0" encoding="UTF-8" standalone="no"?>
<!DOCTYPE svg PUBLIC "-//W3C//DTD SVG 1.1//EN"
 "http://www.w3.org/Graphics/SVG/1.1/DTD/svg11.dtd">
<!-- Generated by graphviz version 2.38.0 (20140413.2041)
 -->
<!-- Title: SslHandler Pages: 1 -->
<svg width="88pt" height="305pt"
 viewBox="0.00 0.00 88.19 305.00" xmlns="http://www.w3.org/2000/svg" xmlns:xlink="http://www.w3.org/1999/xlink">
<g id="graph0" class="graph" transform="scale(1 1) rotate(0) translate(4 301)">
<title>SslHandler</title>
<polygon fill="white" stroke="none" points="-4,4 -4,-301 84.1895,-301 84.1895,4 -4,4"/>
<!-- Node1 -->
<g id="node1" class="node"><title>Node1</title>
<polygon fill="#bfbfbf" stroke="black" points="0,-0.5 0,-84.5 80.1895,-84.5 80.1895,-0.5 0,-0.5"/>
<text text-anchor="middle" x="40.0947" y="-72.5" font-family="Helvetica,sans-Serif" font-size="10.00">SslHandler</text>
<polyline fill="none" stroke="black" points="0,-66.5 80.1895,-66.5 "/>
<text text-anchor="start" x="8" y="-54.5" font-family="Helvetica,sans-Serif" font-size="10.00">+ verification</text>
<text text-anchor="start" x="8" y="-44.5" font-family="Helvetica,sans-Serif" font-size="10.00">+ ca</text>
<text text-anchor="start" x="8" y="-34.5" font-family="Helvetica,sans-Serif" font-size="10.00">+ handler</text>
<polyline fill="none" stroke="black" points="0,-28.5 80.1895,-28.5 "/>
<text text-anchor="start" x="8" y="-16.5" font-family="Helvetica,sans-Serif" font-size="10.00">+ SslHandler()</text>
<text text-anchor="start" x="8" y="-6.5" font-family="Helvetica,sans-Serif" font-size="10.00">+ SslHandler()</text>
</g>
<!-- Node2 -->
<g id="node2" class="node"><title>Node2</title>
<g id="a_node2"><a xlink:href="../../d4/d22/classHandler.html" target="_top" xlink:title="消息处理器接口 ">
<polygon fill="white" stroke="black" points="10.0024,-121.5 10.0024,-175.5 70.187,-175.5 70.187,-121.5 10.0024,-121.5"/>
<text text-anchor="middle" x="40.0947" y="-163.5" font-family="Helvetica,sans-Serif" font-size="10.00">Handler</text>
<polyline fill="none" stroke="black" points="10.0024,-157.5 70.187,-157.5 "/>
<text text-anchor="middle" x="40.0947" y="-145.5" font-family="Helvetica,sans-Serif" font-size="10.00"> </text>
<polyline fill="none" stroke="black" points="10.0024,-139.5 70.187,-139.5 "/>
<text text-anchor="start" x="18.0024" y="-127.5" font-family="Helvetica,sans-Serif" font-size="10.00">+ invoke()</text>
</a>
</g>
</g>
<!-- Node2&#45;&gt;Node1 -->
<g id="edge1" class="edge"><title>Node2&#45;&gt;Node1</title>
<path fill="none" stroke="midnightblue" d="M40.0947,-111.203C40.0947,-102.649 40.0947,-93.469 40.0947,-84.7156"/>
<polygon fill="none" stroke="midnightblue" points="36.5948,-111.256 40.0947,-121.256 43.5948,-111.256 36.5948,-111.256"/>
</g>
<!-- Node3 -->
<g id="node3" class="node"><title>Node3</title>
<g id="a_node3"><a xlink:href="../../dc/dd8/classobject.html" target="_top" xlink:title="基础对象，所有对象均继承于此 ">
<polygon fill="white" stroke="black" points="6.95068,-212.5 6.95068,-296.5 73.2388,-296.5 73.2388,-212.5 6.95068,-212.5"/>
<text text-anchor="middle" x="40.0947" y="-284.5" font-family="Helvetica,sans-Serif" font-size="10.00">object</text>
<polyline fill="none" stroke="black" points="6.95068,-278.5 73.2388,-278.5 "/>
<text text-anchor="middle" x="40.0947" y="-266.5" font-family="Helvetica,sans-Serif" font-size="10.00"> </text>
<polyline fill="none" stroke="black" points="6.95068,-260.5 73.2388,-260.5 "/>
<text text-anchor="start" x="14.9507" y="-248.5" font-family="Helvetica,sans-Serif" font-size="10.00">+ dispose()</text>
<text text-anchor="start" x="14.9507" y="-238.5" font-family="Helvetica,sans-Serif" font-size="10.00">+ toString()</text>
<text text-anchor="start" x="14.9507" y="-228.5" font-family="Helvetica,sans-Serif" font-size="10.00">+ toJSON()</text>
<text text-anchor="start" x="14.9507" y="-218.5" font-family="Helvetica,sans-Serif" font-size="10.00">+ valueOf()</text>
</a>
</g>
</g>
<!-- Node3&#45;&gt;Node2 -->
<g id="edge2" class="edge"><title>Node3&#45;&gt;Node2</title>
<path fill="none" stroke="midnightblue" d="M40.0947,-202.111C40.0947,-192.937 40.0947,-183.738 40.0947,-175.655"/>
<polygon fill="none" stroke="midnightblue" points="36.5948,-202.396 40.0947,-212.396 43.5948,-202.396 36.5948,-202.396"/>
</g>
</g>
</svg>
