<?xml version="1.0" encoding="UTF-8" standalone="no"?>
<!DOCTYPE svg PUBLIC "-//W3C//DTD SVG 1.1//EN"
 "http://www.w3.org/Graphics/SVG/1.1/DTD/svg11.dtd">
<!-- Generated by graphviz version 2.38.0 (20140413.2041)
 -->
<!-- Title: File Pages: 1 -->
<svg width="98pt" height="476pt"
 viewBox="0.00 0.00 97.93 476.00" xmlns="http://www.w3.org/2000/svg" xmlns:xlink="http://www.w3.org/1999/xlink">
<g id="graph0" class="graph" transform="scale(1 1) rotate(0) translate(4 472)">
<title>File</title>
<polygon fill="white" stroke="none" points="-4,4 -4,-472 93.9307,-472 93.9307,4 -4,4"/>
<!-- Node1 -->
<g id="node1" class="node"><title>Node1</title>
<polygon fill="#bfbfbf" stroke="black" points="11.2598,-0.5 11.2598,-84.5 78.6709,-84.5 78.6709,-0.5 11.2598,-0.5"/>
<text text-anchor="middle" x="44.9653" y="-72.5" font-family="Helvetica,sans-Serif" font-size="10.00">File</text>
<polyline fill="none" stroke="black" points="11.2598,-66.5 78.6709,-66.5 "/>
<text text-anchor="start" x="19.2598" y="-54.5" font-family="Helvetica,sans-Serif" font-size="10.00">+ name</text>
<polyline fill="none" stroke="black" points="11.2598,-48.5 78.6709,-48.5 "/>
<text text-anchor="start" x="19.2598" y="-36.5" font-family="Helvetica,sans-Serif" font-size="10.00">+ truncate()</text>
<text text-anchor="start" x="19.2598" y="-26.5" font-family="Helvetica,sans-Serif" font-size="10.00">+ eof()</text>
<text text-anchor="start" x="19.2598" y="-16.5" font-family="Helvetica,sans-Serif" font-size="10.00">+ flush()</text>
<text text-anchor="start" x="19.2598" y="-6.5" font-family="Helvetica,sans-Serif" font-size="10.00">+ chmod()</text>
</g>
<!-- Node2 -->
<g id="node2" class="node"><title>Node2</title>
<g id="a_node2"><a xlink:href="../../db/d67/classSeekableStream.html" target="_top" xlink:title="可移动当前指针的流对象接口 ">
<polygon fill="white" stroke="black" points="0,-121.5 0,-225.5 89.9307,-225.5 89.9307,-121.5 0,-121.5"/>
<text text-anchor="middle" x="44.9653" y="-213.5" font-family="Helvetica,sans-Serif" font-size="10.00">SeekableStream</text>
<polyline fill="none" stroke="black" points="0,-207.5 89.9307,-207.5 "/>
<text text-anchor="middle" x="44.9653" y="-195.5" font-family="Helvetica,sans-Serif" font-size="10.00"> </text>
<polyline fill="none" stroke="black" points="0,-189.5 89.9307,-189.5 "/>
<text text-anchor="start" x="8" y="-177.5" font-family="Helvetica,sans-Serif" font-size="10.00">+ seek()</text>
<text text-anchor="start" x="8" y="-167.5" font-family="Helvetica,sans-Serif" font-size="10.00">+ tell()</text>
<text text-anchor="start" x="8" y="-157.5" font-family="Helvetica,sans-Serif" font-size="10.00">+ rewind()</text>
<text text-anchor="start" x="8" y="-147.5" font-family="Helvetica,sans-Serif" font-size="10.00">+ size()</text>
<text text-anchor="start" x="8" y="-137.5" font-family="Helvetica,sans-Serif" font-size="10.00">+ readAll()</text>
<text text-anchor="start" x="8" y="-127.5" font-family="Helvetica,sans-Serif" font-size="10.00">+ stat()</text>
</a>
</g>
</g>
<!-- Node2&#45;&gt;Node1 -->
<g id="edge1" class="edge"><title>Node2&#45;&gt;Node1</title>
<path fill="none" stroke="midnightblue" d="M44.9653,-111.124C44.9653,-102.186 44.9653,-93.1671 44.9653,-84.7571"/>
<polygon fill="none" stroke="midnightblue" points="41.4654,-111.145 44.9653,-121.145 48.4654,-111.145 41.4654,-111.145"/>
</g>
<!-- Node3 -->
<g id="node3" class="node"><title>Node3</title>
<g id="a_node3"><a xlink:href="../../dc/de8/classStream.html" target="_top" xlink:title="流操作对象，用于二进制数据流读写 ">
<polygon fill="white" stroke="black" points="13.4839,-262.5 13.4839,-346.5 76.4468,-346.5 76.4468,-262.5 13.4839,-262.5"/>
<text text-anchor="middle" x="44.9653" y="-334.5" font-family="Helvetica,sans-Serif" font-size="10.00">Stream</text>
<polyline fill="none" stroke="black" points="13.4839,-328.5 76.4468,-328.5 "/>
<text text-anchor="middle" x="44.9653" y="-316.5" font-family="Helvetica,sans-Serif" font-size="10.00"> </text>
<polyline fill="none" stroke="black" points="13.4839,-310.5 76.4468,-310.5 "/>
<text text-anchor="start" x="21.4839" y="-298.5" font-family="Helvetica,sans-Serif" font-size="10.00">+ read()</text>
<text text-anchor="start" x="21.4839" y="-288.5" font-family="Helvetica,sans-Serif" font-size="10.00">+ write()</text>
<text text-anchor="start" x="21.4839" y="-278.5" font-family="Helvetica,sans-Serif" font-size="10.00">+ close()</text>
<text text-anchor="start" x="21.4839" y="-268.5" font-family="Helvetica,sans-Serif" font-size="10.00">+ copyTo()</text>
</a>
</g>
</g>
<!-- Node3&#45;&gt;Node2 -->
<g id="edge2" class="edge"><title>Node3&#45;&gt;Node2</title>
<path fill="none" stroke="midnightblue" d="M44.9653,-252.261C44.9653,-243.517 44.9653,-234.434 44.9653,-225.691"/>
<polygon fill="none" stroke="midnightblue" points="41.4654,-252.329 44.9653,-262.329 48.4654,-252.329 41.4654,-252.329"/>
</g>
<!-- Node4 -->
<g id="node4" class="node"><title>Node4</title>
<g id="a_node4"><a xlink:href="../../dc/dd8/classobject.html" target="_top" xlink:title="基础对象，所有对象均继承于此 ">
<polygon fill="white" stroke="black" points="11.8213,-383.5 11.8213,-467.5 78.1094,-467.5 78.1094,-383.5 11.8213,-383.5"/>
<text text-anchor="middle" x="44.9653" y="-455.5" font-family="Helvetica,sans-Serif" font-size="10.00">object</text>
<polyline fill="none" stroke="black" points="11.8213,-449.5 78.1094,-449.5 "/>
<text text-anchor="middle" x="44.9653" y="-437.5" font-family="Helvetica,sans-Serif" font-size="10.00"> </text>
<polyline fill="none" stroke="black" points="11.8213,-431.5 78.1094,-431.5 "/>
<text text-anchor="start" x="19.8213" y="-419.5" font-family="Helvetica,sans-Serif" font-size="10.00">+ dispose()</text>
<text text-anchor="start" x="19.8213" y="-409.5" font-family="Helvetica,sans-Serif" font-size="10.00">+ toString()</text>
<text text-anchor="start" x="19.8213" y="-399.5" font-family="Helvetica,sans-Serif" font-size="10.00">+ toJSON()</text>
<text text-anchor="start" x="19.8213" y="-389.5" font-family="Helvetica,sans-Serif" font-size="10.00">+ valueOf()</text>
</a>
</g>
</g>
<!-- Node4&#45;&gt;Node3 -->
<g id="edge3" class="edge"><title>Node4&#45;&gt;Node3</title>
<path fill="none" stroke="midnightblue" d="M44.9653,-373.041C44.9653,-364.241 44.9653,-355.202 44.9653,-346.713"/>
<polygon fill="none" stroke="midnightblue" points="41.4654,-373.214 44.9653,-383.214 48.4654,-373.214 41.4654,-373.214"/>
</g>
</g>
</svg>
