<?xml version="1.0" encoding="UTF-8" standalone="no"?>
<!DOCTYPE svg PUBLIC "-//W3C//DTD SVG 1.1//EN"
 "http://www.w3.org/Graphics/SVG/1.1/DTD/svg11.dtd">
<!-- Generated by graphviz version 2.38.0 (20140413.2041)
 -->
<!-- Title: Stream Pages: 1 -->
<svg width="421pt" height="566pt"
 viewBox="0.00 0.00 421.44 566.00" xmlns="http://www.w3.org/2000/svg" xmlns:xlink="http://www.w3.org/1999/xlink">
<g id="graph0" class="graph" transform="scale(1 1) rotate(0) translate(4 562)">
<title>Stream</title>
<polygon fill="white" stroke="none" points="-4,4 -4,-562 417.439,-562 417.439,4 -4,4"/>
<!-- Node1 -->
<g id="node1" class="node"><title>Node1</title>
<polygon fill="#bfbfbf" stroke="black" points="187.087,-352.5 187.087,-436.5 250.05,-436.5 250.05,-352.5 187.087,-352.5"/>
<text text-anchor="middle" x="218.568" y="-424.5" font-family="Helvetica,sans-Serif" font-size="10.00">Stream</text>
<polyline fill="none" stroke="black" points="187.087,-418.5 250.05,-418.5 "/>
<text text-anchor="middle" x="218.568" y="-406.5" font-family="Helvetica,sans-Serif" font-size="10.00"> </text>
<polyline fill="none" stroke="black" points="187.087,-400.5 250.05,-400.5 "/>
<text text-anchor="start" x="195.087" y="-388.5" font-family="Helvetica,sans-Serif" font-size="10.00">+ read()</text>
<text text-anchor="start" x="195.087" y="-378.5" font-family="Helvetica,sans-Serif" font-size="10.00">+ write()</text>
<text text-anchor="start" x="195.087" y="-368.5" font-family="Helvetica,sans-Serif" font-size="10.00">+ close()</text>
<text text-anchor="start" x="195.087" y="-358.5" font-family="Helvetica,sans-Serif" font-size="10.00">+ copyTo()</text>
</g>
<!-- Node3 -->
<g id="node3" class="node"><title>Node3</title>
<g id="a_node3"><a xlink:href="../../d2/dee/classBufferedStream.html" target="_top" xlink:title="缓存读取对象 ">
<polygon fill="white" stroke="black" points="0,-141.5 0,-295.5 101.137,-295.5 101.137,-141.5 0,-141.5"/>
<text text-anchor="middle" x="50.5684" y="-283.5" font-family="Helvetica,sans-Serif" font-size="10.00">BufferedStream</text>
<polyline fill="none" stroke="black" points="0,-277.5 101.137,-277.5 "/>
<text text-anchor="start" x="8" y="-265.5" font-family="Helvetica,sans-Serif" font-size="10.00">+ stream</text>
<text text-anchor="start" x="8" y="-255.5" font-family="Helvetica,sans-Serif" font-size="10.00">+ charset</text>
<text text-anchor="start" x="8" y="-245.5" font-family="Helvetica,sans-Serif" font-size="10.00">+ EOL</text>
<polyline fill="none" stroke="black" points="0,-239.5 101.137,-239.5 "/>
<text text-anchor="start" x="8" y="-227.5" font-family="Helvetica,sans-Serif" font-size="10.00">+ BufferedStream()</text>
<text text-anchor="start" x="8" y="-217.5" font-family="Helvetica,sans-Serif" font-size="10.00">+ readText()</text>
<text text-anchor="start" x="8" y="-207.5" font-family="Helvetica,sans-Serif" font-size="10.00">+ readLine()</text>
<text text-anchor="start" x="8" y="-197.5" font-family="Helvetica,sans-Serif" font-size="10.00">+ readLines()</text>
<text text-anchor="start" x="8" y="-187.5" font-family="Helvetica,sans-Serif" font-size="10.00">+ readUntil()</text>
<text text-anchor="start" x="8" y="-177.5" font-family="Helvetica,sans-Serif" font-size="10.00">+ readPacket()</text>
<text text-anchor="start" x="8" y="-167.5" font-family="Helvetica,sans-Serif" font-size="10.00">+ writeText()</text>
<text text-anchor="start" x="8" y="-157.5" font-family="Helvetica,sans-Serif" font-size="10.00">+ writeLine()</text>
<text text-anchor="start" x="8" y="-147.5" font-family="Helvetica,sans-Serif" font-size="10.00">+ writePacket()</text>
</a>
</g>
</g>
<!-- Node1&#45;&gt;Node3 -->
<g id="edge2" class="edge"><title>Node1&#45;&gt;Node3</title>
<path fill="none" stroke="midnightblue" d="M178.054,-369.868C156.41,-355.974 130.25,-337.029 110.568,-316 104.772,-309.807 99.2296,-302.971 94.02,-295.884"/>
<polygon fill="none" stroke="midnightblue" points="176.386,-372.954 186.714,-375.316 180.113,-367.029 176.386,-372.954"/>
</g>
<!-- Node4 -->
<g id="node4" class="node"><title>Node4</title>
<g id="a_node4"><a xlink:href="../../db/d67/classSeekableStream.html" target="_top" xlink:title="可移动当前指针的流对象接口 ">
<polygon fill="white" stroke="black" points="119.603,-166.5 119.603,-270.5 209.534,-270.5 209.534,-166.5 119.603,-166.5"/>
<text text-anchor="middle" x="164.568" y="-258.5" font-family="Helvetica,sans-Serif" font-size="10.00">SeekableStream</text>
<polyline fill="none" stroke="black" points="119.603,-252.5 209.534,-252.5 "/>
<text text-anchor="middle" x="164.568" y="-240.5" font-family="Helvetica,sans-Serif" font-size="10.00"> </text>
<polyline fill="none" stroke="black" points="119.603,-234.5 209.534,-234.5 "/>
<text text-anchor="start" x="127.603" y="-222.5" font-family="Helvetica,sans-Serif" font-size="10.00">+ seek()</text>
<text text-anchor="start" x="127.603" y="-212.5" font-family="Helvetica,sans-Serif" font-size="10.00">+ tell()</text>
<text text-anchor="start" x="127.603" y="-202.5" font-family="Helvetica,sans-Serif" font-size="10.00">+ rewind()</text>
<text text-anchor="start" x="127.603" y="-192.5" font-family="Helvetica,sans-Serif" font-size="10.00">+ size()</text>
<text text-anchor="start" x="127.603" y="-182.5" font-family="Helvetica,sans-Serif" font-size="10.00">+ readAll()</text>
<text text-anchor="start" x="127.603" y="-172.5" font-family="Helvetica,sans-Serif" font-size="10.00">+ stat()</text>
</a>
</g>
</g>
<!-- Node1&#45;&gt;Node4 -->
<g id="edge3" class="edge"><title>Node1&#45;&gt;Node4</title>
<path fill="none" stroke="midnightblue" d="M202.744,-342.511C195.727,-319.9 187.487,-293.348 180.462,-270.711"/>
<polygon fill="none" stroke="midnightblue" points="199.464,-343.751 205.771,-352.264 206.15,-341.676 199.464,-343.751"/>
</g>
<!-- Node7 -->
<g id="node7" class="node"><title>Node7</title>
<g id="a_node7"><a xlink:href="../../d4/d33/classSocket.html" target="_top" xlink:title="网络套接口对象 ">
<polygon fill="white" stroke="black" points="227.355,-121.5 227.355,-315.5 319.781,-315.5 319.781,-121.5 227.355,-121.5"/>
<text text-anchor="middle" x="273.568" y="-303.5" font-family="Helvetica,sans-Serif" font-size="10.00">Socket</text>
<polyline fill="none" stroke="black" points="227.355,-297.5 319.781,-297.5 "/>
<text text-anchor="start" x="235.355" y="-285.5" font-family="Helvetica,sans-Serif" font-size="10.00">+ family</text>
<text text-anchor="start" x="235.355" y="-275.5" font-family="Helvetica,sans-Serif" font-size="10.00">+ type</text>
<text text-anchor="start" x="235.355" y="-265.5" font-family="Helvetica,sans-Serif" font-size="10.00">+ remoteAddress</text>
<text text-anchor="start" x="235.355" y="-255.5" font-family="Helvetica,sans-Serif" font-size="10.00">+ remotePort</text>
<text text-anchor="start" x="235.355" y="-245.5" font-family="Helvetica,sans-Serif" font-size="10.00">+ localAddress</text>
<text text-anchor="start" x="235.355" y="-235.5" font-family="Helvetica,sans-Serif" font-size="10.00">+ localPort</text>
<polyline fill="none" stroke="black" points="227.355,-229.5 319.781,-229.5 "/>
<text text-anchor="start" x="235.355" y="-217.5" font-family="Helvetica,sans-Serif" font-size="10.00">+ Socket()</text>
<text text-anchor="start" x="235.355" y="-207.5" font-family="Helvetica,sans-Serif" font-size="10.00">+ connect()</text>
<text text-anchor="start" x="235.355" y="-197.5" font-family="Helvetica,sans-Serif" font-size="10.00">+ bind()</text>
<text text-anchor="start" x="235.355" y="-187.5" font-family="Helvetica,sans-Serif" font-size="10.00">+ bind()</text>
<text text-anchor="start" x="235.355" y="-177.5" font-family="Helvetica,sans-Serif" font-size="10.00">+ listen()</text>
<text text-anchor="start" x="235.355" y="-167.5" font-family="Helvetica,sans-Serif" font-size="10.00">+ accept()</text>
<text text-anchor="start" x="235.355" y="-157.5" font-family="Helvetica,sans-Serif" font-size="10.00">+ recv()</text>
<text text-anchor="start" x="235.355" y="-147.5" font-family="Helvetica,sans-Serif" font-size="10.00">+ recvFrom()</text>
<text text-anchor="start" x="235.355" y="-137.5" font-family="Helvetica,sans-Serif" font-size="10.00">+ send()</text>
<text text-anchor="start" x="235.355" y="-127.5" font-family="Helvetica,sans-Serif" font-size="10.00">+ sendto()</text>
</a>
</g>
</g>
<!-- Node1&#45;&gt;Node7 -->
<g id="edge6" class="edge"><title>Node1&#45;&gt;Node7</title>
<path fill="none" stroke="midnightblue" d="M234.675,-342.545C237.368,-334.024 240.239,-324.943 243.153,-315.722"/>
<polygon fill="none" stroke="midnightblue" points="231.279,-341.675 231.603,-352.264 237.954,-343.784 231.279,-341.675"/>
</g>
<!-- Node8 -->
<g id="node8" class="node"><title>Node8</title>
<g id="a_node8"><a xlink:href="../../d7/d3f/classSslSocket.html" target="_top" xlink:title="ssl 网络套接口对象 ">
<polygon fill="white" stroke="black" points="337.698,-166.5 337.698,-270.5 413.439,-270.5 413.439,-166.5 337.698,-166.5"/>
<text text-anchor="middle" x="375.568" y="-258.5" font-family="Helvetica,sans-Serif" font-size="10.00">SslSocket</text>
<polyline fill="none" stroke="black" points="337.698,-252.5 413.439,-252.5 "/>
<text text-anchor="start" x="345.698" y="-240.5" font-family="Helvetica,sans-Serif" font-size="10.00">+ verification</text>
<text text-anchor="start" x="345.698" y="-230.5" font-family="Helvetica,sans-Serif" font-size="10.00">+ ca</text>
<text text-anchor="start" x="345.698" y="-220.5" font-family="Helvetica,sans-Serif" font-size="10.00">+ peerCert</text>
<polyline fill="none" stroke="black" points="337.698,-214.5 413.439,-214.5 "/>
<text text-anchor="start" x="345.698" y="-202.5" font-family="Helvetica,sans-Serif" font-size="10.00">+ SslSocket()</text>
<text text-anchor="start" x="345.698" y="-192.5" font-family="Helvetica,sans-Serif" font-size="10.00">+ SslSocket()</text>
<text text-anchor="start" x="345.698" y="-182.5" font-family="Helvetica,sans-Serif" font-size="10.00">+ connect()</text>
<text text-anchor="start" x="345.698" y="-172.5" font-family="Helvetica,sans-Serif" font-size="10.00">+ accept()</text>
</a>
</g>
</g>
<!-- Node1&#45;&gt;Node8 -->
<g id="edge7" class="edge"><title>Node1&#45;&gt;Node8</title>
<path fill="none" stroke="midnightblue" d="M259.029,-371.831C281.684,-358.149 309.187,-338.773 328.568,-316 339.801,-302.802 349.075,-286.458 356.331,-270.995"/>
<polygon fill="none" stroke="midnightblue" points="257.135,-368.884 250.293,-376.973 260.686,-374.917 257.135,-368.884"/>
</g>
<!-- Node2 -->
<g id="node2" class="node"><title>Node2</title>
<g id="a_node2"><a xlink:href="../../dc/dd8/classobject.html" target="_top" xlink:title="基础对象，所有对象均继承于此 ">
<polygon fill="white" stroke="black" points="185.231,-473.5 185.231,-557.5 251.905,-557.5 251.905,-473.5 185.231,-473.5"/>
<text text-anchor="middle" x="218.568" y="-545.5" font-family="Helvetica,sans-Serif" font-size="10.00">object</text>
<polyline fill="none" stroke="black" points="185.231,-539.5 251.905,-539.5 "/>
<text text-anchor="middle" x="218.568" y="-527.5" font-family="Helvetica,sans-Serif" font-size="10.00"> </text>
<polyline fill="none" stroke="black" points="185.231,-521.5 251.905,-521.5 "/>
<text text-anchor="start" x="193.231" y="-509.5" font-family="Helvetica,sans-Serif" font-size="10.00">+ dispose()</text>
<text text-anchor="start" x="193.231" y="-499.5" font-family="Helvetica,sans-Serif" font-size="10.00">+ toString()</text>
<text text-anchor="start" x="193.231" y="-489.5" font-family="Helvetica,sans-Serif" font-size="10.00">+ toJSON()</text>
<text text-anchor="start" x="193.231" y="-479.5" font-family="Helvetica,sans-Serif" font-size="10.00">+ ValueOf()</text>
</a>
</g>
</g>
<!-- Node2&#45;&gt;Node1 -->
<g id="edge1" class="edge"><title>Node2&#45;&gt;Node1</title>
<path fill="none" stroke="midnightblue" d="M218.568,-463.041C218.568,-454.241 218.568,-445.202 218.568,-436.713"/>
<polygon fill="none" stroke="midnightblue" points="215.068,-463.214 218.568,-473.214 222.068,-463.214 215.068,-463.214"/>
</g>
<!-- Node5 -->
<g id="node5" class="node"><title>Node5</title>
<g id="a_node5"><a xlink:href="../../db/d30/classFile.html" target="_top" xlink:title="文件操作对象，用于二进制文件读写 ">
<polygon fill="white" stroke="black" points="79.8628,-0.5 79.8628,-84.5 147.274,-84.5 147.274,-0.5 79.8628,-0.5"/>
<text text-anchor="middle" x="113.568" y="-72.5" font-family="Helvetica,sans-Serif" font-size="10.00">File</text>
<polyline fill="none" stroke="black" points="79.8628,-66.5 147.274,-66.5 "/>
<text text-anchor="start" x="87.8628" y="-54.5" font-family="Helvetica,sans-Serif" font-size="10.00">+ name</text>
<polyline fill="none" stroke="black" points="79.8628,-48.5 147.274,-48.5 "/>
<text text-anchor="start" x="87.8628" y="-36.5" font-family="Helvetica,sans-Serif" font-size="10.00">+ truncate()</text>
<text text-anchor="start" x="87.8628" y="-26.5" font-family="Helvetica,sans-Serif" font-size="10.00">+ eof()</text>
<text text-anchor="start" x="87.8628" y="-16.5" font-family="Helvetica,sans-Serif" font-size="10.00">+ flush()</text>
<text text-anchor="start" x="87.8628" y="-6.5" font-family="Helvetica,sans-Serif" font-size="10.00">+ chmod()</text>
</a>
</g>
</g>
<!-- Node4&#45;&gt;Node5 -->
<g id="edge4" class="edge"><title>Node4&#45;&gt;Node5</title>
<path fill="none" stroke="midnightblue" d="M146.718,-156.598C139.753,-132.837 131.95,-106.214 125.665,-84.77"/>
<polygon fill="none" stroke="midnightblue" points="143.371,-157.624 149.543,-166.235 150.088,-155.655 143.371,-157.624"/>
</g>
<!-- Node6 -->
<g id="node6" class="node"><title>Node6</title>
<g id="a_node6"><a xlink:href="../../dd/d97/classMemoryStream.html" target="_top" xlink:title="内存流对象 ">
<polygon fill="white" stroke="black" points="165.757,-0.5 165.757,-84.5 265.38,-84.5 265.38,-0.5 165.757,-0.5"/>
<text text-anchor="middle" x="215.568" y="-72.5" font-family="Helvetica,sans-Serif" font-size="10.00">MemoryStream</text>
<polyline fill="none" stroke="black" points="165.757,-66.5 265.38,-66.5 "/>
<text text-anchor="middle" x="215.568" y="-54.5" font-family="Helvetica,sans-Serif" font-size="10.00"> </text>
<polyline fill="none" stroke="black" points="165.757,-48.5 265.38,-48.5 "/>
<text text-anchor="start" x="173.757" y="-36.5" font-family="Helvetica,sans-Serif" font-size="10.00">+ MemoryStream()</text>
<text text-anchor="start" x="173.757" y="-26.5" font-family="Helvetica,sans-Serif" font-size="10.00">+ setTime()</text>
<text text-anchor="start" x="173.757" y="-16.5" font-family="Helvetica,sans-Serif" font-size="10.00">+ clone()</text>
<text text-anchor="start" x="173.757" y="-6.5" font-family="Helvetica,sans-Serif" font-size="10.00">+ clear()</text>
</a>
</g>
</g>
<!-- Node4&#45;&gt;Node6 -->
<g id="edge5" class="edge"><title>Node4&#45;&gt;Node6</title>
<path fill="none" stroke="midnightblue" d="M182.419,-156.598C189.383,-132.837 197.187,-106.214 203.472,-84.77"/>
<polygon fill="none" stroke="midnightblue" points="179.048,-155.655 179.594,-166.235 185.766,-157.624 179.048,-155.655"/>
</g>
</g>
</svg>
