<?xml version="1.0" encoding="UTF-8" standalone="no"?>
<!DOCTYPE svg PUBLIC "-//W3C//DTD SVG 1.1//EN"
 "http://www.w3.org/Graphics/SVG/1.1/DTD/svg11.dtd">
<!-- Generated by graphviz version 2.38.0 (20140413.2041)
 -->
<!-- Title: HttpUploadData Pages: 1 -->
<svg width="144pt" height="214pt"
 viewBox="0.00 0.00 143.99 214.00" xmlns="http://www.w3.org/2000/svg" xmlns:xlink="http://www.w3.org/1999/xlink">
<g id="graph0" class="graph" transform="scale(1 1) rotate(0) translate(4 210)">
<title>HttpUploadData</title>
<polygon fill="white" stroke="none" points="-4,4 -4,-210 139.985,-210 139.985,4 -4,4"/>
<!-- Node1 -->
<g id="node1" class="node"><title>Node1</title>
<polygon fill="#bfbfbf" stroke="black" points="0,-0.5 0,-84.5 135.985,-84.5 135.985,-0.5 0,-0.5"/>
<text text-anchor="middle" x="67.9927" y="-72.5" font-family="Helvetica,sans-Serif" font-size="10.00">HttpUploadData</text>
<polyline fill="none" stroke="black" points="0,-66.5 135.985,-66.5 "/>
<text text-anchor="start" x="8" y="-54.5" font-family="Helvetica,sans-Serif" font-size="10.00">+ fileName</text>
<text text-anchor="start" x="8" y="-44.5" font-family="Helvetica,sans-Serif" font-size="10.00">+ contentType</text>
<text text-anchor="start" x="8" y="-34.5" font-family="Helvetica,sans-Serif" font-size="10.00">+ contentTransferEncoding</text>
<text text-anchor="start" x="8" y="-24.5" font-family="Helvetica,sans-Serif" font-size="10.00">+ body</text>
<polyline fill="none" stroke="black" points="0,-18.5 135.985,-18.5 "/>
<text text-anchor="middle" x="67.9927" y="-6.5" font-family="Helvetica,sans-Serif" font-size="10.00"> </text>
</g>
<!-- Node2 -->
<g id="node2" class="node"><title>Node2</title>
<g id="a_node2"><a xlink:href="../../dc/dd8/classobject.html" target="_top" xlink:title="基础对象，所有对象均继承于此 ">
<polygon fill="white" stroke="black" points="34.8486,-121.5 34.8486,-205.5 101.137,-205.5 101.137,-121.5 34.8486,-121.5"/>
<text text-anchor="middle" x="67.9927" y="-193.5" font-family="Helvetica,sans-Serif" font-size="10.00">object</text>
<polyline fill="none" stroke="black" points="34.8486,-187.5 101.137,-187.5 "/>
<text text-anchor="middle" x="67.9927" y="-175.5" font-family="Helvetica,sans-Serif" font-size="10.00"> </text>
<polyline fill="none" stroke="black" points="34.8486,-169.5 101.137,-169.5 "/>
<text text-anchor="start" x="42.8486" y="-157.5" font-family="Helvetica,sans-Serif" font-size="10.00">+ dispose()</text>
<text text-anchor="start" x="42.8486" y="-147.5" font-family="Helvetica,sans-Serif" font-size="10.00">+ toString()</text>
<text text-anchor="start" x="42.8486" y="-137.5" font-family="Helvetica,sans-Serif" font-size="10.00">+ toJSON()</text>
<text text-anchor="start" x="42.8486" y="-127.5" font-family="Helvetica,sans-Serif" font-size="10.00">+ valueOf()</text>
</a>
</g>
</g>
<!-- Node2&#45;&gt;Node1 -->
<g id="edge1" class="edge"><title>Node2&#45;&gt;Node1</title>
<path fill="none" stroke="midnightblue" d="M67.9927,-111.041C67.9927,-102.241 67.9927,-93.2021 67.9927,-84.7135"/>
<polygon fill="none" stroke="midnightblue" points="64.4928,-111.214 67.9927,-121.214 71.4928,-111.214 64.4928,-111.214"/>
</g>
</g>
</svg>
