<?xml version="1.0" encoding="UTF-8" standalone="no"?>
<!DOCTYPE svg PUBLIC "-//W3C//DTD SVG 1.1//EN"
 "http://www.w3.org/Graphics/SVG/1.1/DTD/svg11.dtd">
<!-- Generated by graphviz version 2.38.0 (20140413.2041)
 -->
<!-- Title: Queue Pages: 1 -->
<svg width="94pt" height="375pt"
 viewBox="0.00 0.00 93.76 375.00" xmlns="http://www.w3.org/2000/svg" xmlns:xlink="http://www.w3.org/1999/xlink">
<g id="graph0" class="graph" transform="scale(1 1) rotate(0) translate(4 371)">
<title>Queue</title>
<polygon fill="white" stroke="none" points="-4,4 -4,-371 89.7559,-371 89.7559,4 -4,4"/>
<!-- Node1 -->
<g id="node1" class="node"><title>Node1</title>
<polygon fill="#bfbfbf" stroke="black" points="9.45068,-111.5 9.45068,-245.5 76.3052,-245.5 76.3052,-111.5 9.45068,-111.5"/>
<text text-anchor="middle" x="42.8779" y="-233.5" font-family="Helvetica,sans-Serif" font-size="10.00">Queue</text>
<polyline fill="none" stroke="black" points="9.45068,-227.5 76.3052,-227.5 "/>
<text text-anchor="start" x="17.4507" y="-215.5" font-family="Helvetica,sans-Serif" font-size="10.00">+ length</text>
<polyline fill="none" stroke="black" points="9.45068,-209.5 76.3052,-209.5 "/>
<text text-anchor="start" x="17.4507" y="-197.5" font-family="Helvetica,sans-Serif" font-size="10.00">+ Queue()</text>
<text text-anchor="start" x="17.4507" y="-187.5" font-family="Helvetica,sans-Serif" font-size="10.00">+ add()</text>
<text text-anchor="start" x="17.4507" y="-177.5" font-family="Helvetica,sans-Serif" font-size="10.00">+ offer()</text>
<text text-anchor="start" x="17.4507" y="-167.5" font-family="Helvetica,sans-Serif" font-size="10.00">+ remove()</text>
<text text-anchor="start" x="17.4507" y="-157.5" font-family="Helvetica,sans-Serif" font-size="10.00">+ poll()</text>
<text text-anchor="start" x="17.4507" y="-147.5" font-family="Helvetica,sans-Serif" font-size="10.00">+ element()</text>
<text text-anchor="start" x="17.4507" y="-137.5" font-family="Helvetica,sans-Serif" font-size="10.00">+ peek()</text>
<text text-anchor="start" x="17.4507" y="-127.5" font-family="Helvetica,sans-Serif" font-size="10.00">+ clear()</text>
<text text-anchor="start" x="17.4507" y="-117.5" font-family="Helvetica,sans-Serif" font-size="10.00">+ toArray()</text>
</g>
<!-- Node3 -->
<g id="node3" class="node"><title>Node3</title>
<g id="a_node3"><a xlink:href="../../d7/d38/classBlockQueue.html" target="_top" xlink:title="阻塞 FIFO（先进先出）队列对象 ">
<polygon fill="white" stroke="black" points="0,-0.5 0,-74.5 85.7559,-74.5 85.7559,-0.5 0,-0.5"/>
<text text-anchor="middle" x="42.8779" y="-62.5" font-family="Helvetica,sans-Serif" font-size="10.00">BlockQueue</text>
<polyline fill="none" stroke="black" points="0,-56.5 85.7559,-56.5 "/>
<text text-anchor="middle" x="42.8779" y="-44.5" font-family="Helvetica,sans-Serif" font-size="10.00"> </text>
<polyline fill="none" stroke="black" points="0,-38.5 85.7559,-38.5 "/>
<text text-anchor="start" x="8" y="-26.5" font-family="Helvetica,sans-Serif" font-size="10.00">+ BlockQueue()</text>
<text text-anchor="start" x="8" y="-16.5" font-family="Helvetica,sans-Serif" font-size="10.00">+ put()</text>
<text text-anchor="start" x="8" y="-6.5" font-family="Helvetica,sans-Serif" font-size="10.00">+ take()</text>
</a>
</g>
</g>
<!-- Node1&#45;&gt;Node3 -->
<g id="edge2" class="edge"><title>Node1&#45;&gt;Node3</title>
<path fill="none" stroke="midnightblue" d="M42.8779,-101.228C42.8779,-92.015 42.8779,-82.9623 42.8779,-74.7257"/>
<polygon fill="none" stroke="midnightblue" points="39.378,-101.257 42.8779,-111.257 46.378,-101.257 39.378,-101.257"/>
</g>
<!-- Node2 -->
<g id="node2" class="node"><title>Node2</title>
<g id="a_node2"><a xlink:href="../../dc/dd8/classobject.html" target="_top" xlink:title="基础对象，所有对象均继承于此 ">
<polygon fill="white" stroke="black" points="9.73389,-282.5 9.73389,-366.5 76.022,-366.5 76.022,-282.5 9.73389,-282.5"/>
<text text-anchor="middle" x="42.8779" y="-354.5" font-family="Helvetica,sans-Serif" font-size="10.00">object</text>
<polyline fill="none" stroke="black" points="9.73389,-348.5 76.022,-348.5 "/>
<text text-anchor="middle" x="42.8779" y="-336.5" font-family="Helvetica,sans-Serif" font-size="10.00"> </text>
<polyline fill="none" stroke="black" points="9.73389,-330.5 76.022,-330.5 "/>
<text text-anchor="start" x="17.7339" y="-318.5" font-family="Helvetica,sans-Serif" font-size="10.00">+ dispose()</text>
<text text-anchor="start" x="17.7339" y="-308.5" font-family="Helvetica,sans-Serif" font-size="10.00">+ toString()</text>
<text text-anchor="start" x="17.7339" y="-298.5" font-family="Helvetica,sans-Serif" font-size="10.00">+ toJSON()</text>
<text text-anchor="start" x="17.7339" y="-288.5" font-family="Helvetica,sans-Serif" font-size="10.00">+ valueOf()</text>
</a>
</g>
</g>
<!-- Node2&#45;&gt;Node1 -->
<g id="edge1" class="edge"><title>Node2&#45;&gt;Node1</title>
<path fill="none" stroke="midnightblue" d="M42.8779,-272.005C42.8779,-263.416 42.8779,-254.401 42.8779,-245.509"/>
<polygon fill="none" stroke="midnightblue" points="39.378,-272.235 42.8779,-282.235 46.378,-272.235 39.378,-272.235"/>
</g>
</g>
</svg>
