<?xml version="1.0" encoding="UTF-8" standalone="no"?>
<!DOCTYPE svg PUBLIC "-//W3C//DTD SVG 1.1//EN"
 "http://www.w3.org/Graphics/SVG/1.1/DTD/svg11.dtd">
<!-- Generated by graphviz version 2.38.0 (20140413.2041)
 -->
<!-- Title: LevelDB Pages: 1 -->
<svg width="75pt" height="294pt"
 viewBox="0.00 0.00 74.67 294.00" xmlns="http://www.w3.org/2000/svg" xmlns:xlink="http://www.w3.org/1999/xlink">
<g id="graph0" class="graph" transform="scale(1 1) rotate(0) translate(4 290)">
<title>LevelDB</title>
<polygon fill="white" stroke="none" points="-4,4 -4,-290 70.6738,-290 70.6738,4 -4,4"/>
<!-- Node1 -->
<g id="node1" class="node"><title>Node1</title>
<polygon fill="#bfbfbf" stroke="black" points="1.02539,-0.5 1.02539,-164.5 65.6484,-164.5 65.6484,-0.5 1.02539,-0.5"/>
<text text-anchor="middle" x="33.3369" y="-152.5" font-family="Helvetica,sans-Serif" font-size="10.00">LevelDB</text>
<polyline fill="none" stroke="black" points="1.02539,-146.5 65.6484,-146.5 "/>
<text text-anchor="middle" x="33.3369" y="-134.5" font-family="Helvetica,sans-Serif" font-size="10.00"> </text>
<polyline fill="none" stroke="black" points="1.02539,-128.5 65.6484,-128.5 "/>
<text text-anchor="start" x="9.02539" y="-116.5" font-family="Helvetica,sans-Serif" font-size="10.00">+ has()</text>
<text text-anchor="start" x="9.02539" y="-106.5" font-family="Helvetica,sans-Serif" font-size="10.00">+ has()</text>
<text text-anchor="start" x="9.02539" y="-96.5" font-family="Helvetica,sans-Serif" font-size="10.00">+ get()</text>
<text text-anchor="start" x="9.02539" y="-86.5" font-family="Helvetica,sans-Serif" font-size="10.00">+ get()</text>
<text text-anchor="start" x="9.02539" y="-76.5" font-family="Helvetica,sans-Serif" font-size="10.00">+ put()</text>
<text text-anchor="start" x="9.02539" y="-66.5" font-family="Helvetica,sans-Serif" font-size="10.00">+ put()</text>
<text text-anchor="start" x="9.02539" y="-56.5" font-family="Helvetica,sans-Serif" font-size="10.00">+ put()</text>
<text text-anchor="start" x="9.02539" y="-46.5" font-family="Helvetica,sans-Serif" font-size="10.00">+ remove()</text>
<text text-anchor="start" x="9.02539" y="-36.5" font-family="Helvetica,sans-Serif" font-size="10.00">+ remove()</text>
<text text-anchor="start" x="9.02539" y="-26.5" font-family="Helvetica,sans-Serif" font-size="10.00">+ begin()</text>
<text text-anchor="start" x="9.02539" y="-16.5" font-family="Helvetica,sans-Serif" font-size="10.00">+ commit()</text>
<text text-anchor="start" x="9.02539" y="-6.5" font-family="Helvetica,sans-Serif" font-size="10.00">+ close()</text>
</g>
<!-- Node2 -->
<g id="node2" class="node"><title>Node2</title>
<g id="a_node2"><a xlink:href="../../dc/dd8/classobject.html" target="_top" xlink:title="基础对象，所有对象均继承于此 ">
<polygon fill="white" stroke="black" points="0,-201.5 0,-285.5 66.6738,-285.5 66.6738,-201.5 0,-201.5"/>
<text text-anchor="middle" x="33.3369" y="-273.5" font-family="Helvetica,sans-Serif" font-size="10.00">object</text>
<polyline fill="none" stroke="black" points="0,-267.5 66.6738,-267.5 "/>
<text text-anchor="middle" x="33.3369" y="-255.5" font-family="Helvetica,sans-Serif" font-size="10.00"> </text>
<polyline fill="none" stroke="black" points="0,-249.5 66.6738,-249.5 "/>
<text text-anchor="start" x="8" y="-237.5" font-family="Helvetica,sans-Serif" font-size="10.00">+ dispose()</text>
<text text-anchor="start" x="8" y="-227.5" font-family="Helvetica,sans-Serif" font-size="10.00">+ toString()</text>
<text text-anchor="start" x="8" y="-217.5" font-family="Helvetica,sans-Serif" font-size="10.00">+ toJSON()</text>
<text text-anchor="start" x="8" y="-207.5" font-family="Helvetica,sans-Serif" font-size="10.00">+ ValueOf()</text>
</a>
</g>
</g>
<!-- Node2&#45;&gt;Node1 -->
<g id="edge1" class="edge"><title>Node2&#45;&gt;Node1</title>
<path fill="none" stroke="midnightblue" d="M33.3369,-191.102C33.3369,-182.651 33.3369,-173.713 33.3369,-164.745"/>
<polygon fill="none" stroke="midnightblue" points="29.837,-191.14 33.3369,-201.14 36.837,-191.14 29.837,-191.14"/>
</g>
</g>
</svg>
