<?xml version="1.0" encoding="UTF-8" standalone="no"?>
<!DOCTYPE svg PUBLIC "-//W3C//DTD SVG 1.1//EN"
 "http://www.w3.org/Graphics/SVG/1.1/DTD/svg11.dtd">
<!-- Generated by graphviz version 2.38.0 (20140413.2041)
 -->
<!-- Title: util Pages: 1 -->
<svg width="120pt" height="314pt"
 viewBox="0.00 0.00 120.43 314.00" xmlns="http://www.w3.org/2000/svg" xmlns:xlink="http://www.w3.org/1999/xlink">
<g id="graph0" class="graph" transform="scale(1 1) rotate(0) translate(4 310)">
<title>util</title>
<polygon fill="white" stroke="none" points="-4,4 -4,-310 116.426,-310 116.426,4 -4,4"/>
<!-- Node1 -->
<g id="node1" class="node"><title>Node1</title>
<polygon fill="#bfbfbf" stroke="black" points="0,-0.5 0,-214.5 112.426,-214.5 112.426,-0.5 0,-0.5"/>
<text text-anchor="middle" x="56.2129" y="-202.5" font-family="Helvetica,sans-Serif" font-size="10.00">util</text>
<polyline fill="none" stroke="black" points="0,-196.5 112.426,-196.5 "/>
<text text-anchor="middle" x="56.2129" y="-184.5" font-family="Helvetica,sans-Serif" font-size="10.00"> </text>
<polyline fill="none" stroke="black" points="0,-178.5 112.426,-178.5 "/>
<text text-anchor="start" x="8" y="-166.5" font-family="Helvetica,sans-Serif" font-size="10.00">+ format()</text>
<text text-anchor="start" x="8" y="-156.5" font-family="Helvetica,sans-Serif" font-size="10.00">+ format()</text>
<text text-anchor="start" x="8" y="-146.5" font-family="Helvetica,sans-Serif" font-size="10.00">+ isArray()</text>
<text text-anchor="start" x="8" y="-136.5" font-family="Helvetica,sans-Serif" font-size="10.00">+ isBoolean()</text>
<text text-anchor="start" x="8" y="-126.5" font-family="Helvetica,sans-Serif" font-size="10.00">+ isNull()</text>
<text text-anchor="start" x="8" y="-116.5" font-family="Helvetica,sans-Serif" font-size="10.00">+ isNullOrUndefined()</text>
<text text-anchor="start" x="8" y="-106.5" font-family="Helvetica,sans-Serif" font-size="10.00">+ isNumber()</text>
<text text-anchor="start" x="8" y="-96.5" font-family="Helvetica,sans-Serif" font-size="10.00">+ isString()</text>
<text text-anchor="start" x="8" y="-86.5" font-family="Helvetica,sans-Serif" font-size="10.00">+ isUndefined()</text>
<text text-anchor="start" x="8" y="-76.5" font-family="Helvetica,sans-Serif" font-size="10.00">+ isRegExp()</text>
<text text-anchor="start" x="8" y="-66.5" font-family="Helvetica,sans-Serif" font-size="10.00">+ isObject()</text>
<text text-anchor="start" x="8" y="-56.5" font-family="Helvetica,sans-Serif" font-size="10.00">+ isDate()</text>
<text text-anchor="start" x="8" y="-46.5" font-family="Helvetica,sans-Serif" font-size="10.00">+ isFunction()</text>
<text text-anchor="start" x="8" y="-36.5" font-family="Helvetica,sans-Serif" font-size="10.00">+ isBuffer()</text>
<text text-anchor="start" x="8" y="-26.5" font-family="Helvetica,sans-Serif" font-size="10.00">+ Stats()</text>
<text text-anchor="start" x="8" y="-16.5" font-family="Helvetica,sans-Serif" font-size="10.00">+ LruCache()</text>
<text text-anchor="start" x="8" y="-6.5" font-family="Helvetica,sans-Serif" font-size="10.00">+ buildInfo()</text>
</g>
<!-- Node2 -->
<g id="node2" class="node"><title>Node2</title>
<g id="a_node2"><a xlink:href="../../d0/dd3/classmodule.html" target="_top" xlink:title="基础模块对象，所有模块对象均继承于此 ">
<polygon fill="white" stroke="black" points="31.814,-251.5 31.814,-305.5 80.6118,-305.5 80.6118,-251.5 31.814,-251.5"/>
<text text-anchor="middle" x="56.2129" y="-293.5" font-family="Helvetica,sans-Serif" font-size="10.00">module</text>
<polyline fill="none" stroke="black" points="31.814,-287.5 80.6118,-287.5 "/>
<text text-anchor="middle" x="56.2129" y="-275.5" font-family="Helvetica,sans-Serif" font-size="10.00"> </text>
<polyline fill="none" stroke="black" points="31.814,-269.5 80.6118,-269.5 "/>
<text text-anchor="middle" x="56.2129" y="-257.5" font-family="Helvetica,sans-Serif" font-size="10.00"> </text>
</a>
</g>
</g>
<!-- Node2&#45;&gt;Node1 -->
<g id="edge1" class="edge"><title>Node2&#45;&gt;Node1</title>
<path fill="none" stroke="midnightblue" d="M56.2129,-241.291C56.2129,-233.122 56.2129,-224.047 56.2129,-214.585"/>
<polygon fill="none" stroke="midnightblue" points="52.713,-241.464 56.2129,-251.464 59.713,-241.464 52.713,-241.464"/>
</g>
</g>
</svg>
