<?xml version="1.0" encoding="UTF-8" standalone="no"?>
<!DOCTYPE svg PUBLIC "-//W3C//DTD SVG 1.1//EN"
 "http://www.w3.org/Graphics/SVG/1.1/DTD/svg11.dtd">
<!-- Generated by graphviz version 2.38.0 (20140413.2041)
 -->
<!-- Title: DbConnection Pages: 1 -->
<svg width="168pt" height="345pt"
 viewBox="0.00 0.00 168.49 345.00" xmlns="http://www.w3.org/2000/svg" xmlns:xlink="http://www.w3.org/1999/xlink">
<g id="graph0" class="graph" transform="scale(1 1) rotate(0) translate(4 341)">
<title>DbConnection</title>
<polygon fill="white" stroke="none" points="-4,4 -4,-341 164.491,-341 164.491,4 -4,4"/>
<!-- Node1 -->
<g id="node1" class="node"><title>Node1</title>
<polygon fill="#bfbfbf" stroke="black" points="43.7656,-101.5 43.7656,-215.5 123.14,-215.5 123.14,-101.5 43.7656,-101.5"/>
<text text-anchor="middle" x="83.4526" y="-203.5" font-family="Helvetica,sans-Serif" font-size="10.00">DbConnection</text>
<polyline fill="none" stroke="black" points="43.7656,-197.5 123.14,-197.5 "/>
<text text-anchor="middle" x="83.4526" y="-185.5" font-family="Helvetica,sans-Serif" font-size="10.00"> </text>
<polyline fill="none" stroke="black" points="43.7656,-179.5 123.14,-179.5 "/>
<text text-anchor="start" x="51.7656" y="-167.5" font-family="Helvetica,sans-Serif" font-size="10.00">+ close()</text>
<text text-anchor="start" x="51.7656" y="-157.5" font-family="Helvetica,sans-Serif" font-size="10.00">+ begin()</text>
<text text-anchor="start" x="51.7656" y="-147.5" font-family="Helvetica,sans-Serif" font-size="10.00">+ commit()</text>
<text text-anchor="start" x="51.7656" y="-137.5" font-family="Helvetica,sans-Serif" font-size="10.00">+ rollback()</text>
<text text-anchor="start" x="51.7656" y="-127.5" font-family="Helvetica,sans-Serif" font-size="10.00">+ execute()</text>
<text text-anchor="start" x="51.7656" y="-117.5" font-family="Helvetica,sans-Serif" font-size="10.00">+ execute()</text>
<text text-anchor="start" x="51.7656" y="-107.5" font-family="Helvetica,sans-Serif" font-size="10.00">+ format()</text>
</g>
<!-- Node3 -->
<g id="node3" class="node"><title>Node3</title>
<g id="a_node3"><a xlink:href="../../d3/da8/classMySQL.html" target="_top" xlink:title="mysql 数据库连接对象 ">
<polygon fill="white" stroke="black" points="0,-0.5 0,-64.5 78.9053,-64.5 78.9053,-0.5 0,-0.5"/>
<text text-anchor="middle" x="39.4526" y="-52.5" font-family="Helvetica,sans-Serif" font-size="10.00">MySQL</text>
<polyline fill="none" stroke="black" points="0,-46.5 78.9053,-46.5 "/>
<text text-anchor="start" x="8" y="-34.5" font-family="Helvetica,sans-Serif" font-size="10.00">+ rxBufferSize</text>
<text text-anchor="start" x="8" y="-24.5" font-family="Helvetica,sans-Serif" font-size="10.00">+ txBufferSize</text>
<polyline fill="none" stroke="black" points="0,-18.5 78.9053,-18.5 "/>
<text text-anchor="start" x="8" y="-6.5" font-family="Helvetica,sans-Serif" font-size="10.00">+ use()</text>
</a>
</g>
</g>
<!-- Node1&#45;&gt;Node3 -->
<g id="edge2" class="edge"><title>Node1&#45;&gt;Node3</title>
<path fill="none" stroke="midnightblue" d="M60.1602,-91.8577C56.8098,-82.4156 53.4994,-73.0864 50.5415,-64.7504"/>
<polygon fill="none" stroke="midnightblue" points="56.8698,-93.0511 63.5125,-101.305 63.4668,-90.7102 56.8698,-93.0511"/>
</g>
<!-- Node4 -->
<g id="node4" class="node"><title>Node4</title>
<g id="a_node4"><a xlink:href="../../df/d93/classSQLite.html" target="_top" xlink:title="sqlite 数据库连接对象 ">
<polygon fill="white" stroke="black" points="96.4146,-0.5 96.4146,-64.5 160.491,-64.5 160.491,-0.5 96.4146,-0.5"/>
<text text-anchor="middle" x="128.453" y="-52.5" font-family="Helvetica,sans-Serif" font-size="10.00">SQLite</text>
<polyline fill="none" stroke="black" points="96.4146,-46.5 160.491,-46.5 "/>
<text text-anchor="start" x="104.415" y="-34.5" font-family="Helvetica,sans-Serif" font-size="10.00">+ fileName</text>
<text text-anchor="start" x="104.415" y="-24.5" font-family="Helvetica,sans-Serif" font-size="10.00">+ timeout</text>
<polyline fill="none" stroke="black" points="96.4146,-18.5 160.491,-18.5 "/>
<text text-anchor="start" x="104.415" y="-6.5" font-family="Helvetica,sans-Serif" font-size="10.00">+ backup()</text>
</a>
</g>
</g>
<!-- Node1&#45;&gt;Node4 -->
<g id="edge3" class="edge"><title>Node1&#45;&gt;Node4</title>
<path fill="none" stroke="midnightblue" d="M107.274,-91.8577C110.701,-82.4156 114.087,-73.0864 117.112,-64.7504"/>
<polygon fill="none" stroke="midnightblue" points="103.967,-90.7108 103.846,-101.305 110.547,-93.0988 103.967,-90.7108"/>
</g>
<!-- Node2 -->
<g id="node2" class="node"><title>Node2</title>
<g id="a_node2"><a xlink:href="../../dc/dd8/classobject.html" target="_top" xlink:title="基础对象，所有对象均继承于此 ">
<polygon fill="white" stroke="black" points="50.3086,-252.5 50.3086,-336.5 116.597,-336.5 116.597,-252.5 50.3086,-252.5"/>
<text text-anchor="middle" x="83.4526" y="-324.5" font-family="Helvetica,sans-Serif" font-size="10.00">object</text>
<polyline fill="none" stroke="black" points="50.3086,-318.5 116.597,-318.5 "/>
<text text-anchor="middle" x="83.4526" y="-306.5" font-family="Helvetica,sans-Serif" font-size="10.00"> </text>
<polyline fill="none" stroke="black" points="50.3086,-300.5 116.597,-300.5 "/>
<text text-anchor="start" x="58.3086" y="-288.5" font-family="Helvetica,sans-Serif" font-size="10.00">+ dispose()</text>
<text text-anchor="start" x="58.3086" y="-278.5" font-family="Helvetica,sans-Serif" font-size="10.00">+ toString()</text>
<text text-anchor="start" x="58.3086" y="-268.5" font-family="Helvetica,sans-Serif" font-size="10.00">+ toJSON()</text>
<text text-anchor="start" x="58.3086" y="-258.5" font-family="Helvetica,sans-Serif" font-size="10.00">+ valueOf()</text>
</a>
</g>
</g>
<!-- Node2&#45;&gt;Node1 -->
<g id="edge1" class="edge"><title>Node2&#45;&gt;Node1</title>
<path fill="none" stroke="midnightblue" d="M83.4526,-241.94C83.4526,-233.347 83.4526,-224.397 83.4526,-215.696"/>
<polygon fill="none" stroke="midnightblue" points="79.9527,-242.202 83.4526,-252.202 86.9527,-242.202 79.9527,-242.202"/>
</g>
</g>
</svg>
