<?xml version="1.0" encoding="UTF-8" standalone="no"?>
<!DOCTYPE svg PUBLIC "-//W3C//DTD SVG 1.1//EN"
 "http://www.w3.org/Graphics/SVG/1.1/DTD/svg11.dtd">
<!-- Generated by graphviz version 2.38.0 (20140413.2041)
 -->
<!-- Title: GridFS Pages: 1 -->
<svg width="74pt" height="234pt"
 viewBox="0.00 0.00 74.29 234.00" xmlns="http://www.w3.org/2000/svg" xmlns:xlink="http://www.w3.org/1999/xlink">
<g id="graph0" class="graph" transform="scale(1 1) rotate(0) translate(4 230)">
<title>GridFS</title>
<polygon fill="white" stroke="none" points="-4,4 -4,-230 70.2881,-230 70.2881,4 -4,4"/>
<!-- Node1 -->
<g id="node1" class="node"><title>Node1</title>
<polygon fill="#bfbfbf" stroke="black" points="0.83252,-0.5 0.83252,-104.5 65.4556,-104.5 65.4556,-0.5 0.83252,-0.5"/>
<text text-anchor="middle" x="33.144" y="-92.5" font-family="Helvetica,sans-Serif" font-size="10.00">GridFS</text>
<polyline fill="none" stroke="black" points="0.83252,-86.5 65.4556,-86.5 "/>
<text text-anchor="start" x="8.83252" y="-74.5" font-family="Helvetica,sans-Serif" font-size="10.00">+ files</text>
<text text-anchor="start" x="8.83252" y="-64.5" font-family="Helvetica,sans-Serif" font-size="10.00">+ chunks</text>
<polyline fill="none" stroke="black" points="0.83252,-58.5 65.4556,-58.5 "/>
<text text-anchor="start" x="8.83252" y="-46.5" font-family="Helvetica,sans-Serif" font-size="10.00">+ retrieve()</text>
<text text-anchor="start" x="8.83252" y="-36.5" font-family="Helvetica,sans-Serif" font-size="10.00">+ store()</text>
<text text-anchor="start" x="8.83252" y="-26.5" font-family="Helvetica,sans-Serif" font-size="10.00">+ store()</text>
<text text-anchor="start" x="8.83252" y="-16.5" font-family="Helvetica,sans-Serif" font-size="10.00">+ exists()</text>
<text text-anchor="start" x="8.83252" y="-6.5" font-family="Helvetica,sans-Serif" font-size="10.00">+ remove()</text>
</g>
<!-- Node2 -->
<g id="node2" class="node"><title>Node2</title>
<g id="a_node2"><a xlink:href="../../dc/dd8/classobject.html" target="_top" xlink:title="基础对象，所有对象均继承于此 ">
<polygon fill="white" stroke="black" points="0,-141.5 0,-225.5 66.2881,-225.5 66.2881,-141.5 0,-141.5"/>
<text text-anchor="middle" x="33.144" y="-213.5" font-family="Helvetica,sans-Serif" font-size="10.00">object</text>
<polyline fill="none" stroke="black" points="0,-207.5 66.2881,-207.5 "/>
<text text-anchor="middle" x="33.144" y="-195.5" font-family="Helvetica,sans-Serif" font-size="10.00"> </text>
<polyline fill="none" stroke="black" points="0,-189.5 66.2881,-189.5 "/>
<text text-anchor="start" x="8" y="-177.5" font-family="Helvetica,sans-Serif" font-size="10.00">+ dispose()</text>
<text text-anchor="start" x="8" y="-167.5" font-family="Helvetica,sans-Serif" font-size="10.00">+ toString()</text>
<text text-anchor="start" x="8" y="-157.5" font-family="Helvetica,sans-Serif" font-size="10.00">+ toJSON()</text>
<text text-anchor="start" x="8" y="-147.5" font-family="Helvetica,sans-Serif" font-size="10.00">+ valueOf()</text>
</a>
</g>
</g>
<!-- Node2&#45;&gt;Node1 -->
<g id="edge1" class="edge"><title>Node2&#45;&gt;Node1</title>
<path fill="none" stroke="midnightblue" d="M33.144,-131.261C33.144,-122.517 33.144,-113.434 33.144,-104.691"/>
<polygon fill="none" stroke="midnightblue" points="29.6441,-131.329 33.144,-141.329 36.6441,-131.329 29.6441,-131.329"/>
</g>
</g>
</svg>
