<?xml version="1.0" encoding="UTF-8" standalone="no"?>
<!DOCTYPE svg PUBLIC "-//W3C//DTD SVG 1.1//EN"
 "http://www.w3.org/Graphics/SVG/1.1/DTD/svg11.dtd">
<!-- Generated by graphviz version 2.38.0 (20140413.2041)
 -->
<!-- Title: Socket Pages: 1 -->
<svg width="100pt" height="445pt"
 viewBox="0.00 0.00 100.43 445.00" xmlns="http://www.w3.org/2000/svg" xmlns:xlink="http://www.w3.org/1999/xlink">
<g id="graph0" class="graph" transform="scale(1 1) rotate(0) translate(4 441)">
<title>Socket</title>
<polygon fill="white" stroke="none" points="-4,4 -4,-441 96.4258,-441 96.4258,4 -4,4"/>
<!-- Node1 -->
<g id="node1" class="node"><title>Node1</title>
<polygon fill="#bfbfbf" stroke="black" points="0,-0.5 0,-194.5 92.4258,-194.5 92.4258,-0.5 0,-0.5"/>
<text text-anchor="middle" x="46.2129" y="-182.5" font-family="Helvetica,sans-Serif" font-size="10.00">Socket</text>
<polyline fill="none" stroke="black" points="0,-176.5 92.4258,-176.5 "/>
<text text-anchor="start" x="8" y="-164.5" font-family="Helvetica,sans-Serif" font-size="10.00">+ family</text>
<text text-anchor="start" x="8" y="-154.5" font-family="Helvetica,sans-Serif" font-size="10.00">+ type</text>
<text text-anchor="start" x="8" y="-144.5" font-family="Helvetica,sans-Serif" font-size="10.00">+ remoteAddress</text>
<text text-anchor="start" x="8" y="-134.5" font-family="Helvetica,sans-Serif" font-size="10.00">+ remotePort</text>
<text text-anchor="start" x="8" y="-124.5" font-family="Helvetica,sans-Serif" font-size="10.00">+ localAddress</text>
<text text-anchor="start" x="8" y="-114.5" font-family="Helvetica,sans-Serif" font-size="10.00">+ localPort</text>
<polyline fill="none" stroke="black" points="0,-108.5 92.4258,-108.5 "/>
<text text-anchor="start" x="8" y="-96.5" font-family="Helvetica,sans-Serif" font-size="10.00">+ Socket()</text>
<text text-anchor="start" x="8" y="-86.5" font-family="Helvetica,sans-Serif" font-size="10.00">+ connect()</text>
<text text-anchor="start" x="8" y="-76.5" font-family="Helvetica,sans-Serif" font-size="10.00">+ bind()</text>
<text text-anchor="start" x="8" y="-66.5" font-family="Helvetica,sans-Serif" font-size="10.00">+ bind()</text>
<text text-anchor="start" x="8" y="-56.5" font-family="Helvetica,sans-Serif" font-size="10.00">+ listen()</text>
<text text-anchor="start" x="8" y="-46.5" font-family="Helvetica,sans-Serif" font-size="10.00">+ accept()</text>
<text text-anchor="start" x="8" y="-36.5" font-family="Helvetica,sans-Serif" font-size="10.00">+ recv()</text>
<text text-anchor="start" x="8" y="-26.5" font-family="Helvetica,sans-Serif" font-size="10.00">+ recvFrom()</text>
<text text-anchor="start" x="8" y="-16.5" font-family="Helvetica,sans-Serif" font-size="10.00">+ send()</text>
<text text-anchor="start" x="8" y="-6.5" font-family="Helvetica,sans-Serif" font-size="10.00">+ sendto()</text>
</g>
<!-- Node2 -->
<g id="node2" class="node"><title>Node2</title>
<g id="a_node2"><a xlink:href="../../dc/de8/classStream.html" target="_top" xlink:title="流操作对象，用于二进制数据流读写 ">
<polygon fill="white" stroke="black" points="14.7314,-231.5 14.7314,-315.5 77.6943,-315.5 77.6943,-231.5 14.7314,-231.5"/>
<text text-anchor="middle" x="46.2129" y="-303.5" font-family="Helvetica,sans-Serif" font-size="10.00">Stream</text>
<polyline fill="none" stroke="black" points="14.7314,-297.5 77.6943,-297.5 "/>
<text text-anchor="middle" x="46.2129" y="-285.5" font-family="Helvetica,sans-Serif" font-size="10.00"> </text>
<polyline fill="none" stroke="black" points="14.7314,-279.5 77.6943,-279.5 "/>
<text text-anchor="start" x="22.7314" y="-267.5" font-family="Helvetica,sans-Serif" font-size="10.00">+ read()</text>
<text text-anchor="start" x="22.7314" y="-257.5" font-family="Helvetica,sans-Serif" font-size="10.00">+ write()</text>
<text text-anchor="start" x="22.7314" y="-247.5" font-family="Helvetica,sans-Serif" font-size="10.00">+ close()</text>
<text text-anchor="start" x="22.7314" y="-237.5" font-family="Helvetica,sans-Serif" font-size="10.00">+ copyTo()</text>
</a>
</g>
</g>
<!-- Node2&#45;&gt;Node1 -->
<g id="edge1" class="edge"><title>Node2&#45;&gt;Node1</title>
<path fill="none" stroke="midnightblue" d="M46.2129,-220.988C46.2129,-212.629 46.2129,-203.742 46.2129,-194.722"/>
<polygon fill="none" stroke="midnightblue" points="42.713,-221.264 46.2129,-231.264 49.713,-221.264 42.713,-221.264"/>
</g>
<!-- Node3 -->
<g id="node3" class="node"><title>Node3</title>
<g id="a_node3"><a xlink:href="../../dc/dd8/classobject.html" target="_top" xlink:title="基础对象，所有对象均继承于此 ">
<polygon fill="white" stroke="black" points="13.0688,-352.5 13.0688,-436.5 79.3569,-436.5 79.3569,-352.5 13.0688,-352.5"/>
<text text-anchor="middle" x="46.2129" y="-424.5" font-family="Helvetica,sans-Serif" font-size="10.00">object</text>
<polyline fill="none" stroke="black" points="13.0688,-418.5 79.3569,-418.5 "/>
<text text-anchor="middle" x="46.2129" y="-406.5" font-family="Helvetica,sans-Serif" font-size="10.00"> </text>
<polyline fill="none" stroke="black" points="13.0688,-400.5 79.3569,-400.5 "/>
<text text-anchor="start" x="21.0688" y="-388.5" font-family="Helvetica,sans-Serif" font-size="10.00">+ dispose()</text>
<text text-anchor="start" x="21.0688" y="-378.5" font-family="Helvetica,sans-Serif" font-size="10.00">+ toString()</text>
<text text-anchor="start" x="21.0688" y="-368.5" font-family="Helvetica,sans-Serif" font-size="10.00">+ toJSON()</text>
<text text-anchor="start" x="21.0688" y="-358.5" font-family="Helvetica,sans-Serif" font-size="10.00">+ valueOf()</text>
</a>
</g>
</g>
<!-- Node3&#45;&gt;Node2 -->
<g id="edge2" class="edge"><title>Node3&#45;&gt;Node2</title>
<path fill="none" stroke="midnightblue" d="M46.2129,-342.041C46.2129,-333.241 46.2129,-324.202 46.2129,-315.713"/>
<polygon fill="none" stroke="midnightblue" points="42.713,-342.214 46.2129,-352.214 49.713,-342.214 42.713,-342.214"/>
</g>
</g>
</svg>
