<?xml version="1.0" encoding="UTF-8" standalone="no"?>
<!DOCTYPE svg PUBLIC "-//W3C//DTD SVG 1.1//EN"
 "http://www.w3.org/Graphics/SVG/1.1/DTD/svg11.dtd">
<!-- Generated by graphviz version 2.38.0 (20140413.2041)
 -->
<!-- Title: re Pages: 1 -->
<svg width="74pt" height="154pt"
 viewBox="0.00 0.00 73.74 154.00" xmlns="http://www.w3.org/2000/svg" xmlns:xlink="http://www.w3.org/1999/xlink">
<g id="graph0" class="graph" transform="scale(1 1) rotate(0) translate(4 150)">
<title>re</title>
<polygon fill="white" stroke="none" points="-4,4 -4,-150 69.7363,-150 69.7363,4 -4,4"/>
<!-- Node1 -->
<g id="node1" class="node"><title>Node1</title>
<polygon fill="#bfbfbf" stroke="black" points="0,-0.5 0,-54.5 65.7363,-54.5 65.7363,-0.5 0,-0.5"/>
<text text-anchor="middle" x="32.8682" y="-42.5" font-family="Helvetica,sans-Serif" font-size="10.00">re</text>
<polyline fill="none" stroke="black" points="0,-36.5 65.7363,-36.5 "/>
<text text-anchor="middle" x="32.8682" y="-24.5" font-family="Helvetica,sans-Serif" font-size="10.00"> </text>
<polyline fill="none" stroke="black" points="0,-18.5 65.7363,-18.5 "/>
<text text-anchor="start" x="8" y="-6.5" font-family="Helvetica,sans-Serif" font-size="10.00">+ compile()</text>
</g>
<!-- Node2 -->
<g id="node2" class="node"><title>Node2</title>
<g id="a_node2"><a xlink:href="../../d0/dd3/classmodule.html" target="_top" xlink:title="基础模块对象，所有模块对象均继承于此 ">
<polygon fill="white" stroke="black" points="8.46924,-91.5 8.46924,-145.5 57.2671,-145.5 57.2671,-91.5 8.46924,-91.5"/>
<text text-anchor="middle" x="32.8682" y="-133.5" font-family="Helvetica,sans-Serif" font-size="10.00">module</text>
<polyline fill="none" stroke="black" points="8.46924,-127.5 57.2671,-127.5 "/>
<text text-anchor="middle" x="32.8682" y="-115.5" font-family="Helvetica,sans-Serif" font-size="10.00"> </text>
<polyline fill="none" stroke="black" points="8.46924,-109.5 57.2671,-109.5 "/>
<text text-anchor="middle" x="32.8682" y="-97.5" font-family="Helvetica,sans-Serif" font-size="10.00"> </text>
</a>
</g>
</g>
<!-- Node2&#45;&gt;Node1 -->
<g id="edge1" class="edge"><title>Node2&#45;&gt;Node1</title>
<path fill="none" stroke="midnightblue" d="M32.8682,-81.1155C32.8682,-72.2061 32.8682,-62.8475 32.8682,-54.5341"/>
<polygon fill="none" stroke="midnightblue" points="29.3683,-81.2784 32.8682,-91.2784 36.3683,-81.2785 29.3683,-81.2784"/>
</g>
</g>
</svg>
