<?xml version="1.0" encoding="utf-8"?>
<!-- Generator: Adobe Illustrator 16.0.0, SVG Export Plug-In . SVG Version: 6.00 Build 0)  -->
<!DOCTYPE svg PUBLIC "-//W3C//DTD SVG 1.1//EN" "http://www.w3.org/Graphics/SVG/1.1/DTD/svg11.dtd">
<svg version="1.1" id="Layer_1" xmlns="http://www.w3.org/2000/svg" xmlns:xlink="http://www.w3.org/1999/xlink" x="0px" y="0px"
	 width="1920px" height="1080px" viewBox="0 0 1920 1080" enable-background="new 0 0 1920 1080" xml:space="preserve">
<g>
	<path fill="#00ABE6" d="M1152.668,583.506c19.012,0,34.42-15.408,34.42-34.42c0-19.018-15.408-34.427-34.42-34.427
		c-19.027,0-34.436,15.409-34.436,34.427C1118.232,568.098,1133.641,583.506,1152.668,583.506z"/>
	<path fill="#00ABE6" d="M1152.668,640.634c-19.027,0-34.436,15.4-34.436,34.419c0,19.013,15.408,34.429,34.436,34.429
		c19.012,0,34.42-15.416,34.42-34.429C1187.088,656.034,1171.68,640.634,1152.668,640.634z"/>
	<path fill="#BCBEC0" d="M1258.725,402.272h45.5v329.431c0,33.17-5.368,58.346-16.08,75.537
		c-10.713,17.19-29.42,25.785-56.111,25.785c-6.485,0-14.268-0.82-23.363-2.438c-9.096-1.625-16.472-4.031-22.145-7.268
		l9.713-39.443c4.039,2.422,8.587,4.251,13.65,5.462c5.048,1.211,10.205,1.82,15.464,1.82c7.282,0,13.135-1.61,17.604-4.86
		c4.438-3.227,7.877-7.782,10.307-13.643s3.938-12.947,4.555-21.238c0.603-8.283,0.906-17.69,0.906-28.208V402.272z"/>
	<path fill="#BCBEC0" d="M1367.321,770.53c7.674,5.268,18.495,10.221,32.452,14.862c13.954,4.656,29.825,6.978,47.625,6.978
		c22.645,0,41.046-5.556,55.212-16.683c14.151-11.126,21.231-28.613,21.231-52.478c0-15.776-4.048-29.521-12.137-41.248
		c-8.095-11.729-18.205-22.544-30.332-32.468c-12.143-9.9-25.177-19.604-39.132-29.122c-13.956-9.493-27.005-20.019-39.132-31.536
		c-12.135-11.533-22.254-24.778-30.333-39.742c-8.096-14.955-12.135-32.958-12.135-54.001c0-33.967,10.213-59.15,30.638-75.528
		c20.409-16.378,47.023-24.575,79.779-24.575c20.223,0,38.225,1.821,53.994,5.462c15.774,3.642,28.52,8.298,38.225,13.956
		l-14.564,40.038c-7.283-4.438-17.699-8.494-31.24-12.127c-13.564-3.642-29.224-5.462-47.023-5.462
		c-21.84,0-38.022,5.368-48.532,16.074c-10.524,10.728-15.775,24.176-15.775,40.343c0,14.166,4.04,26.7,12.127,37.623
		c8.095,10.916,18.206,21.23,30.341,30.935c12.135,9.705,25.176,19.52,39.132,29.42c13.955,9.924,26.997,20.934,39.132,33.068
		c12.135,12.134,22.246,25.895,30.333,41.257c8.087,15.378,12.135,33.576,12.135,54.604c0,35.591-10.517,63.494-31.553,83.718
		c-21.026,20.229-50.759,30.332-89.179,30.332c-24.262,0-44.195-2.219-59.761-6.673c-15.572-4.445-28.013-9.493-37.312-15.159
		L1367.321,770.53z"/>
	<path fill="#00ABE6" d="M528.573,330.15c8.455,0,16.624,0.43,24.528,1.274c4.962,0.531,10.373,1.68,16.229,3.438
		c3.461,1.039,10.744,1.485,10.842-4.133l0.531-84.647c-23.003-5.626-37.752-8.134-74.97-8.134s-65.851,11.994-85.862,35.952
		c-20.023,23.98-30.032,62.745-30.032,116.309v17.495h-64.269v89.664h64.269v296.106h0.054c-0.004,0.188-0.027,0.375-0.027,0.569
		c0,26.528,22.512,48.009,50.293,48.009c27.778,0,50.297-21.48,50.297-48.009c0-0.194-0.031-0.382-0.031-0.569h0.082V497.367h88.468
		v-89.664h-88.468c0-30.458,2.243-45.829,6.763-58.518C501.779,336.495,512.207,330.15,528.573,330.15z"/>
	<path fill="#00ABE6" d="M1046.056,448.929c-22.284-33.279-53.431-49.915-93.477-49.915c-37.78,0-66.816,12.417-87.121,37.225
		h-2.536V239.986H762.257v550.579c0.055,0.023,0.121,0.031,0.168,0.047c-0.07,1.047-0.168,2.094-0.168,3.156
		c0,26.677,22.645,48.282,50.594,48.282c26.966,0,48.942-20.151,50.435-45.547c11.643,13.284,25.641,28.771,50.544,37.271
		c44.562,15.19,86.679-10.252,118.27-47.766c31.576-37.499,47.368-96.281,47.368-176.366
		C1079.468,535.771,1068.325,482.208,1046.056,448.929z M958.501,719.187c-11.283,20.589-27.629,30.871-49.051,30.871
		c-19.183,0-46.527-11.532-46.527-52.68V535.201c0.407-32.833,28.47-43.984,56.67-43.984c19.171,0,33.268,10.017,42.3,30.028
		c9.01,20.028,13.534,51.47,13.534,94.321C975.427,664.067,969.785,698.611,958.501,719.187z"/>
	<g>
		<path fill="#00ABE6" d="M621.049,407.335v386.653h0.063c0,0.156-0.027,0.312-0.02,0.484c0.218,26.512,22.914,47.805,50.677,47.578
			c27.657-0.227,49.902-21.715,49.879-48.062h0.062V407.335H621.049z"/>
		<rect x="622.194" y="240.424" fill="#00ABE6" width="98.38" height="98.384"/>
	</g>
	<path opacity="0.3" d="M221.251,839.604c-28.841-1.141-50.583-9.345-65.23-24.598c-14.647-15.26-21.969-40.194-21.969-74.817
		V638.734c0-53.985-17.713-83.584-53.138-88.819v-21.879c35.424-5.001,53.138-32.669,53.138-83.006V337.762
		c0-34.624,7.322-59.558,21.969-74.818c14.647-15.252,36.389-23.457,65.23-24.598v28.7c-19.984,1.141-34.061,7.626-42.234,19.472
		c-8.177,11.846-12.264,32.224-12.264,61.151v100.087c0,50.572-16.468,80.858-49.391,90.875v1.368
		c32.923,10.478,49.391,42.483,49.391,96.001v94.282c0,28.919,4.087,49.305,12.264,61.15c8.173,11.838,22.25,18.332,42.234,19.472
		V839.604z"/>
	<path opacity="0.3" d="M1854.585,549.915c-35.201,5.235-52.798,34.834-52.798,88.819v101.455c0,34.85-7.321,59.839-21.973,74.989
		c-14.644,15.144-36.389,23.285-65.23,24.426v-28.7c18.621-1.14,32.311-7.164,41.046-18.104
		c8.736-10.932,13.112-31.771,13.112-62.519V636c0-53.518,16.581-85.523,49.734-96.001v-1.368
		c-33.153-10.244-49.734-40.53-49.734-90.875V347.669c0-30.747-4.376-51.586-13.112-62.526
		c-8.735-10.924-22.425-16.956-41.046-18.097v-28.7c28.842,1.141,50.587,9.291,65.23,24.426
		c14.651,15.151,21.973,40.148,21.973,74.99V445.03c0,50.337,17.597,78.005,52.798,83.006V549.915z"/>
</g>
</svg>
