<?xml version="1.0" encoding="UTF-8" standalone="no"?>
<!DOCTYPE svg PUBLIC "-//W3C//DTD SVG 1.1//EN"
 "http://www.w3.org/Graphics/SVG/1.1/DTD/svg11.dtd">
<!-- Generated by graphviz version 2.38.0 (20140413.2041)
 -->
<!-- Title: Event Pages: 1 -->
<svg width="74pt" height="345pt"
 viewBox="0.00 0.00 74.29 345.00" xmlns="http://www.w3.org/2000/svg" xmlns:xlink="http://www.w3.org/1999/xlink">
<g id="graph0" class="graph" transform="scale(1 1) rotate(0) translate(4 341)">
<title>Event</title>
<polygon fill="white" stroke="none" points="-4,4 -4,-341 70.2881,-341 70.2881,4 -4,4"/>
<!-- Node1 -->
<g id="node1" class="node"><title>Node1</title>
<polygon fill="#bfbfbf" stroke="black" points="4.71924,-0.5 4.71924,-104.5 61.5688,-104.5 61.5688,-0.5 4.71924,-0.5"/>
<text text-anchor="middle" x="33.144" y="-92.5" font-family="Helvetica,sans-Serif" font-size="10.00">Event</text>
<polyline fill="none" stroke="black" points="4.71924,-86.5 61.5688,-86.5 "/>
<text text-anchor="middle" x="33.144" y="-74.5" font-family="Helvetica,sans-Serif" font-size="10.00"> </text>
<polyline fill="none" stroke="black" points="4.71924,-68.5 61.5688,-68.5 "/>
<text text-anchor="start" x="12.7192" y="-56.5" font-family="Helvetica,sans-Serif" font-size="10.00">+ Event()</text>
<text text-anchor="start" x="12.7192" y="-46.5" font-family="Helvetica,sans-Serif" font-size="10.00">+ isSet()</text>
<text text-anchor="start" x="12.7192" y="-36.5" font-family="Helvetica,sans-Serif" font-size="10.00">+ set()</text>
<text text-anchor="start" x="12.7192" y="-26.5" font-family="Helvetica,sans-Serif" font-size="10.00">+ pulse()</text>
<text text-anchor="start" x="12.7192" y="-16.5" font-family="Helvetica,sans-Serif" font-size="10.00">+ clear()</text>
<text text-anchor="start" x="12.7192" y="-6.5" font-family="Helvetica,sans-Serif" font-size="10.00">+ wait()</text>
</g>
<!-- Node2 -->
<g id="node2" class="node"><title>Node2</title>
<g id="a_node2"><a xlink:href="../../d6/d83/classLock.html" target="_top" xlink:title="纤程锁对象 ">
<polygon fill="white" stroke="black" points="1.10596,-141.5 1.10596,-215.5 65.1821,-215.5 65.1821,-141.5 1.10596,-141.5"/>
<text text-anchor="middle" x="33.144" y="-203.5" font-family="Helvetica,sans-Serif" font-size="10.00">Lock</text>
<polyline fill="none" stroke="black" points="1.10596,-197.5 65.1821,-197.5 "/>
<text text-anchor="middle" x="33.144" y="-185.5" font-family="Helvetica,sans-Serif" font-size="10.00"> </text>
<polyline fill="none" stroke="black" points="1.10596,-179.5 65.1821,-179.5 "/>
<text text-anchor="start" x="9.10596" y="-167.5" font-family="Helvetica,sans-Serif" font-size="10.00">+ Lock()</text>
<text text-anchor="start" x="9.10596" y="-157.5" font-family="Helvetica,sans-Serif" font-size="10.00">+ acquire()</text>
<text text-anchor="start" x="9.10596" y="-147.5" font-family="Helvetica,sans-Serif" font-size="10.00">+ release()</text>
</a>
</g>
</g>
<!-- Node2&#45;&gt;Node1 -->
<g id="edge1" class="edge"><title>Node2&#45;&gt;Node1</title>
<path fill="none" stroke="midnightblue" d="M33.144,-131.073C33.144,-122.475 33.144,-113.45 33.144,-104.719"/>
<polygon fill="none" stroke="midnightblue" points="29.6441,-131.301 33.144,-141.301 36.6441,-131.301 29.6441,-131.301"/>
</g>
<!-- Node3 -->
<g id="node3" class="node"><title>Node3</title>
<g id="a_node3"><a xlink:href="../../dc/dd8/classobject.html" target="_top" xlink:title="基础对象，所有对象均继承于此 ">
<polygon fill="white" stroke="black" points="0,-252.5 0,-336.5 66.2881,-336.5 66.2881,-252.5 0,-252.5"/>
<text text-anchor="middle" x="33.144" y="-324.5" font-family="Helvetica,sans-Serif" font-size="10.00">object</text>
<polyline fill="none" stroke="black" points="0,-318.5 66.2881,-318.5 "/>
<text text-anchor="middle" x="33.144" y="-306.5" font-family="Helvetica,sans-Serif" font-size="10.00"> </text>
<polyline fill="none" stroke="black" points="0,-300.5 66.2881,-300.5 "/>
<text text-anchor="start" x="8" y="-288.5" font-family="Helvetica,sans-Serif" font-size="10.00">+ dispose()</text>
<text text-anchor="start" x="8" y="-278.5" font-family="Helvetica,sans-Serif" font-size="10.00">+ toString()</text>
<text text-anchor="start" x="8" y="-268.5" font-family="Helvetica,sans-Serif" font-size="10.00">+ toJSON()</text>
<text text-anchor="start" x="8" y="-258.5" font-family="Helvetica,sans-Serif" font-size="10.00">+ valueOf()</text>
</a>
</g>
</g>
<!-- Node3&#45;&gt;Node2 -->
<g id="edge2" class="edge"><title>Node3&#45;&gt;Node2</title>
<path fill="none" stroke="midnightblue" d="M33.144,-242.328C33.144,-233.341 33.144,-224.159 33.144,-215.688"/>
<polygon fill="none" stroke="midnightblue" points="29.6441,-242.343 33.144,-252.343 36.6441,-242.343 29.6441,-242.343"/>
</g>
</g>
</svg>
