<?xml version="1.0" encoding="UTF-8" standalone="no"?>
<!DOCTYPE svg PUBLIC "-//W3C//DTD SVG 1.1//EN"
 "http://www.w3.org/Graphics/SVG/1.1/DTD/svg11.dtd">
<!-- Generated by graphviz version 2.38.0 (20140413.2041)
 -->
<!-- Title: Message Pages: 1 -->
<svg width="280pt" height="626pt"
 viewBox="0.00 0.00 279.65 626.00" xmlns="http://www.w3.org/2000/svg" xmlns:xlink="http://www.w3.org/1999/xlink">
<g id="graph0" class="graph" transform="scale(1 1) rotate(0) translate(4 622)">
<title>Message</title>
<polygon fill="white" stroke="none" points="-4,4 -4,-622 275.645,-622 275.645,4 -4,4"/>
<!-- Node1 -->
<g id="node1" class="node"><title>Node1</title>
<polygon fill="#bfbfbf" stroke="black" points="121.121,-342.5 121.121,-496.5 195.744,-496.5 195.744,-342.5 121.121,-342.5"/>
<text text-anchor="middle" x="158.432" y="-484.5" font-family="Helvetica,sans-Serif" font-size="10.00">Message</text>
<polyline fill="none" stroke="black" points="121.121,-478.5 195.744,-478.5 "/>
<text text-anchor="start" x="129.121" y="-466.5" font-family="Helvetica,sans-Serif" font-size="10.00">+ value</text>
<text text-anchor="start" x="129.121" y="-456.5" font-family="Helvetica,sans-Serif" font-size="10.00">+ params</text>
<text text-anchor="start" x="129.121" y="-446.5" font-family="Helvetica,sans-Serif" font-size="10.00">+ result</text>
<text text-anchor="start" x="129.121" y="-436.5" font-family="Helvetica,sans-Serif" font-size="10.00">+ body</text>
<text text-anchor="start" x="129.121" y="-426.5" font-family="Helvetica,sans-Serif" font-size="10.00">+ length</text>
<text text-anchor="start" x="129.121" y="-416.5" font-family="Helvetica,sans-Serif" font-size="10.00">+ stream</text>
<text text-anchor="start" x="129.121" y="-406.5" font-family="Helvetica,sans-Serif" font-size="10.00">+ response</text>
<polyline fill="none" stroke="black" points="121.121,-400.5 195.744,-400.5 "/>
<text text-anchor="start" x="129.121" y="-388.5" font-family="Helvetica,sans-Serif" font-size="10.00">+ Message()</text>
<text text-anchor="start" x="129.121" y="-378.5" font-family="Helvetica,sans-Serif" font-size="10.00">+ write()</text>
<text text-anchor="start" x="129.121" y="-368.5" font-family="Helvetica,sans-Serif" font-size="10.00">+ clear()</text>
<text text-anchor="start" x="129.121" y="-358.5" font-family="Helvetica,sans-Serif" font-size="10.00">+ sendTo()</text>
<text text-anchor="start" x="129.121" y="-348.5" font-family="Helvetica,sans-Serif" font-size="10.00">+ readFrom()</text>
</g>
<!-- Node3 -->
<g id="node3" class="node"><title>Node3</title>
<g id="a_node3"><a xlink:href="../../dd/d77/classHttpMessage.html" target="_top" xlink:title="http 基础消息对象 ">
<polygon fill="white" stroke="black" points="43.436,-141.5 43.436,-305.5 151.428,-305.5 151.428,-141.5 43.436,-141.5"/>
<text text-anchor="middle" x="97.4321" y="-293.5" font-family="Helvetica,sans-Serif" font-size="10.00">HttpMessage</text>
<polyline fill="none" stroke="black" points="43.436,-287.5 151.428,-287.5 "/>
<text text-anchor="start" x="51.436" y="-275.5" font-family="Helvetica,sans-Serif" font-size="10.00">+ protocol</text>
<text text-anchor="start" x="51.436" y="-265.5" font-family="Helvetica,sans-Serif" font-size="10.00">+ headers</text>
<text text-anchor="start" x="51.436" y="-255.5" font-family="Helvetica,sans-Serif" font-size="10.00">+ keepAlive</text>
<text text-anchor="start" x="51.436" y="-245.5" font-family="Helvetica,sans-Serif" font-size="10.00">+ maxHeadersCount</text>
<text text-anchor="start" x="51.436" y="-235.5" font-family="Helvetica,sans-Serif" font-size="10.00">+ maxUploadSize</text>
<polyline fill="none" stroke="black" points="43.436,-229.5 151.428,-229.5 "/>
<text text-anchor="start" x="51.436" y="-217.5" font-family="Helvetica,sans-Serif" font-size="10.00">+ hasHeader()</text>
<text text-anchor="start" x="51.436" y="-207.5" font-family="Helvetica,sans-Serif" font-size="10.00">+ firstHeader()</text>
<text text-anchor="start" x="51.436" y="-197.5" font-family="Helvetica,sans-Serif" font-size="10.00">+ allHeader()</text>
<text text-anchor="start" x="51.436" y="-187.5" font-family="Helvetica,sans-Serif" font-size="10.00">+ addHeader()</text>
<text text-anchor="start" x="51.436" y="-177.5" font-family="Helvetica,sans-Serif" font-size="10.00">+ addHeader()</text>
<text text-anchor="start" x="51.436" y="-167.5" font-family="Helvetica,sans-Serif" font-size="10.00">+ setHeader()</text>
<text text-anchor="start" x="51.436" y="-157.5" font-family="Helvetica,sans-Serif" font-size="10.00">+ setHeader()</text>
<text text-anchor="start" x="51.436" y="-147.5" font-family="Helvetica,sans-Serif" font-size="10.00">+ removeHeader()</text>
</a>
</g>
</g>
<!-- Node1&#45;&gt;Node3 -->
<g id="edge2" class="edge"><title>Node1&#45;&gt;Node3</title>
<path fill="none" stroke="midnightblue" d="M131.441,-332.658C128.604,-323.635 125.725,-314.482 122.906,-305.516"/>
<polygon fill="none" stroke="midnightblue" points="128.16,-333.893 134.498,-342.383 134.838,-331.793 128.16,-333.893"/>
</g>
<!-- Node6 -->
<g id="node6" class="node"><title>Node6</title>
<g id="a_node6"><a xlink:href="../../dd/df3/classPacketMessage.html" target="_top" xlink:title="包处理消息对象 ">
<polygon fill="white" stroke="black" points="169.219,-196.5 169.219,-250.5 271.645,-250.5 271.645,-196.5 169.219,-196.5"/>
<text text-anchor="middle" x="220.432" y="-238.5" font-family="Helvetica,sans-Serif" font-size="10.00">PacketMessage</text>
<polyline fill="none" stroke="black" points="169.219,-232.5 271.645,-232.5 "/>
<text text-anchor="start" x="177.219" y="-220.5" font-family="Helvetica,sans-Serif" font-size="10.00">+ maxSize</text>
<polyline fill="none" stroke="black" points="169.219,-214.5 271.645,-214.5 "/>
<text text-anchor="start" x="177.219" y="-202.5" font-family="Helvetica,sans-Serif" font-size="10.00">+ PacketMessage()</text>
</a>
</g>
</g>
<!-- Node1&#45;&gt;Node6 -->
<g id="edge5" class="edge"><title>Node1&#45;&gt;Node6</title>
<path fill="none" stroke="midnightblue" d="M185.825,-332.787C195.334,-303.032 205.303,-271.841 212.085,-250.618"/>
<polygon fill="none" stroke="midnightblue" points="182.469,-331.792 182.758,-342.383 189.136,-333.923 182.469,-331.792"/>
</g>
<!-- Node2 -->
<g id="node2" class="node"><title>Node2</title>
<g id="a_node2"><a xlink:href="../../dc/dd8/classobject.html" target="_top" xlink:title="基础对象，所有对象均继承于此 ">
<polygon fill="white" stroke="black" points="125.095,-533.5 125.095,-617.5 191.769,-617.5 191.769,-533.5 125.095,-533.5"/>
<text text-anchor="middle" x="158.432" y="-605.5" font-family="Helvetica,sans-Serif" font-size="10.00">object</text>
<polyline fill="none" stroke="black" points="125.095,-599.5 191.769,-599.5 "/>
<text text-anchor="middle" x="158.432" y="-587.5" font-family="Helvetica,sans-Serif" font-size="10.00"> </text>
<polyline fill="none" stroke="black" points="125.095,-581.5 191.769,-581.5 "/>
<text text-anchor="start" x="133.095" y="-569.5" font-family="Helvetica,sans-Serif" font-size="10.00">+ dispose()</text>
<text text-anchor="start" x="133.095" y="-559.5" font-family="Helvetica,sans-Serif" font-size="10.00">+ toString()</text>
<text text-anchor="start" x="133.095" y="-549.5" font-family="Helvetica,sans-Serif" font-size="10.00">+ toJSON()</text>
<text text-anchor="start" x="133.095" y="-539.5" font-family="Helvetica,sans-Serif" font-size="10.00">+ ValueOf()</text>
</a>
</g>
</g>
<!-- Node2&#45;&gt;Node1 -->
<g id="edge1" class="edge"><title>Node2&#45;&gt;Node1</title>
<path fill="none" stroke="midnightblue" d="M158.432,-523.12C158.432,-514.612 158.432,-505.633 158.432,-496.67"/>
<polygon fill="none" stroke="midnightblue" points="154.932,-523.231 158.432,-533.231 161.932,-523.231 154.932,-523.231"/>
</g>
<!-- Node4 -->
<g id="node4" class="node"><title>Node4</title>
<g id="a_node4"><a xlink:href="../../d5/d1b/classHttpRequest.html" target="_top" xlink:title="http 请求消息对象 ">
<polygon fill="white" stroke="black" points="0,-0.5 0,-104.5 86.8643,-104.5 86.8643,-0.5 0,-0.5"/>
<text text-anchor="middle" x="43.4321" y="-92.5" font-family="Helvetica,sans-Serif" font-size="10.00">HttpRequest</text>
<polyline fill="none" stroke="black" points="0,-86.5 86.8643,-86.5 "/>
<text text-anchor="start" x="8" y="-74.5" font-family="Helvetica,sans-Serif" font-size="10.00">+ method</text>
<text text-anchor="start" x="8" y="-64.5" font-family="Helvetica,sans-Serif" font-size="10.00">+ address</text>
<text text-anchor="start" x="8" y="-54.5" font-family="Helvetica,sans-Serif" font-size="10.00">+ queryString</text>
<text text-anchor="start" x="8" y="-44.5" font-family="Helvetica,sans-Serif" font-size="10.00">+ cookie</text>
<text text-anchor="start" x="8" y="-34.5" font-family="Helvetica,sans-Serif" font-size="10.00">+ form</text>
<text text-anchor="start" x="8" y="-24.5" font-family="Helvetica,sans-Serif" font-size="10.00">+ query</text>
<polyline fill="none" stroke="black" points="0,-18.5 86.8643,-18.5 "/>
<text text-anchor="start" x="8" y="-6.5" font-family="Helvetica,sans-Serif" font-size="10.00">+ HttpRequest()</text>
</a>
</g>
</g>
<!-- Node3&#45;&gt;Node4 -->
<g id="edge3" class="edge"><title>Node3&#45;&gt;Node4</title>
<path fill="none" stroke="midnightblue" d="M68.4404,-131.767C65.4722,-122.477 62.5362,-113.289 59.777,-104.653"/>
<polygon fill="none" stroke="midnightblue" points="65.1616,-133.005 71.5393,-141.465 71.8295,-130.874 65.1616,-133.005"/>
</g>
<!-- Node5 -->
<g id="node5" class="node"><title>Node5</title>
<g id="a_node5"><a xlink:href="../../d8/d4c/classHttpResponse.html" target="_top" xlink:title="http 响应消息对象 ">
<polygon fill="white" stroke="black" points="105.108,-20.5 105.108,-84.5 199.756,-84.5 199.756,-20.5 105.108,-20.5"/>
<text text-anchor="middle" x="152.432" y="-72.5" font-family="Helvetica,sans-Serif" font-size="10.00">HttpResponse</text>
<polyline fill="none" stroke="black" points="105.108,-66.5 199.756,-66.5 "/>
<text text-anchor="start" x="113.108" y="-54.5" font-family="Helvetica,sans-Serif" font-size="10.00">+ status</text>
<polyline fill="none" stroke="black" points="105.108,-48.5 199.756,-48.5 "/>
<text text-anchor="start" x="113.108" y="-36.5" font-family="Helvetica,sans-Serif" font-size="10.00">+ HttpResponse()</text>
<text text-anchor="start" x="113.108" y="-26.5" font-family="Helvetica,sans-Serif" font-size="10.00">+ redirect()</text>
</a>
</g>
</g>
<!-- Node3&#45;&gt;Node5 -->
<g id="edge4" class="edge"><title>Node3&#45;&gt;Node5</title>
<path fill="none" stroke="midnightblue" d="M127.034,-131.541C132.509,-114.718 137.872,-98.239 142.249,-84.7912"/>
<polygon fill="none" stroke="midnightblue" points="123.571,-130.873 123.804,-141.465 130.227,-133.039 123.571,-130.873"/>
</g>
</g>
</svg>
