<?xml version="1.0" encoding="UTF-8" standalone="no"?>
<!DOCTYPE svg PUBLIC "-//W3C//DTD SVG 1.1//EN"
 "http://www.w3.org/Graphics/SVG/1.1/DTD/svg11.dtd">
<!-- Generated by graphviz version 2.38.0 (20140413.2041)
 -->
<!-- Title: Message Pages: 1 -->
<svg width="280pt" height="616pt"
 viewBox="0.00 0.00 279.65 616.00" xmlns="http://www.w3.org/2000/svg" xmlns:xlink="http://www.w3.org/1999/xlink">
<g id="graph0" class="graph" transform="scale(1 1) rotate(0) translate(4 612)">
<title>Message</title>
<polygon fill="white" stroke="none" points="-4,4 -4,-612 275.645,-612 275.645,4 -4,4"/>
<!-- Node1 -->
<g id="node1" class="node"><title>Node1</title>
<polygon fill="#bfbfbf" stroke="black" points="121.121,-352.5 121.121,-486.5 195.744,-486.5 195.744,-352.5 121.121,-352.5"/>
<text text-anchor="middle" x="158.432" y="-474.5" font-family="Helvetica,sans-Serif" font-size="10.00">Message</text>
<polyline fill="none" stroke="black" points="121.121,-468.5 195.744,-468.5 "/>
<text text-anchor="start" x="129.121" y="-456.5" font-family="Helvetica,sans-Serif" font-size="10.00">+ value</text>
<text text-anchor="start" x="129.121" y="-446.5" font-family="Helvetica,sans-Serif" font-size="10.00">+ params</text>
<text text-anchor="start" x="129.121" y="-436.5" font-family="Helvetica,sans-Serif" font-size="10.00">+ result</text>
<text text-anchor="start" x="129.121" y="-426.5" font-family="Helvetica,sans-Serif" font-size="10.00">+ body</text>
<text text-anchor="start" x="129.121" y="-416.5" font-family="Helvetica,sans-Serif" font-size="10.00">+ length</text>
<text text-anchor="start" x="129.121" y="-406.5" font-family="Helvetica,sans-Serif" font-size="10.00">+ stream</text>
<polyline fill="none" stroke="black" points="121.121,-400.5 195.744,-400.5 "/>
<text text-anchor="start" x="129.121" y="-388.5" font-family="Helvetica,sans-Serif" font-size="10.00">+ Message()</text>
<text text-anchor="start" x="129.121" y="-378.5" font-family="Helvetica,sans-Serif" font-size="10.00">+ clear()</text>
<text text-anchor="start" x="129.121" y="-368.5" font-family="Helvetica,sans-Serif" font-size="10.00">+ sendTo()</text>
<text text-anchor="start" x="129.121" y="-358.5" font-family="Helvetica,sans-Serif" font-size="10.00">+ readFrom()</text>
</g>
<!-- Node3 -->
<g id="node3" class="node"><title>Node3</title>
<g id="a_node3"><a xlink:href="../../dd/d77/classHttpMessage.html" target="_top" xlink:title="http 基础消息对象 ">
<polygon fill="white" stroke="black" points="43.436,-151.5 43.436,-315.5 151.428,-315.5 151.428,-151.5 43.436,-151.5"/>
<text text-anchor="middle" x="97.4321" y="-303.5" font-family="Helvetica,sans-Serif" font-size="10.00">HttpMessage</text>
<polyline fill="none" stroke="black" points="43.436,-297.5 151.428,-297.5 "/>
<text text-anchor="start" x="51.436" y="-285.5" font-family="Helvetica,sans-Serif" font-size="10.00">+ protocol</text>
<text text-anchor="start" x="51.436" y="-275.5" font-family="Helvetica,sans-Serif" font-size="10.00">+ headers</text>
<text text-anchor="start" x="51.436" y="-265.5" font-family="Helvetica,sans-Serif" font-size="10.00">+ keepAlive</text>
<text text-anchor="start" x="51.436" y="-255.5" font-family="Helvetica,sans-Serif" font-size="10.00">+ maxHeadersCount</text>
<text text-anchor="start" x="51.436" y="-245.5" font-family="Helvetica,sans-Serif" font-size="10.00">+ maxUploadSize</text>
<polyline fill="none" stroke="black" points="43.436,-239.5 151.428,-239.5 "/>
<text text-anchor="start" x="51.436" y="-227.5" font-family="Helvetica,sans-Serif" font-size="10.00">+ hasHeader()</text>
<text text-anchor="start" x="51.436" y="-217.5" font-family="Helvetica,sans-Serif" font-size="10.00">+ firstHeader()</text>
<text text-anchor="start" x="51.436" y="-207.5" font-family="Helvetica,sans-Serif" font-size="10.00">+ allHeader()</text>
<text text-anchor="start" x="51.436" y="-197.5" font-family="Helvetica,sans-Serif" font-size="10.00">+ addHeader()</text>
<text text-anchor="start" x="51.436" y="-187.5" font-family="Helvetica,sans-Serif" font-size="10.00">+ addHeader()</text>
<text text-anchor="start" x="51.436" y="-177.5" font-family="Helvetica,sans-Serif" font-size="10.00">+ setHeader()</text>
<text text-anchor="start" x="51.436" y="-167.5" font-family="Helvetica,sans-Serif" font-size="10.00">+ setHeader()</text>
<text text-anchor="start" x="51.436" y="-157.5" font-family="Helvetica,sans-Serif" font-size="10.00">+ removeHeader()</text>
</a>
</g>
</g>
<!-- Node1&#45;&gt;Node3 -->
<g id="edge2" class="edge"><title>Node1&#45;&gt;Node3</title>
<path fill="none" stroke="midnightblue" d="M133.328,-342.775C130.378,-333.876 127.358,-324.768 124.384,-315.798"/>
<polygon fill="none" stroke="midnightblue" points="130.027,-343.941 136.496,-352.332 136.671,-341.738 130.027,-343.941"/>
</g>
<!-- Node6 -->
<g id="node6" class="node"><title>Node6</title>
<g id="a_node6"><a xlink:href="../../dd/df3/classPacketMessage.html" target="_top" xlink:title="包处理消息对象 ">
<polygon fill="white" stroke="black" points="169.219,-206.5 169.219,-260.5 271.645,-260.5 271.645,-206.5 169.219,-206.5"/>
<text text-anchor="middle" x="220.432" y="-248.5" font-family="Helvetica,sans-Serif" font-size="10.00">PacketMessage</text>
<polyline fill="none" stroke="black" points="169.219,-242.5 271.645,-242.5 "/>
<text text-anchor="start" x="177.219" y="-230.5" font-family="Helvetica,sans-Serif" font-size="10.00">+ maxSize</text>
<polyline fill="none" stroke="black" points="169.219,-224.5 271.645,-224.5 "/>
<text text-anchor="start" x="177.219" y="-212.5" font-family="Helvetica,sans-Serif" font-size="10.00">+ PacketMessage()</text>
</a>
</g>
</g>
<!-- Node1&#45;&gt;Node6 -->
<g id="edge5" class="edge"><title>Node1&#45;&gt;Node6</title>
<path fill="none" stroke="midnightblue" d="M184.026,-342.543C193.855,-313.374 204.431,-281.986 211.638,-260.599"/>
<polygon fill="none" stroke="midnightblue" points="180.604,-341.738 180.728,-352.332 187.238,-343.973 180.604,-341.738"/>
</g>
<!-- Node2 -->
<g id="node2" class="node"><title>Node2</title>
<g id="a_node2"><a xlink:href="../../dc/dd8/classobject.html" target="_top" xlink:title="基础对象，所有对象均继承于此 ">
<polygon fill="white" stroke="black" points="125.095,-523.5 125.095,-607.5 191.769,-607.5 191.769,-523.5 125.095,-523.5"/>
<text text-anchor="middle" x="158.432" y="-595.5" font-family="Helvetica,sans-Serif" font-size="10.00">object</text>
<polyline fill="none" stroke="black" points="125.095,-589.5 191.769,-589.5 "/>
<text text-anchor="middle" x="158.432" y="-577.5" font-family="Helvetica,sans-Serif" font-size="10.00"> </text>
<polyline fill="none" stroke="black" points="125.095,-571.5 191.769,-571.5 "/>
<text text-anchor="start" x="133.095" y="-559.5" font-family="Helvetica,sans-Serif" font-size="10.00">+ dispose()</text>
<text text-anchor="start" x="133.095" y="-549.5" font-family="Helvetica,sans-Serif" font-size="10.00">+ toString()</text>
<text text-anchor="start" x="133.095" y="-539.5" font-family="Helvetica,sans-Serif" font-size="10.00">+ toJSON()</text>
<text text-anchor="start" x="133.095" y="-529.5" font-family="Helvetica,sans-Serif" font-size="10.00">+ ValueOf()</text>
</a>
</g>
</g>
<!-- Node2&#45;&gt;Node1 -->
<g id="edge1" class="edge"><title>Node2&#45;&gt;Node1</title>
<path fill="none" stroke="midnightblue" d="M158.432,-513.005C158.432,-504.416 158.432,-495.401 158.432,-486.509"/>
<polygon fill="none" stroke="midnightblue" points="154.932,-513.235 158.432,-523.235 161.932,-513.235 154.932,-513.235"/>
</g>
<!-- Node4 -->
<g id="node4" class="node"><title>Node4</title>
<g id="a_node4"><a xlink:href="../../d5/d1b/classHttpRequest.html" target="_top" xlink:title="http 请求消息对象 ">
<polygon fill="white" stroke="black" points="0,-0.5 0,-114.5 86.8643,-114.5 86.8643,-0.5 0,-0.5"/>
<text text-anchor="middle" x="43.4321" y="-102.5" font-family="Helvetica,sans-Serif" font-size="10.00">HttpRequest</text>
<polyline fill="none" stroke="black" points="0,-96.5 86.8643,-96.5 "/>
<text text-anchor="start" x="8" y="-84.5" font-family="Helvetica,sans-Serif" font-size="10.00">+ method</text>
<text text-anchor="start" x="8" y="-74.5" font-family="Helvetica,sans-Serif" font-size="10.00">+ address</text>
<text text-anchor="start" x="8" y="-64.5" font-family="Helvetica,sans-Serif" font-size="10.00">+ queryString</text>
<text text-anchor="start" x="8" y="-54.5" font-family="Helvetica,sans-Serif" font-size="10.00">+ response</text>
<text text-anchor="start" x="8" y="-44.5" font-family="Helvetica,sans-Serif" font-size="10.00">+ cookie</text>
<text text-anchor="start" x="8" y="-34.5" font-family="Helvetica,sans-Serif" font-size="10.00">+ form</text>
<text text-anchor="start" x="8" y="-24.5" font-family="Helvetica,sans-Serif" font-size="10.00">+ query</text>
<polyline fill="none" stroke="black" points="0,-18.5 86.8643,-18.5 "/>
<text text-anchor="start" x="8" y="-6.5" font-family="Helvetica,sans-Serif" font-size="10.00">+ HttpRequest()</text>
</a>
</g>
</g>
<!-- Node3&#45;&gt;Node4 -->
<g id="edge3" class="edge"><title>Node3&#45;&gt;Node4</title>
<path fill="none" stroke="midnightblue" d="M69.2685,-141.75C66.408,-132.533 63.5651,-123.373 60.8683,-114.683"/>
<polygon fill="none" stroke="midnightblue" points="65.9435,-142.845 72.2502,-151.358 72.6289,-140.77 65.9435,-142.845"/>
</g>
<!-- Node5 -->
<g id="node5" class="node"><title>Node5</title>
<g id="a_node5"><a xlink:href="../../d8/d4c/classHttpResponse.html" target="_top" xlink:title="http 响应消息对象 ">
<polygon fill="white" stroke="black" points="105.108,-25.5 105.108,-89.5 199.756,-89.5 199.756,-25.5 105.108,-25.5"/>
<text text-anchor="middle" x="152.432" y="-77.5" font-family="Helvetica,sans-Serif" font-size="10.00">HttpResponse</text>
<polyline fill="none" stroke="black" points="105.108,-71.5 199.756,-71.5 "/>
<text text-anchor="start" x="113.108" y="-59.5" font-family="Helvetica,sans-Serif" font-size="10.00">+ status</text>
<polyline fill="none" stroke="black" points="105.108,-53.5 199.756,-53.5 "/>
<text text-anchor="start" x="113.108" y="-41.5" font-family="Helvetica,sans-Serif" font-size="10.00">+ HttpResponse()</text>
<text text-anchor="start" x="113.108" y="-31.5" font-family="Helvetica,sans-Serif" font-size="10.00">+ redirect()</text>
</a>
</g>
</g>
<!-- Node3&#45;&gt;Node5 -->
<g id="edge4" class="edge"><title>Node3&#45;&gt;Node5</title>
<path fill="none" stroke="midnightblue" d="M126.096,-141.817C132.045,-122.997 137.921,-104.408 142.608,-89.5795"/>
<polygon fill="none" stroke="midnightblue" points="122.757,-140.768 123.08,-151.358 129.432,-142.878 122.757,-140.768"/>
</g>
</g>
</svg>
