<?xml version="1.0" encoding="UTF-8" standalone="no"?>
<!DOCTYPE svg PUBLIC "-//W3C//DTD SVG 1.1//EN"
 "http://www.w3.org/Graphics/SVG/1.1/DTD/svg11.dtd">
<!-- Generated by graphviz version 2.38.0 (20140413.2041)
 -->
<!-- Title: uuidValue Pages: 1 -->
<svg width="74pt" height="194pt"
 viewBox="0.00 0.00 74.29 194.00" xmlns="http://www.w3.org/2000/svg" xmlns:xlink="http://www.w3.org/1999/xlink">
<g id="graph0" class="graph" transform="scale(1 1) rotate(0) translate(4 190)">
<title>uuidValue</title>
<polygon fill="white" stroke="none" points="-4,4 -4,-190 70.2881,-190 70.2881,4 -4,4"/>
<!-- Node1 -->
<g id="node1" class="node"><title>Node1</title>
<polygon fill="#bfbfbf" stroke="black" points="3.27148,-0.5 3.27148,-64.5 63.0166,-64.5 63.0166,-0.5 3.27148,-0.5"/>
<text text-anchor="middle" x="33.144" y="-52.5" font-family="Helvetica,sans-Serif" font-size="10.00">uuidValue</text>
<polyline fill="none" stroke="black" points="3.27148,-46.5 63.0166,-46.5 "/>
<text text-anchor="middle" x="33.144" y="-34.5" font-family="Helvetica,sans-Serif" font-size="10.00"> </text>
<polyline fill="none" stroke="black" points="3.27148,-28.5 63.0166,-28.5 "/>
<text text-anchor="start" x="11.2715" y="-16.5" font-family="Helvetica,sans-Serif" font-size="10.00">+ data()</text>
<text text-anchor="start" x="11.2715" y="-6.5" font-family="Helvetica,sans-Serif" font-size="10.00">+ detail()</text>
</g>
<!-- Node2 -->
<g id="node2" class="node"><title>Node2</title>
<g id="a_node2"><a xlink:href="../../dc/dd8/classobject.html" target="_top" xlink:title="基础对象，所有对象均继承于此 ">
<polygon fill="white" stroke="black" points="0,-101.5 0,-185.5 66.2881,-185.5 66.2881,-101.5 0,-101.5"/>
<text text-anchor="middle" x="33.144" y="-173.5" font-family="Helvetica,sans-Serif" font-size="10.00">object</text>
<polyline fill="none" stroke="black" points="0,-167.5 66.2881,-167.5 "/>
<text text-anchor="middle" x="33.144" y="-155.5" font-family="Helvetica,sans-Serif" font-size="10.00"> </text>
<polyline fill="none" stroke="black" points="0,-149.5 66.2881,-149.5 "/>
<text text-anchor="start" x="8" y="-137.5" font-family="Helvetica,sans-Serif" font-size="10.00">+ dispose()</text>
<text text-anchor="start" x="8" y="-127.5" font-family="Helvetica,sans-Serif" font-size="10.00">+ toString()</text>
<text text-anchor="start" x="8" y="-117.5" font-family="Helvetica,sans-Serif" font-size="10.00">+ toJSON()</text>
<text text-anchor="start" x="8" y="-107.5" font-family="Helvetica,sans-Serif" font-size="10.00">+ valueOf()</text>
</a>
</g>
</g>
<!-- Node2&#45;&gt;Node1 -->
<g id="edge1" class="edge"><title>Node2&#45;&gt;Node1</title>
<path fill="none" stroke="midnightblue" d="M33.144,-91.1445C33.144,-82.0652 33.144,-72.8691 33.144,-64.5687"/>
<polygon fill="none" stroke="midnightblue" points="29.6441,-91.2917 33.144,-101.292 36.6441,-91.2918 29.6441,-91.2917"/>
</g>
</g>
</svg>
