<?xml version="1.0" encoding="UTF-8" standalone="no"?>
<!DOCTYPE svg PUBLIC "-//W3C//DTD SVG 1.1//EN"
 "http://www.w3.org/Graphics/SVG/1.1/DTD/svg11.dtd">
<!-- Generated by graphviz version 2.38.0 (20140413.2041)
 -->
<!-- Title: X509Req Pages: 1 -->
<svg width="88pt" height="264pt"
 viewBox="0.00 0.00 87.63 264.00" xmlns="http://www.w3.org/2000/svg" xmlns:xlink="http://www.w3.org/1999/xlink">
<g id="graph0" class="graph" transform="scale(1 1) rotate(0) translate(4 260)">
<title>X509Req</title>
<polygon fill="white" stroke="none" points="-4,4 -4,-260 83.6328,-260 83.6328,4 -4,4"/>
<!-- Node1 -->
<g id="node1" class="node"><title>Node1</title>
<polygon fill="#bfbfbf" stroke="black" points="0,-0.5 0,-134.5 79.6328,-134.5 79.6328,-0.5 0,-0.5"/>
<text text-anchor="middle" x="39.8164" y="-122.5" font-family="Helvetica,sans-Serif" font-size="10.00">X509Req</text>
<polyline fill="none" stroke="black" points="0,-116.5 79.6328,-116.5 "/>
<text text-anchor="start" x="8" y="-104.5" font-family="Helvetica,sans-Serif" font-size="10.00">+ subject</text>
<text text-anchor="start" x="8" y="-94.5" font-family="Helvetica,sans-Serif" font-size="10.00">+ publicKey</text>
<polyline fill="none" stroke="black" points="0,-88.5 79.6328,-88.5 "/>
<text text-anchor="start" x="8" y="-76.5" font-family="Helvetica,sans-Serif" font-size="10.00">+ X509Req()</text>
<text text-anchor="start" x="8" y="-66.5" font-family="Helvetica,sans-Serif" font-size="10.00">+ X509Req()</text>
<text text-anchor="start" x="8" y="-56.5" font-family="Helvetica,sans-Serif" font-size="10.00">+ load()</text>
<text text-anchor="start" x="8" y="-46.5" font-family="Helvetica,sans-Serif" font-size="10.00">+ load()</text>
<text text-anchor="start" x="8" y="-36.5" font-family="Helvetica,sans-Serif" font-size="10.00">+ loadFile()</text>
<text text-anchor="start" x="8" y="-26.5" font-family="Helvetica,sans-Serif" font-size="10.00">+ exportPem()</text>
<text text-anchor="start" x="8" y="-16.5" font-family="Helvetica,sans-Serif" font-size="10.00">+ exportDer()</text>
<text text-anchor="start" x="8" y="-6.5" font-family="Helvetica,sans-Serif" font-size="10.00">+ sign()</text>
</g>
<!-- Node2 -->
<g id="node2" class="node"><title>Node2</title>
<g id="a_node2"><a xlink:href="../../dc/dd8/classobject.html" target="_top" xlink:title="基础对象，所有对象均继承于此 ">
<polygon fill="white" stroke="black" points="6.67236,-171.5 6.67236,-255.5 72.9604,-255.5 72.9604,-171.5 6.67236,-171.5"/>
<text text-anchor="middle" x="39.8164" y="-243.5" font-family="Helvetica,sans-Serif" font-size="10.00">object</text>
<polyline fill="none" stroke="black" points="6.67236,-237.5 72.9604,-237.5 "/>
<text text-anchor="middle" x="39.8164" y="-225.5" font-family="Helvetica,sans-Serif" font-size="10.00"> </text>
<polyline fill="none" stroke="black" points="6.67236,-219.5 72.9604,-219.5 "/>
<text text-anchor="start" x="14.6724" y="-207.5" font-family="Helvetica,sans-Serif" font-size="10.00">+ dispose()</text>
<text text-anchor="start" x="14.6724" y="-197.5" font-family="Helvetica,sans-Serif" font-size="10.00">+ toString()</text>
<text text-anchor="start" x="14.6724" y="-187.5" font-family="Helvetica,sans-Serif" font-size="10.00">+ toJSON()</text>
<text text-anchor="start" x="14.6724" y="-177.5" font-family="Helvetica,sans-Serif" font-size="10.00">+ valueOf()</text>
</a>
</g>
</g>
<!-- Node2&#45;&gt;Node1 -->
<g id="edge1" class="edge"><title>Node2&#45;&gt;Node1</title>
<path fill="none" stroke="midnightblue" d="M39.8164,-161.005C39.8164,-152.416 39.8164,-143.401 39.8164,-134.509"/>
<polygon fill="none" stroke="midnightblue" points="36.3165,-161.235 39.8164,-171.235 43.3165,-161.235 36.3165,-161.235"/>
</g>
</g>
</svg>
