<?xml version="1.0" encoding="UTF-8" standalone="no"?>
<!DOCTYPE svg PUBLIC "-//W3C//DTD SVG 1.1//EN"
 "http://www.w3.org/Graphics/SVG/1.1/DTD/svg11.dtd">
<!-- Generated by graphviz version 2.38.0 (20140413.2041)
 -->
<!-- Title: PacketMessage Pages: 1 -->
<svg width="110pt" height="365pt"
 viewBox="0.00 0.00 110.43 365.00" xmlns="http://www.w3.org/2000/svg" xmlns:xlink="http://www.w3.org/1999/xlink">
<g id="graph0" class="graph" transform="scale(1 1) rotate(0) translate(4 361)">
<title>PacketMessage</title>
<polygon fill="white" stroke="none" points="-4,4 -4,-361 106.426,-361 106.426,4 -4,4"/>
<!-- Node1 -->
<g id="node1" class="node"><title>Node1</title>
<polygon fill="#bfbfbf" stroke="black" points="0,-0.5 0,-54.5 102.426,-54.5 102.426,-0.5 0,-0.5"/>
<text text-anchor="middle" x="51.2129" y="-42.5" font-family="Helvetica,sans-Serif" font-size="10.00">PacketMessage</text>
<polyline fill="none" stroke="black" points="0,-36.5 102.426,-36.5 "/>
<text text-anchor="start" x="8" y="-24.5" font-family="Helvetica,sans-Serif" font-size="10.00">+ maxSize</text>
<polyline fill="none" stroke="black" points="0,-18.5 102.426,-18.5 "/>
<text text-anchor="start" x="8" y="-6.5" font-family="Helvetica,sans-Serif" font-size="10.00">+ PacketMessage()</text>
</g>
<!-- Node2 -->
<g id="node2" class="node"><title>Node2</title>
<g id="a_node2"><a xlink:href="../../d6/d28/classMessage.html" target="_top" xlink:title="基础消息对象 ">
<polygon fill="white" stroke="black" points="13.9014,-91.5 13.9014,-235.5 88.5244,-235.5 88.5244,-91.5 13.9014,-91.5"/>
<text text-anchor="middle" x="51.2129" y="-223.5" font-family="Helvetica,sans-Serif" font-size="10.00">Message</text>
<polyline fill="none" stroke="black" points="13.9014,-217.5 88.5244,-217.5 "/>
<text text-anchor="start" x="21.9014" y="-205.5" font-family="Helvetica,sans-Serif" font-size="10.00">+ value</text>
<text text-anchor="start" x="21.9014" y="-195.5" font-family="Helvetica,sans-Serif" font-size="10.00">+ params</text>
<text text-anchor="start" x="21.9014" y="-185.5" font-family="Helvetica,sans-Serif" font-size="10.00">+ result</text>
<text text-anchor="start" x="21.9014" y="-175.5" font-family="Helvetica,sans-Serif" font-size="10.00">+ body</text>
<text text-anchor="start" x="21.9014" y="-165.5" font-family="Helvetica,sans-Serif" font-size="10.00">+ length</text>
<text text-anchor="start" x="21.9014" y="-155.5" font-family="Helvetica,sans-Serif" font-size="10.00">+ stream</text>
<text text-anchor="start" x="21.9014" y="-145.5" font-family="Helvetica,sans-Serif" font-size="10.00">+ response</text>
<polyline fill="none" stroke="black" points="13.9014,-139.5 88.5244,-139.5 "/>
<text text-anchor="start" x="21.9014" y="-127.5" font-family="Helvetica,sans-Serif" font-size="10.00">+ Message()</text>
<text text-anchor="start" x="21.9014" y="-117.5" font-family="Helvetica,sans-Serif" font-size="10.00">+ clear()</text>
<text text-anchor="start" x="21.9014" y="-107.5" font-family="Helvetica,sans-Serif" font-size="10.00">+ sendTo()</text>
<text text-anchor="start" x="21.9014" y="-97.5" font-family="Helvetica,sans-Serif" font-size="10.00">+ readFrom()</text>
</a>
</g>
</g>
<!-- Node2&#45;&gt;Node1 -->
<g id="edge1" class="edge"><title>Node2&#45;&gt;Node1</title>
<path fill="none" stroke="midnightblue" d="M51.2129,-80.9074C51.2129,-71.5471 51.2129,-62.5861 51.2129,-54.8042"/>
<polygon fill="none" stroke="midnightblue" points="47.713,-81.1843 51.2129,-91.1843 54.713,-81.1843 47.713,-81.1843"/>
</g>
<!-- Node3 -->
<g id="node3" class="node"><title>Node3</title>
<g id="a_node3"><a xlink:href="../../dc/dd8/classobject.html" target="_top" xlink:title="基础对象，所有对象均继承于此 ">
<polygon fill="white" stroke="black" points="17.876,-272.5 17.876,-356.5 84.5498,-356.5 84.5498,-272.5 17.876,-272.5"/>
<text text-anchor="middle" x="51.2129" y="-344.5" font-family="Helvetica,sans-Serif" font-size="10.00">object</text>
<polyline fill="none" stroke="black" points="17.876,-338.5 84.5498,-338.5 "/>
<text text-anchor="middle" x="51.2129" y="-326.5" font-family="Helvetica,sans-Serif" font-size="10.00"> </text>
<polyline fill="none" stroke="black" points="17.876,-320.5 84.5498,-320.5 "/>
<text text-anchor="start" x="25.876" y="-308.5" font-family="Helvetica,sans-Serif" font-size="10.00">+ dispose()</text>
<text text-anchor="start" x="25.876" y="-298.5" font-family="Helvetica,sans-Serif" font-size="10.00">+ toString()</text>
<text text-anchor="start" x="25.876" y="-288.5" font-family="Helvetica,sans-Serif" font-size="10.00">+ toJSON()</text>
<text text-anchor="start" x="25.876" y="-278.5" font-family="Helvetica,sans-Serif" font-size="10.00">+ ValueOf()</text>
</a>
</g>
</g>
<!-- Node3&#45;&gt;Node2 -->
<g id="edge2" class="edge"><title>Node3&#45;&gt;Node2</title>
<path fill="none" stroke="midnightblue" d="M51.2129,-262.237C51.2129,-253.701 51.2129,-244.712 51.2129,-235.785"/>
<polygon fill="none" stroke="midnightblue" points="47.713,-262.391 51.2129,-272.391 54.713,-262.391 47.713,-262.391"/>
</g>
</g>
</svg>
