<?xml version="1.0" encoding="UTF-8" standalone="no"?>
<!DOCTYPE svg PUBLIC "-//W3C//DTD SVG 1.1//EN"
 "http://www.w3.org/Graphics/SVG/1.1/DTD/svg11.dtd">
<!-- Generated by graphviz version 2.38.0 (20140413.2041)
 -->
<!-- Title: SeekableStream Pages: 1 -->
<svg width="194pt" height="476pt"
 viewBox="0.00 0.00 193.52 476.00" xmlns="http://www.w3.org/2000/svg" xmlns:xlink="http://www.w3.org/1999/xlink">
<g id="graph0" class="graph" transform="scale(1 1) rotate(0) translate(4 472)">
<title>SeekableStream</title>
<polygon fill="white" stroke="none" points="-4,4 -4,-472 189.517,-472 189.517,4 -4,4"/>
<!-- Node1 -->
<g id="node1" class="node"><title>Node1</title>
<polygon fill="#bfbfbf" stroke="black" points="39.7402,-121.5 39.7402,-225.5 129.671,-225.5 129.671,-121.5 39.7402,-121.5"/>
<text text-anchor="middle" x="84.7056" y="-213.5" font-family="Helvetica,sans-Serif" font-size="10.00">SeekableStream</text>
<polyline fill="none" stroke="black" points="39.7402,-207.5 129.671,-207.5 "/>
<text text-anchor="middle" x="84.7056" y="-195.5" font-family="Helvetica,sans-Serif" font-size="10.00"> </text>
<polyline fill="none" stroke="black" points="39.7402,-189.5 129.671,-189.5 "/>
<text text-anchor="start" x="47.7402" y="-177.5" font-family="Helvetica,sans-Serif" font-size="10.00">+ seek()</text>
<text text-anchor="start" x="47.7402" y="-167.5" font-family="Helvetica,sans-Serif" font-size="10.00">+ tell()</text>
<text text-anchor="start" x="47.7402" y="-157.5" font-family="Helvetica,sans-Serif" font-size="10.00">+ rewind()</text>
<text text-anchor="start" x="47.7402" y="-147.5" font-family="Helvetica,sans-Serif" font-size="10.00">+ size()</text>
<text text-anchor="start" x="47.7402" y="-137.5" font-family="Helvetica,sans-Serif" font-size="10.00">+ readAll()</text>
<text text-anchor="start" x="47.7402" y="-127.5" font-family="Helvetica,sans-Serif" font-size="10.00">+ stat()</text>
</g>
<!-- Node4 -->
<g id="node4" class="node"><title>Node4</title>
<g id="a_node4"><a xlink:href="../../db/d30/classFile.html" target="_top" xlink:title="文件操作对象，用于二进制文件读写 ">
<polygon fill="white" stroke="black" points="0,-0.5 0,-84.5 67.4111,-84.5 67.4111,-0.5 0,-0.5"/>
<text text-anchor="middle" x="33.7056" y="-72.5" font-family="Helvetica,sans-Serif" font-size="10.00">File</text>
<polyline fill="none" stroke="black" points="0,-66.5 67.4111,-66.5 "/>
<text text-anchor="start" x="8" y="-54.5" font-family="Helvetica,sans-Serif" font-size="10.00">+ name</text>
<polyline fill="none" stroke="black" points="0,-48.5 67.4111,-48.5 "/>
<text text-anchor="start" x="8" y="-36.5" font-family="Helvetica,sans-Serif" font-size="10.00">+ truncate()</text>
<text text-anchor="start" x="8" y="-26.5" font-family="Helvetica,sans-Serif" font-size="10.00">+ eof()</text>
<text text-anchor="start" x="8" y="-16.5" font-family="Helvetica,sans-Serif" font-size="10.00">+ flush()</text>
<text text-anchor="start" x="8" y="-6.5" font-family="Helvetica,sans-Serif" font-size="10.00">+ chmod()</text>
</a>
</g>
</g>
<!-- Node1&#45;&gt;Node4 -->
<g id="edge3" class="edge"><title>Node1&#45;&gt;Node4</title>
<path fill="none" stroke="midnightblue" d="M60.6686,-111.701C57.0604,-102.574 53.4129,-93.348 50.0165,-84.7571"/>
<polygon fill="none" stroke="midnightblue" points="57.471,-113.132 64.4025,-121.145 63.9807,-110.559 57.471,-113.132"/>
</g>
<!-- Node5 -->
<g id="node5" class="node"><title>Node5</title>
<g id="a_node5"><a xlink:href="../../dd/d97/classMemoryStream.html" target="_top" xlink:title="内存流对象 ">
<polygon fill="white" stroke="black" points="85.894,-0.5 85.894,-84.5 185.517,-84.5 185.517,-0.5 85.894,-0.5"/>
<text text-anchor="middle" x="135.706" y="-72.5" font-family="Helvetica,sans-Serif" font-size="10.00">MemoryStream</text>
<polyline fill="none" stroke="black" points="85.894,-66.5 185.517,-66.5 "/>
<text text-anchor="middle" x="135.706" y="-54.5" font-family="Helvetica,sans-Serif" font-size="10.00"> </text>
<polyline fill="none" stroke="black" points="85.894,-48.5 185.517,-48.5 "/>
<text text-anchor="start" x="93.894" y="-36.5" font-family="Helvetica,sans-Serif" font-size="10.00">+ MemoryStream()</text>
<text text-anchor="start" x="93.894" y="-26.5" font-family="Helvetica,sans-Serif" font-size="10.00">+ setTime()</text>
<text text-anchor="start" x="93.894" y="-16.5" font-family="Helvetica,sans-Serif" font-size="10.00">+ clone()</text>
<text text-anchor="start" x="93.894" y="-6.5" font-family="Helvetica,sans-Serif" font-size="10.00">+ clear()</text>
</a>
</g>
</g>
<!-- Node1&#45;&gt;Node5 -->
<g id="edge4" class="edge"><title>Node1&#45;&gt;Node5</title>
<path fill="none" stroke="midnightblue" d="M108.742,-111.701C112.351,-102.574 115.998,-93.348 119.395,-84.7571"/>
<polygon fill="none" stroke="midnightblue" points="105.43,-110.559 105.009,-121.145 111.94,-113.132 105.43,-110.559"/>
</g>
<!-- Node2 -->
<g id="node2" class="node"><title>Node2</title>
<g id="a_node2"><a xlink:href="../../dc/de8/classStream.html" target="_top" xlink:title="流操作对象，用于二进制数据流读写 ">
<polygon fill="white" stroke="black" points="53.2241,-262.5 53.2241,-346.5 116.187,-346.5 116.187,-262.5 53.2241,-262.5"/>
<text text-anchor="middle" x="84.7056" y="-334.5" font-family="Helvetica,sans-Serif" font-size="10.00">Stream</text>
<polyline fill="none" stroke="black" points="53.2241,-328.5 116.187,-328.5 "/>
<text text-anchor="middle" x="84.7056" y="-316.5" font-family="Helvetica,sans-Serif" font-size="10.00"> </text>
<polyline fill="none" stroke="black" points="53.2241,-310.5 116.187,-310.5 "/>
<text text-anchor="start" x="61.2241" y="-298.5" font-family="Helvetica,sans-Serif" font-size="10.00">+ read()</text>
<text text-anchor="start" x="61.2241" y="-288.5" font-family="Helvetica,sans-Serif" font-size="10.00">+ write()</text>
<text text-anchor="start" x="61.2241" y="-278.5" font-family="Helvetica,sans-Serif" font-size="10.00">+ close()</text>
<text text-anchor="start" x="61.2241" y="-268.5" font-family="Helvetica,sans-Serif" font-size="10.00">+ copyTo()</text>
</a>
</g>
</g>
<!-- Node2&#45;&gt;Node1 -->
<g id="edge1" class="edge"><title>Node2&#45;&gt;Node1</title>
<path fill="none" stroke="midnightblue" d="M84.7056,-252.261C84.7056,-243.517 84.7056,-234.434 84.7056,-225.691"/>
<polygon fill="none" stroke="midnightblue" points="81.2057,-252.329 84.7056,-262.329 88.2057,-252.329 81.2057,-252.329"/>
</g>
<!-- Node3 -->
<g id="node3" class="node"><title>Node3</title>
<g id="a_node3"><a xlink:href="../../dc/dd8/classobject.html" target="_top" xlink:title="基础对象，所有对象均继承于此 ">
<polygon fill="white" stroke="black" points="51.3687,-383.5 51.3687,-467.5 118.042,-467.5 118.042,-383.5 51.3687,-383.5"/>
<text text-anchor="middle" x="84.7056" y="-455.5" font-family="Helvetica,sans-Serif" font-size="10.00">object</text>
<polyline fill="none" stroke="black" points="51.3687,-449.5 118.042,-449.5 "/>
<text text-anchor="middle" x="84.7056" y="-437.5" font-family="Helvetica,sans-Serif" font-size="10.00"> </text>
<polyline fill="none" stroke="black" points="51.3687,-431.5 118.042,-431.5 "/>
<text text-anchor="start" x="59.3687" y="-419.5" font-family="Helvetica,sans-Serif" font-size="10.00">+ dispose()</text>
<text text-anchor="start" x="59.3687" y="-409.5" font-family="Helvetica,sans-Serif" font-size="10.00">+ toString()</text>
<text text-anchor="start" x="59.3687" y="-399.5" font-family="Helvetica,sans-Serif" font-size="10.00">+ toJSON()</text>
<text text-anchor="start" x="59.3687" y="-389.5" font-family="Helvetica,sans-Serif" font-size="10.00">+ ValueOf()</text>
</a>
</g>
</g>
<!-- Node3&#45;&gt;Node2 -->
<g id="edge2" class="edge"><title>Node3&#45;&gt;Node2</title>
<path fill="none" stroke="midnightblue" d="M84.7056,-373.041C84.7056,-364.241 84.7056,-355.202 84.7056,-346.713"/>
<polygon fill="none" stroke="midnightblue" points="81.2057,-373.214 84.7056,-383.214 88.2057,-373.214 81.2057,-373.214"/>
</g>
</g>
</svg>
