<?xml version="1.0" encoding="UTF-8" standalone="no"?>
<!DOCTYPE svg PUBLIC "-//W3C//DTD SVG 1.1//EN"
 "http://www.w3.org/Graphics/SVG/1.1/DTD/svg11.dtd">
<!-- Generated by graphviz version 2.38.0 (20140413.2041)
 -->
<!-- Title: Handler Pages: 1 -->
<svg width="576pt" height="315pt"
 viewBox="0.00 0.00 575.53 315.00" xmlns="http://www.w3.org/2000/svg" xmlns:xlink="http://www.w3.org/1999/xlink">
<g id="graph0" class="graph" transform="scale(1 1) rotate(0) translate(4 311)">
<title>Handler</title>
<polygon fill="white" stroke="none" points="-4,4 -4,-311 571.527,-311 571.527,4 -4,4"/>
<!-- Node1 -->
<g id="node1" class="node"><title>Node1</title>
<polygon fill="#bfbfbf" stroke="black" points="247.34,-131.5 247.34,-185.5 307.525,-185.5 307.525,-131.5 247.34,-131.5"/>
<text text-anchor="middle" x="277.433" y="-173.5" font-family="Helvetica,sans-Serif" font-size="10.00">Handler</text>
<polyline fill="none" stroke="black" points="247.34,-167.5 307.525,-167.5 "/>
<text text-anchor="middle" x="277.433" y="-155.5" font-family="Helvetica,sans-Serif" font-size="10.00"> </text>
<polyline fill="none" stroke="black" points="247.34,-149.5 307.525,-149.5 "/>
<text text-anchor="start" x="255.34" y="-137.5" font-family="Helvetica,sans-Serif" font-size="10.00">+ invoke()</text>
</g>
<!-- Node3 -->
<g id="node3" class="node"><title>Node3</title>
<g id="a_node3"><a xlink:href="../../d7/ded/classAsyncWait.html" target="_top" xlink:title="消息处理器异步等待对象 ">
<polygon fill="white" stroke="black" points="0,-20.5 0,-74.5 62.8652,-74.5 62.8652,-20.5 0,-20.5"/>
<text text-anchor="middle" x="31.4326" y="-62.5" font-family="Helvetica,sans-Serif" font-size="10.00">AsyncWait</text>
<polyline fill="none" stroke="black" points="0,-56.5 62.8652,-56.5 "/>
<text text-anchor="middle" x="31.4326" y="-44.5" font-family="Helvetica,sans-Serif" font-size="10.00"> </text>
<polyline fill="none" stroke="black" points="0,-38.5 62.8652,-38.5 "/>
<text text-anchor="start" x="8" y="-26.5" font-family="Helvetica,sans-Serif" font-size="10.00">+ end()</text>
</a>
</g>
</g>
<!-- Node1&#45;&gt;Node3 -->
<g id="edge2" class="edge"><title>Node1&#45;&gt;Node3</title>
<path fill="none" stroke="midnightblue" d="M237.172,-151.93C193.718,-144.458 123.84,-128.1 72.4326,-95 64.1072,-89.6396 56.4706,-82.1265 50.1028,-74.7002"/>
<polygon fill="none" stroke="midnightblue" points="236.655,-155.392 247.091,-153.559 237.79,-148.484 236.655,-155.392"/>
</g>
<!-- Node4 -->
<g id="node4" class="node"><title>Node4</title>
<g id="a_node4"><a xlink:href="../../d7/d43/classChain.html" target="_top" xlink:title="消息处理器链处理对象 ">
<polygon fill="white" stroke="black" points="81.1089,-10.5 81.1089,-84.5 145.756,-84.5 145.756,-10.5 81.1089,-10.5"/>
<text text-anchor="middle" x="113.433" y="-72.5" font-family="Helvetica,sans-Serif" font-size="10.00">Chain</text>
<polyline fill="none" stroke="black" points="81.1089,-66.5 145.756,-66.5 "/>
<text text-anchor="middle" x="113.433" y="-54.5" font-family="Helvetica,sans-Serif" font-size="10.00"> </text>
<polyline fill="none" stroke="black" points="81.1089,-48.5 145.756,-48.5 "/>
<text text-anchor="start" x="89.1089" y="-36.5" font-family="Helvetica,sans-Serif" font-size="10.00">+ Chain()</text>
<text text-anchor="start" x="89.1089" y="-26.5" font-family="Helvetica,sans-Serif" font-size="10.00">+ append()</text>
<text text-anchor="start" x="89.1089" y="-16.5" font-family="Helvetica,sans-Serif" font-size="10.00">+ append()</text>
</a>
</g>
</g>
<!-- Node1&#45;&gt;Node4 -->
<g id="edge3" class="edge"><title>Node1&#45;&gt;Node4</title>
<path fill="none" stroke="midnightblue" d="M237.982,-142.031C212.696,-131.049 179.953,-114.772 154.433,-95 150.519,-91.9678 146.688,-88.524 143.036,-84.9143"/>
<polygon fill="none" stroke="midnightblue" points="236.704,-145.291 247.277,-145.976 239.439,-138.847 236.704,-145.291"/>
</g>
<!-- Node5 -->
<g id="node5" class="node"><title>Node5</title>
<g id="a_node5"><a xlink:href="../../d3/df3/classHttpHandler.html" target="_top" xlink:title="http 协议转换处理器 ">
<polygon fill="white" stroke="black" points="163.437,-0.5 163.437,-94.5 271.429,-94.5 271.429,-0.5 163.437,-0.5"/>
<text text-anchor="middle" x="217.433" y="-82.5" font-family="Helvetica,sans-Serif" font-size="10.00">HttpHandler</text>
<polyline fill="none" stroke="black" points="163.437,-76.5 271.429,-76.5 "/>
<text text-anchor="start" x="171.437" y="-64.5" font-family="Helvetica,sans-Serif" font-size="10.00">+ crossDomain</text>
<text text-anchor="start" x="171.437" y="-54.5" font-family="Helvetica,sans-Serif" font-size="10.00">+ forceGZIP</text>
<text text-anchor="start" x="171.437" y="-44.5" font-family="Helvetica,sans-Serif" font-size="10.00">+ maxHeadersCount</text>
<text text-anchor="start" x="171.437" y="-34.5" font-family="Helvetica,sans-Serif" font-size="10.00">+ maxUploadSize</text>
<text text-anchor="start" x="171.437" y="-24.5" font-family="Helvetica,sans-Serif" font-size="10.00">+ stats</text>
<polyline fill="none" stroke="black" points="163.437,-18.5 271.429,-18.5 "/>
<text text-anchor="start" x="171.437" y="-6.5" font-family="Helvetica,sans-Serif" font-size="10.00">+ HttpHandler()</text>
</a>
</g>
</g>
<!-- Node1&#45;&gt;Node5 -->
<g id="edge4" class="edge"><title>Node1&#45;&gt;Node5</title>
<path fill="none" stroke="midnightblue" d="M258.188,-122.539C253.337,-113.726 248.053,-104.127 242.947,-94.8505"/>
<polygon fill="none" stroke="midnightblue" points="255.173,-124.319 263.061,-131.392 261.305,-120.943 255.173,-124.319"/>
</g>
<!-- Node6 -->
<g id="node6" class="node"><title>Node6</title>
<g id="a_node6"><a xlink:href="../../d3/db9/classPacketHandler.html" target="_top" xlink:title="Packet 包协议转换处理器 ">
<polygon fill="white" stroke="black" points="288.998,-15.5 288.998,-79.5 385.867,-79.5 385.867,-15.5 288.998,-15.5"/>
<text text-anchor="middle" x="337.433" y="-67.5" font-family="Helvetica,sans-Serif" font-size="10.00">PacketHandler</text>
<polyline fill="none" stroke="black" points="288.998,-61.5 385.867,-61.5 "/>
<text text-anchor="start" x="296.998" y="-49.5" font-family="Helvetica,sans-Serif" font-size="10.00">+ maxSize</text>
<text text-anchor="start" x="296.998" y="-39.5" font-family="Helvetica,sans-Serif" font-size="10.00">+ stats</text>
<polyline fill="none" stroke="black" points="288.998,-33.5 385.867,-33.5 "/>
<text text-anchor="start" x="296.998" y="-21.5" font-family="Helvetica,sans-Serif" font-size="10.00">+ PacketHandler()</text>
</a>
</g>
</g>
<!-- Node1&#45;&gt;Node6 -->
<g id="edge5" class="edge"><title>Node1&#45;&gt;Node6</title>
<path fill="none" stroke="midnightblue" d="M296.82,-122.279C304.342,-108.615 312.885,-93.0956 320.188,-79.8274"/>
<polygon fill="none" stroke="midnightblue" points="293.56,-120.943 291.804,-131.392 299.693,-124.319 293.56,-120.943"/>
</g>
<!-- Node7 -->
<g id="node7" class="node"><title>Node7</title>
<g id="a_node7"><a xlink:href="../../d4/d90/classRouting.html" target="_top" xlink:title="消息处理器路由对象 ">
<polygon fill="white" stroke="black" points="403.56,-10.5 403.56,-84.5 469.306,-84.5 469.306,-10.5 403.56,-10.5"/>
<text text-anchor="middle" x="436.433" y="-72.5" font-family="Helvetica,sans-Serif" font-size="10.00">Routing</text>
<polyline fill="none" stroke="black" points="403.56,-66.5 469.306,-66.5 "/>
<text text-anchor="middle" x="436.433" y="-54.5" font-family="Helvetica,sans-Serif" font-size="10.00"> </text>
<polyline fill="none" stroke="black" points="403.56,-48.5 469.306,-48.5 "/>
<text text-anchor="start" x="411.56" y="-36.5" font-family="Helvetica,sans-Serif" font-size="10.00">+ Routing()</text>
<text text-anchor="start" x="411.56" y="-26.5" font-family="Helvetica,sans-Serif" font-size="10.00">+ append()</text>
<text text-anchor="start" x="411.56" y="-16.5" font-family="Helvetica,sans-Serif" font-size="10.00">+ append()</text>
</a>
</g>
</g>
<!-- Node1&#45;&gt;Node7 -->
<g id="edge6" class="edge"><title>Node1&#45;&gt;Node7</title>
<path fill="none" stroke="midnightblue" d="M317.377,-140.401C341.006,-129.284 370.831,-113.447 394.433,-95 398.375,-91.9184 402.257,-88.4429 405.973,-84.8146"/>
<polygon fill="none" stroke="midnightblue" points="315.614,-137.359 307.995,-144.721 318.542,-143.717 315.614,-137.359"/>
</g>
<!-- Node8 -->
<g id="node8" class="node"><title>Node8</title>
<g id="a_node8"><a xlink:href="../../da/d2d/classSslHandler.html" target="_top" xlink:title="ssl 协议转换处理器 ">
<polygon fill="white" stroke="black" points="487.338,-10.5 487.338,-84.5 567.527,-84.5 567.527,-10.5 487.338,-10.5"/>
<text text-anchor="middle" x="527.433" y="-72.5" font-family="Helvetica,sans-Serif" font-size="10.00">SslHandler</text>
<polyline fill="none" stroke="black" points="487.338,-66.5 567.527,-66.5 "/>
<text text-anchor="start" x="495.338" y="-54.5" font-family="Helvetica,sans-Serif" font-size="10.00">+ verification</text>
<text text-anchor="start" x="495.338" y="-44.5" font-family="Helvetica,sans-Serif" font-size="10.00">+ ca</text>
<polyline fill="none" stroke="black" points="487.338,-38.5 567.527,-38.5 "/>
<text text-anchor="start" x="495.338" y="-26.5" font-family="Helvetica,sans-Serif" font-size="10.00">+ SslHandler()</text>
<text text-anchor="start" x="495.338" y="-16.5" font-family="Helvetica,sans-Serif" font-size="10.00">+ SslHandler()</text>
</a>
</g>
</g>
<!-- Node1&#45;&gt;Node8 -->
<g id="edge7" class="edge"><title>Node1&#45;&gt;Node8</title>
<path fill="none" stroke="midnightblue" d="M317.711,-150.614C359.947,-142.145 427.177,-125.056 478.433,-95 483.491,-92.0339 488.443,-88.4525 493.136,-84.6095"/>
<polygon fill="none" stroke="midnightblue" points="316.948,-147.197 307.797,-152.536 318.28,-154.069 316.948,-147.197"/>
</g>
<!-- Node2 -->
<g id="node2" class="node"><title>Node2</title>
<g id="a_node2"><a xlink:href="../../dc/dd8/classobject.html" target="_top" xlink:title="基础对象，所有对象均继承于此 ">
<polygon fill="white" stroke="black" points="244.096,-222.5 244.096,-306.5 310.77,-306.5 310.77,-222.5 244.096,-222.5"/>
<text text-anchor="middle" x="277.433" y="-294.5" font-family="Helvetica,sans-Serif" font-size="10.00">object</text>
<polyline fill="none" stroke="black" points="244.096,-288.5 310.77,-288.5 "/>
<text text-anchor="middle" x="277.433" y="-276.5" font-family="Helvetica,sans-Serif" font-size="10.00"> </text>
<polyline fill="none" stroke="black" points="244.096,-270.5 310.77,-270.5 "/>
<text text-anchor="start" x="252.096" y="-258.5" font-family="Helvetica,sans-Serif" font-size="10.00">+ dispose()</text>
<text text-anchor="start" x="252.096" y="-248.5" font-family="Helvetica,sans-Serif" font-size="10.00">+ toString()</text>
<text text-anchor="start" x="252.096" y="-238.5" font-family="Helvetica,sans-Serif" font-size="10.00">+ toJSON()</text>
<text text-anchor="start" x="252.096" y="-228.5" font-family="Helvetica,sans-Serif" font-size="10.00">+ ValueOf()</text>
</a>
</g>
</g>
<!-- Node2&#45;&gt;Node1 -->
<g id="edge1" class="edge"><title>Node2&#45;&gt;Node1</title>
<path fill="none" stroke="midnightblue" d="M277.433,-212.111C277.433,-202.937 277.433,-193.738 277.433,-185.655"/>
<polygon fill="none" stroke="midnightblue" points="273.933,-212.396 277.433,-222.396 280.933,-212.396 273.933,-212.396"/>
</g>
</g>
</svg>
