<?xml version="1.0" encoding="UTF-8" standalone="no"?>
<!DOCTYPE svg PUBLIC "-//W3C//DTD SVG 1.1//EN"
 "http://www.w3.org/Graphics/SVG/1.1/DTD/svg11.dtd">
<!-- Generated by graphviz version 2.38.0 (20140413.2041)
 -->
<!-- Title: Handler Pages: 1 -->
<svg width="576pt" height="325pt"
 viewBox="0.00 0.00 575.53 325.00" xmlns="http://www.w3.org/2000/svg" xmlns:xlink="http://www.w3.org/1999/xlink">
<g id="graph0" class="graph" transform="scale(1 1) rotate(0) translate(4 321)">
<title>Handler</title>
<polygon fill="white" stroke="none" points="-4,4 -4,-321 571.527,-321 571.527,4 -4,4"/>
<!-- Node1 -->
<g id="node1" class="node"><title>Node1</title>
<polygon fill="#bfbfbf" stroke="black" points="247.34,-141.5 247.34,-195.5 307.525,-195.5 307.525,-141.5 247.34,-141.5"/>
<text text-anchor="middle" x="277.433" y="-183.5" font-family="Helvetica,sans-Serif" font-size="10.00">Handler</text>
<polyline fill="none" stroke="black" points="247.34,-177.5 307.525,-177.5 "/>
<text text-anchor="middle" x="277.433" y="-165.5" font-family="Helvetica,sans-Serif" font-size="10.00"> </text>
<polyline fill="none" stroke="black" points="247.34,-159.5 307.525,-159.5 "/>
<text text-anchor="start" x="255.34" y="-147.5" font-family="Helvetica,sans-Serif" font-size="10.00">+ invoke()</text>
</g>
<!-- Node3 -->
<g id="node3" class="node"><title>Node3</title>
<g id="a_node3"><a xlink:href="../../d7/ded/classAsyncWait.html" target="_top" xlink:title="消息处理器异步等待对象 ">
<polygon fill="white" stroke="black" points="0,-25.5 0,-79.5 62.8652,-79.5 62.8652,-25.5 0,-25.5"/>
<text text-anchor="middle" x="31.4326" y="-67.5" font-family="Helvetica,sans-Serif" font-size="10.00">AsyncWait</text>
<polyline fill="none" stroke="black" points="0,-61.5 62.8652,-61.5 "/>
<text text-anchor="middle" x="31.4326" y="-49.5" font-family="Helvetica,sans-Serif" font-size="10.00"> </text>
<polyline fill="none" stroke="black" points="0,-43.5 62.8652,-43.5 "/>
<text text-anchor="start" x="8" y="-31.5" font-family="Helvetica,sans-Serif" font-size="10.00">+ end()</text>
</a>
</g>
</g>
<!-- Node1&#45;&gt;Node3 -->
<g id="edge2" class="edge"><title>Node1&#45;&gt;Node3</title>
<path fill="none" stroke="midnightblue" d="M237.215,-162.482C193.506,-155.466 123.135,-139.478 72.4326,-105 62.6987,-98.3809 54.1604,-88.7513 47.4314,-79.6052"/>
<polygon fill="none" stroke="midnightblue" points="236.776,-165.955 247.189,-164.001 237.83,-159.035 236.776,-165.955"/>
</g>
<!-- Node4 -->
<g id="node4" class="node"><title>Node4</title>
<g id="a_node4"><a xlink:href="../../d7/d43/classChain.html" target="_top" xlink:title="消息处理器链处理对象 ">
<polygon fill="white" stroke="black" points="81.1089,-15.5 81.1089,-89.5 145.756,-89.5 145.756,-15.5 81.1089,-15.5"/>
<text text-anchor="middle" x="113.433" y="-77.5" font-family="Helvetica,sans-Serif" font-size="10.00">Chain</text>
<polyline fill="none" stroke="black" points="81.1089,-71.5 145.756,-71.5 "/>
<text text-anchor="middle" x="113.433" y="-59.5" font-family="Helvetica,sans-Serif" font-size="10.00"> </text>
<polyline fill="none" stroke="black" points="81.1089,-53.5 145.756,-53.5 "/>
<text text-anchor="start" x="89.1089" y="-41.5" font-family="Helvetica,sans-Serif" font-size="10.00">+ Chain()</text>
<text text-anchor="start" x="89.1089" y="-31.5" font-family="Helvetica,sans-Serif" font-size="10.00">+ append()</text>
<text text-anchor="start" x="89.1089" y="-21.5" font-family="Helvetica,sans-Serif" font-size="10.00">+ append()</text>
</a>
</g>
</g>
<!-- Node1&#45;&gt;Node4 -->
<g id="edge3" class="edge"><title>Node1&#45;&gt;Node4</title>
<path fill="none" stroke="midnightblue" d="M237.893,-152.564C212.433,-141.757 179.531,-125.474 154.433,-105 148.942,-100.521 143.706,-95.1909 138.924,-89.6846"/>
<polygon fill="none" stroke="midnightblue" points="236.675,-155.848 247.254,-156.435 239.35,-149.379 236.675,-155.848"/>
</g>
<!-- Node5 -->
<g id="node5" class="node"><title>Node5</title>
<g id="a_node5"><a xlink:href="../../d3/df3/classHttpHandler.html" target="_top" xlink:title="http 协议转换处理器 ">
<polygon fill="white" stroke="black" points="163.437,-0.5 163.437,-104.5 271.429,-104.5 271.429,-0.5 163.437,-0.5"/>
<text text-anchor="middle" x="217.433" y="-92.5" font-family="Helvetica,sans-Serif" font-size="10.00">HttpHandler</text>
<polyline fill="none" stroke="black" points="163.437,-86.5 271.429,-86.5 "/>
<text text-anchor="start" x="171.437" y="-74.5" font-family="Helvetica,sans-Serif" font-size="10.00">+ crossDomain</text>
<text text-anchor="start" x="171.437" y="-64.5" font-family="Helvetica,sans-Serif" font-size="10.00">+ forceGZIP</text>
<text text-anchor="start" x="171.437" y="-54.5" font-family="Helvetica,sans-Serif" font-size="10.00">+ maxHeadersCount</text>
<text text-anchor="start" x="171.437" y="-44.5" font-family="Helvetica,sans-Serif" font-size="10.00">+ maxUploadSize</text>
<text text-anchor="start" x="171.437" y="-34.5" font-family="Helvetica,sans-Serif" font-size="10.00">+ handler</text>
<text text-anchor="start" x="171.437" y="-24.5" font-family="Helvetica,sans-Serif" font-size="10.00">+ stats</text>
<polyline fill="none" stroke="black" points="163.437,-18.5 271.429,-18.5 "/>
<text text-anchor="start" x="171.437" y="-6.5" font-family="Helvetica,sans-Serif" font-size="10.00">+ HttpHandler()</text>
</a>
</g>
</g>
<!-- Node1&#45;&gt;Node5 -->
<g id="edge4" class="edge"><title>Node1&#45;&gt;Node5</title>
<path fill="none" stroke="midnightblue" d="M258.875,-132.241C254.284,-123.518 249.272,-113.995 244.37,-104.681"/>
<polygon fill="none" stroke="midnightblue" points="255.913,-134.127 263.667,-141.346 262.107,-130.867 255.913,-134.127"/>
</g>
<!-- Node6 -->
<g id="node6" class="node"><title>Node6</title>
<g id="a_node6"><a xlink:href="../../d3/db9/classPacketHandler.html" target="_top" xlink:title="Packet 包协议转换处理器 ">
<polygon fill="white" stroke="black" points="288.998,-20.5 288.998,-84.5 385.867,-84.5 385.867,-20.5 288.998,-20.5"/>
<text text-anchor="middle" x="337.433" y="-72.5" font-family="Helvetica,sans-Serif" font-size="10.00">PacketHandler</text>
<polyline fill="none" stroke="black" points="288.998,-66.5 385.867,-66.5 "/>
<text text-anchor="start" x="296.998" y="-54.5" font-family="Helvetica,sans-Serif" font-size="10.00">+ maxSize</text>
<text text-anchor="start" x="296.998" y="-44.5" font-family="Helvetica,sans-Serif" font-size="10.00">+ stats</text>
<polyline fill="none" stroke="black" points="288.998,-38.5 385.867,-38.5 "/>
<text text-anchor="start" x="296.998" y="-26.5" font-family="Helvetica,sans-Serif" font-size="10.00">+ PacketHandler()</text>
</a>
</g>
</g>
<!-- Node1&#45;&gt;Node6 -->
<g id="edge5" class="edge"><title>Node1&#45;&gt;Node6</title>
<path fill="none" stroke="midnightblue" d="M295.979,-132.261C303.963,-117.093 313.22,-99.5047 320.958,-84.8018"/>
<polygon fill="none" stroke="midnightblue" points="292.758,-130.867 291.198,-141.346 298.953,-134.127 292.758,-130.867"/>
</g>
<!-- Node7 -->
<g id="node7" class="node"><title>Node7</title>
<g id="a_node7"><a xlink:href="../../d4/d90/classRouting.html" target="_top" xlink:title="消息处理器路由对象 ">
<polygon fill="white" stroke="black" points="403.56,-15.5 403.56,-89.5 469.306,-89.5 469.306,-15.5 403.56,-15.5"/>
<text text-anchor="middle" x="436.433" y="-77.5" font-family="Helvetica,sans-Serif" font-size="10.00">Routing</text>
<polyline fill="none" stroke="black" points="403.56,-71.5 469.306,-71.5 "/>
<text text-anchor="middle" x="436.433" y="-59.5" font-family="Helvetica,sans-Serif" font-size="10.00"> </text>
<polyline fill="none" stroke="black" points="403.56,-53.5 469.306,-53.5 "/>
<text text-anchor="start" x="411.56" y="-41.5" font-family="Helvetica,sans-Serif" font-size="10.00">+ Routing()</text>
<text text-anchor="start" x="411.56" y="-31.5" font-family="Helvetica,sans-Serif" font-size="10.00">+ append()</text>
<text text-anchor="start" x="411.56" y="-21.5" font-family="Helvetica,sans-Serif" font-size="10.00">+ append()</text>
</a>
</g>
</g>
<!-- Node1&#45;&gt;Node7 -->
<g id="edge6" class="edge"><title>Node1&#45;&gt;Node7</title>
<path fill="none" stroke="midnightblue" d="M316.922,-151.196C340.801,-140.219 371.044,-124.25 394.433,-105 399.956,-100.454 405.267,-95.0897 410.145,-89.5695"/>
<polygon fill="none" stroke="midnightblue" points="315.47,-148.011 307.78,-155.3 318.337,-154.397 315.47,-148.011"/>
</g>
<!-- Node8 -->
<g id="node8" class="node"><title>Node8</title>
<g id="a_node8"><a xlink:href="../../da/d2d/classSslHandler.html" target="_top" xlink:title="ssl 协议转换处理器 ">
<polygon fill="white" stroke="black" points="487.338,-10.5 487.338,-94.5 567.527,-94.5 567.527,-10.5 487.338,-10.5"/>
<text text-anchor="middle" x="527.433" y="-82.5" font-family="Helvetica,sans-Serif" font-size="10.00">SslHandler</text>
<polyline fill="none" stroke="black" points="487.338,-76.5 567.527,-76.5 "/>
<text text-anchor="start" x="495.338" y="-64.5" font-family="Helvetica,sans-Serif" font-size="10.00">+ verification</text>
<text text-anchor="start" x="495.338" y="-54.5" font-family="Helvetica,sans-Serif" font-size="10.00">+ ca</text>
<text text-anchor="start" x="495.338" y="-44.5" font-family="Helvetica,sans-Serif" font-size="10.00">+ handler</text>
<polyline fill="none" stroke="black" points="487.338,-38.5 567.527,-38.5 "/>
<text text-anchor="start" x="495.338" y="-26.5" font-family="Helvetica,sans-Serif" font-size="10.00">+ SslHandler()</text>
<text text-anchor="start" x="495.338" y="-16.5" font-family="Helvetica,sans-Serif" font-size="10.00">+ SslHandler()</text>
</a>
</g>
</g>
<!-- Node1&#45;&gt;Node8 -->
<g id="edge7" class="edge"><title>Node1&#45;&gt;Node8</title>
<path fill="none" stroke="midnightblue" d="M317.663,-161.201C360.136,-153.187 427.817,-136.443 478.433,-105 483.255,-102.004 487.926,-98.4224 492.345,-94.5617"/>
<polygon fill="none" stroke="midnightblue" points="316.91,-157.78 307.695,-163.008 318.159,-164.668 316.91,-157.78"/>
</g>
<!-- Node2 -->
<g id="node2" class="node"><title>Node2</title>
<g id="a_node2"><a xlink:href="../../dc/dd8/classobject.html" target="_top" xlink:title="基础对象，所有对象均继承于此 ">
<polygon fill="white" stroke="black" points="244.096,-232.5 244.096,-316.5 310.77,-316.5 310.77,-232.5 244.096,-232.5"/>
<text text-anchor="middle" x="277.433" y="-304.5" font-family="Helvetica,sans-Serif" font-size="10.00">object</text>
<polyline fill="none" stroke="black" points="244.096,-298.5 310.77,-298.5 "/>
<text text-anchor="middle" x="277.433" y="-286.5" font-family="Helvetica,sans-Serif" font-size="10.00"> </text>
<polyline fill="none" stroke="black" points="244.096,-280.5 310.77,-280.5 "/>
<text text-anchor="start" x="252.096" y="-268.5" font-family="Helvetica,sans-Serif" font-size="10.00">+ dispose()</text>
<text text-anchor="start" x="252.096" y="-258.5" font-family="Helvetica,sans-Serif" font-size="10.00">+ toString()</text>
<text text-anchor="start" x="252.096" y="-248.5" font-family="Helvetica,sans-Serif" font-size="10.00">+ toJSON()</text>
<text text-anchor="start" x="252.096" y="-238.5" font-family="Helvetica,sans-Serif" font-size="10.00">+ ValueOf()</text>
</a>
</g>
</g>
<!-- Node2&#45;&gt;Node1 -->
<g id="edge1" class="edge"><title>Node2&#45;&gt;Node1</title>
<path fill="none" stroke="midnightblue" d="M277.433,-222.111C277.433,-212.937 277.433,-203.738 277.433,-195.655"/>
<polygon fill="none" stroke="midnightblue" points="273.933,-222.396 277.433,-232.396 280.933,-222.396 273.933,-222.396"/>
</g>
</g>
</svg>
