<?xml version="1.0" encoding="UTF-8" standalone="no"?>
<!DOCTYPE svg PUBLIC "-//W3C//DTD SVG 1.1//EN"
 "http://www.w3.org/Graphics/SVG/1.1/DTD/svg11.dtd">
<!-- Generated by graphviz version 2.38.0 (20140413.2041)
 -->
<!-- Title: Redis Pages: 1 -->
<svg width="83pt" height="194pt"
 viewBox="0.00 0.00 83.18 194.00" xmlns="http://www.w3.org/2000/svg" xmlns:xlink="http://www.w3.org/1999/xlink">
<g id="graph0" class="graph" transform="scale(1 1) rotate(0) translate(4 190)">
<title>Redis</title>
<polygon fill="white" stroke="none" points="-4,4 -4,-190 79.1846,-190 79.1846,4 -4,4"/>
<!-- Node1 -->
<g id="node1" class="node"><title>Node1</title>
<polygon fill="#bfbfbf" stroke="black" points="0,-0.5 0,-64.5 75.1846,-64.5 75.1846,-0.5 0,-0.5"/>
<text text-anchor="middle" x="37.5923" y="-52.5" font-family="Helvetica,sans-Serif" font-size="10.00">Redis</text>
<polyline fill="none" stroke="black" points="0,-46.5 75.1846,-46.5 "/>
<text text-anchor="middle" x="37.5923" y="-34.5" font-family="Helvetica,sans-Serif" font-size="10.00"> </text>
<polyline fill="none" stroke="black" points="0,-28.5 75.1846,-28.5 "/>
<text text-anchor="start" x="8" y="-16.5" font-family="Helvetica,sans-Serif" font-size="10.00">+ command()</text>
<text text-anchor="start" x="8" y="-6.5" font-family="Helvetica,sans-Serif" font-size="10.00">+ close()</text>
</g>
<!-- Node2 -->
<g id="node2" class="node"><title>Node2</title>
<g id="a_node2"><a xlink:href="../../dc/dd8/classobject.html" target="_top" xlink:title="基础对象，所有对象均继承于此 ">
<polygon fill="white" stroke="black" points="4.25537,-101.5 4.25537,-185.5 70.9292,-185.5 70.9292,-101.5 4.25537,-101.5"/>
<text text-anchor="middle" x="37.5923" y="-173.5" font-family="Helvetica,sans-Serif" font-size="10.00">object</text>
<polyline fill="none" stroke="black" points="4.25537,-167.5 70.9292,-167.5 "/>
<text text-anchor="middle" x="37.5923" y="-155.5" font-family="Helvetica,sans-Serif" font-size="10.00"> </text>
<polyline fill="none" stroke="black" points="4.25537,-149.5 70.9292,-149.5 "/>
<text text-anchor="start" x="12.2554" y="-137.5" font-family="Helvetica,sans-Serif" font-size="10.00">+ dispose()</text>
<text text-anchor="start" x="12.2554" y="-127.5" font-family="Helvetica,sans-Serif" font-size="10.00">+ toString()</text>
<text text-anchor="start" x="12.2554" y="-117.5" font-family="Helvetica,sans-Serif" font-size="10.00">+ toJSON()</text>
<text text-anchor="start" x="12.2554" y="-107.5" font-family="Helvetica,sans-Serif" font-size="10.00">+ ValueOf()</text>
</a>
</g>
</g>
<!-- Node2&#45;&gt;Node1 -->
<g id="edge1" class="edge"><title>Node2&#45;&gt;Node1</title>
<path fill="none" stroke="midnightblue" d="M37.5923,-91.1445C37.5923,-82.0652 37.5923,-72.8691 37.5923,-64.5687"/>
<polygon fill="none" stroke="midnightblue" points="34.0924,-91.2917 37.5923,-101.292 41.0924,-91.2918 34.0924,-91.2917"/>
</g>
</g>
</svg>
