<?xml version="1.0" encoding="UTF-8" standalone="no"?>
<!DOCTYPE svg PUBLIC "-//W3C//DTD SVG 1.1//EN"
 "http://www.w3.org/Graphics/SVG/1.1/DTD/svg11.dtd">
<!-- Generated by graphviz version 2.38.0 (20140413.2041)
 -->
<!-- Title: MemoryStream Pages: 1 -->
<svg width="108pt" height="476pt"
 viewBox="0.00 0.00 107.62 476.00" xmlns="http://www.w3.org/2000/svg" xmlns:xlink="http://www.w3.org/1999/xlink">
<g id="graph0" class="graph" transform="scale(1 1) rotate(0) translate(4 472)">
<title>MemoryStream</title>
<polygon fill="white" stroke="none" points="-4,4 -4,-472 103.623,-472 103.623,4 -4,4"/>
<!-- Node1 -->
<g id="node1" class="node"><title>Node1</title>
<polygon fill="#bfbfbf" stroke="black" points="0,-0.5 0,-84.5 99.623,-84.5 99.623,-0.5 0,-0.5"/>
<text text-anchor="middle" x="49.8115" y="-72.5" font-family="Helvetica,sans-Serif" font-size="10.00">MemoryStream</text>
<polyline fill="none" stroke="black" points="0,-66.5 99.623,-66.5 "/>
<text text-anchor="middle" x="49.8115" y="-54.5" font-family="Helvetica,sans-Serif" font-size="10.00"> </text>
<polyline fill="none" stroke="black" points="0,-48.5 99.623,-48.5 "/>
<text text-anchor="start" x="8" y="-36.5" font-family="Helvetica,sans-Serif" font-size="10.00">+ MemoryStream()</text>
<text text-anchor="start" x="8" y="-26.5" font-family="Helvetica,sans-Serif" font-size="10.00">+ setTime()</text>
<text text-anchor="start" x="8" y="-16.5" font-family="Helvetica,sans-Serif" font-size="10.00">+ clone()</text>
<text text-anchor="start" x="8" y="-6.5" font-family="Helvetica,sans-Serif" font-size="10.00">+ clear()</text>
</g>
<!-- Node2 -->
<g id="node2" class="node"><title>Node2</title>
<g id="a_node2"><a xlink:href="../../db/d67/classSeekableStream.html" target="_top" xlink:title="可移动当前指针的流对象接口 ">
<polygon fill="white" stroke="black" points="4.84619,-121.5 4.84619,-225.5 94.7769,-225.5 94.7769,-121.5 4.84619,-121.5"/>
<text text-anchor="middle" x="49.8115" y="-213.5" font-family="Helvetica,sans-Serif" font-size="10.00">SeekableStream</text>
<polyline fill="none" stroke="black" points="4.84619,-207.5 94.7769,-207.5 "/>
<text text-anchor="middle" x="49.8115" y="-195.5" font-family="Helvetica,sans-Serif" font-size="10.00"> </text>
<polyline fill="none" stroke="black" points="4.84619,-189.5 94.7769,-189.5 "/>
<text text-anchor="start" x="12.8462" y="-177.5" font-family="Helvetica,sans-Serif" font-size="10.00">+ seek()</text>
<text text-anchor="start" x="12.8462" y="-167.5" font-family="Helvetica,sans-Serif" font-size="10.00">+ tell()</text>
<text text-anchor="start" x="12.8462" y="-157.5" font-family="Helvetica,sans-Serif" font-size="10.00">+ rewind()</text>
<text text-anchor="start" x="12.8462" y="-147.5" font-family="Helvetica,sans-Serif" font-size="10.00">+ size()</text>
<text text-anchor="start" x="12.8462" y="-137.5" font-family="Helvetica,sans-Serif" font-size="10.00">+ readAll()</text>
<text text-anchor="start" x="12.8462" y="-127.5" font-family="Helvetica,sans-Serif" font-size="10.00">+ stat()</text>
</a>
</g>
</g>
<!-- Node2&#45;&gt;Node1 -->
<g id="edge1" class="edge"><title>Node2&#45;&gt;Node1</title>
<path fill="none" stroke="midnightblue" d="M49.8115,-111.124C49.8115,-102.186 49.8115,-93.1671 49.8115,-84.7571"/>
<polygon fill="none" stroke="midnightblue" points="46.3116,-111.145 49.8115,-121.145 53.3116,-111.145 46.3116,-111.145"/>
</g>
<!-- Node3 -->
<g id="node3" class="node"><title>Node3</title>
<g id="a_node3"><a xlink:href="../../dc/de8/classStream.html" target="_top" xlink:title="流操作对象，用于二进制数据流读写 ">
<polygon fill="white" stroke="black" points="18.3301,-262.5 18.3301,-346.5 81.293,-346.5 81.293,-262.5 18.3301,-262.5"/>
<text text-anchor="middle" x="49.8115" y="-334.5" font-family="Helvetica,sans-Serif" font-size="10.00">Stream</text>
<polyline fill="none" stroke="black" points="18.3301,-328.5 81.293,-328.5 "/>
<text text-anchor="middle" x="49.8115" y="-316.5" font-family="Helvetica,sans-Serif" font-size="10.00"> </text>
<polyline fill="none" stroke="black" points="18.3301,-310.5 81.293,-310.5 "/>
<text text-anchor="start" x="26.3301" y="-298.5" font-family="Helvetica,sans-Serif" font-size="10.00">+ read()</text>
<text text-anchor="start" x="26.3301" y="-288.5" font-family="Helvetica,sans-Serif" font-size="10.00">+ write()</text>
<text text-anchor="start" x="26.3301" y="-278.5" font-family="Helvetica,sans-Serif" font-size="10.00">+ close()</text>
<text text-anchor="start" x="26.3301" y="-268.5" font-family="Helvetica,sans-Serif" font-size="10.00">+ copyTo()</text>
</a>
</g>
</g>
<!-- Node3&#45;&gt;Node2 -->
<g id="edge2" class="edge"><title>Node3&#45;&gt;Node2</title>
<path fill="none" stroke="midnightblue" d="M49.8115,-252.261C49.8115,-243.517 49.8115,-234.434 49.8115,-225.691"/>
<polygon fill="none" stroke="midnightblue" points="46.3116,-252.329 49.8115,-262.329 53.3116,-252.329 46.3116,-252.329"/>
</g>
<!-- Node4 -->
<g id="node4" class="node"><title>Node4</title>
<g id="a_node4"><a xlink:href="../../dc/dd8/classobject.html" target="_top" xlink:title="基础对象，所有对象均继承于此 ">
<polygon fill="white" stroke="black" points="16.6675,-383.5 16.6675,-467.5 82.9556,-467.5 82.9556,-383.5 16.6675,-383.5"/>
<text text-anchor="middle" x="49.8115" y="-455.5" font-family="Helvetica,sans-Serif" font-size="10.00">object</text>
<polyline fill="none" stroke="black" points="16.6675,-449.5 82.9556,-449.5 "/>
<text text-anchor="middle" x="49.8115" y="-437.5" font-family="Helvetica,sans-Serif" font-size="10.00"> </text>
<polyline fill="none" stroke="black" points="16.6675,-431.5 82.9556,-431.5 "/>
<text text-anchor="start" x="24.6675" y="-419.5" font-family="Helvetica,sans-Serif" font-size="10.00">+ dispose()</text>
<text text-anchor="start" x="24.6675" y="-409.5" font-family="Helvetica,sans-Serif" font-size="10.00">+ toString()</text>
<text text-anchor="start" x="24.6675" y="-399.5" font-family="Helvetica,sans-Serif" font-size="10.00">+ toJSON()</text>
<text text-anchor="start" x="24.6675" y="-389.5" font-family="Helvetica,sans-Serif" font-size="10.00">+ valueOf()</text>
</a>
</g>
</g>
<!-- Node4&#45;&gt;Node3 -->
<g id="edge3" class="edge"><title>Node4&#45;&gt;Node3</title>
<path fill="none" stroke="midnightblue" d="M49.8115,-373.041C49.8115,-364.241 49.8115,-355.202 49.8115,-346.713"/>
<polygon fill="none" stroke="midnightblue" points="46.3116,-373.214 49.8115,-383.214 53.3116,-373.214 46.3116,-373.214"/>
</g>
</g>
</svg>
