<?xml version="1.0" encoding="UTF-8" standalone="no"?>
<!DOCTYPE svg PUBLIC "-//W3C//DTD SVG 1.1//EN"
 "http://www.w3.org/Graphics/SVG/1.1/DTD/svg11.dtd">
<!-- Generated by graphviz version 2.38.0 (20140413.2041)
 -->
<!-- Title: rpc Pages: 1 -->
<svg width="58pt" height="154pt"
 viewBox="0.00 0.00 57.62 154.00" xmlns="http://www.w3.org/2000/svg" xmlns:xlink="http://www.w3.org/1999/xlink">
<g id="graph0" class="graph" transform="scale(1 1) rotate(0) translate(4 150)">
<title>rpc</title>
<polygon fill="white" stroke="none" points="-4,4 -4,-150 53.623,-150 53.623,4 -4,4"/>
<!-- Node1 -->
<g id="node1" class="node"><title>Node1</title>
<polygon fill="#bfbfbf" stroke="black" points="0,-0.5 0,-54.5 49.623,-54.5 49.623,-0.5 0,-0.5"/>
<text text-anchor="middle" x="24.8115" y="-42.5" font-family="Helvetica,sans-Serif" font-size="10.00">rpc</text>
<polyline fill="none" stroke="black" points="0,-36.5 49.623,-36.5 "/>
<text text-anchor="middle" x="24.8115" y="-24.5" font-family="Helvetica,sans-Serif" font-size="10.00"> </text>
<polyline fill="none" stroke="black" points="0,-18.5 49.623,-18.5 "/>
<text text-anchor="start" x="8" y="-6.5" font-family="Helvetica,sans-Serif" font-size="10.00">+ json()</text>
</g>
<!-- Node2 -->
<g id="node2" class="node"><title>Node2</title>
<g id="a_node2"><a xlink:href="../../d0/dd3/classmodule.html" target="_top" xlink:title="基础模块对象，所有模块对象均继承于此 ">
<polygon fill="white" stroke="black" points="0.412598,-91.5 0.412598,-145.5 49.2104,-145.5 49.2104,-91.5 0.412598,-91.5"/>
<text text-anchor="middle" x="24.8115" y="-133.5" font-family="Helvetica,sans-Serif" font-size="10.00">module</text>
<polyline fill="none" stroke="black" points="0.412598,-127.5 49.2104,-127.5 "/>
<text text-anchor="middle" x="24.8115" y="-115.5" font-family="Helvetica,sans-Serif" font-size="10.00"> </text>
<polyline fill="none" stroke="black" points="0.412598,-109.5 49.2104,-109.5 "/>
<text text-anchor="middle" x="24.8115" y="-97.5" font-family="Helvetica,sans-Serif" font-size="10.00"> </text>
</a>
</g>
</g>
<!-- Node2&#45;&gt;Node1 -->
<g id="edge1" class="edge"><title>Node2&#45;&gt;Node1</title>
<path fill="none" stroke="midnightblue" d="M24.8115,-81.1155C24.8115,-72.2061 24.8115,-62.8475 24.8115,-54.5341"/>
<polygon fill="none" stroke="midnightblue" points="21.3116,-81.2784 24.8115,-91.2784 28.3116,-81.2785 21.3116,-81.2784"/>
</g>
</g>
</svg>
