<?xml version="1.0" encoding="UTF-8" standalone="no"?>
<!DOCTYPE svg PUBLIC "-//W3C//DTD SVG 1.1//EN"
 "http://www.w3.org/Graphics/SVG/1.1/DTD/svg11.dtd">
<!-- Generated by graphviz version 2.38.0 (20140413.2041)
 -->
<!-- Title: vm Pages: 1 -->
<svg width="80pt" height="164pt"
 viewBox="0.00 0.00 79.86 164.00" xmlns="http://www.w3.org/2000/svg" xmlns:xlink="http://www.w3.org/1999/xlink">
<g id="graph0" class="graph" transform="scale(1 1) rotate(0) translate(4 160)">
<title>vm</title>
<polygon fill="white" stroke="none" points="-4,4 -4,-160 75.8643,-160 75.8643,4 -4,4"/>
<!-- Node1 -->
<g id="node1" class="node"><title>Node1</title>
<polygon fill="#bfbfbf" stroke="black" points="0,-0.5 0,-64.5 71.8643,-64.5 71.8643,-0.5 0,-0.5"/>
<text text-anchor="middle" x="35.9321" y="-52.5" font-family="Helvetica,sans-Serif" font-size="10.00">vm</text>
<polyline fill="none" stroke="black" points="0,-46.5 71.8643,-46.5 "/>
<text text-anchor="middle" x="35.9321" y="-34.5" font-family="Helvetica,sans-Serif" font-size="10.00"> </text>
<polyline fill="none" stroke="black" points="0,-28.5 71.8643,-28.5 "/>
<text text-anchor="start" x="8" y="-16.5" font-family="Helvetica,sans-Serif" font-size="10.00">+ SandBox()</text>
<text text-anchor="start" x="8" y="-6.5" font-family="Helvetica,sans-Serif" font-size="10.00">+ current()</text>
</g>
<!-- Node2 -->
<g id="node2" class="node"><title>Node2</title>
<g id="a_node2"><a xlink:href="../../d0/dd3/classmodule.html" target="_top" xlink:title="基础模块对象，所有模块对象均继承于此 ">
<polygon fill="white" stroke="black" points="11.5332,-101.5 11.5332,-155.5 60.3311,-155.5 60.3311,-101.5 11.5332,-101.5"/>
<text text-anchor="middle" x="35.9321" y="-143.5" font-family="Helvetica,sans-Serif" font-size="10.00">module</text>
<polyline fill="none" stroke="black" points="11.5332,-137.5 60.3311,-137.5 "/>
<text text-anchor="middle" x="35.9321" y="-125.5" font-family="Helvetica,sans-Serif" font-size="10.00"> </text>
<polyline fill="none" stroke="black" points="11.5332,-119.5 60.3311,-119.5 "/>
<text text-anchor="middle" x="35.9321" y="-107.5" font-family="Helvetica,sans-Serif" font-size="10.00"> </text>
</a>
</g>
</g>
<!-- Node2&#45;&gt;Node1 -->
<g id="edge1" class="edge"><title>Node2&#45;&gt;Node1</title>
<path fill="none" stroke="midnightblue" d="M35.9321,-91.2838C35.9321,-82.4601 35.9321,-73.1003 35.9321,-64.5417"/>
<polygon fill="none" stroke="midnightblue" points="32.4322,-91.3157 35.9321,-101.316 39.4322,-91.3158 32.4322,-91.3157"/>
</g>
</g>
</svg>
