<?xml version="1.0" encoding="UTF-8" standalone="no"?>
<!DOCTYPE svg PUBLIC "-//W3C//DTD SVG 1.1//EN"
 "http://www.w3.org/Graphics/SVG/1.1/DTD/svg11.dtd">
<!-- Generated by graphviz version 2.38.0 (20140413.2041)
 -->
<!-- Title: vm Pages: 1 -->
<svg width="80pt" height="154pt"
 viewBox="0.00 0.00 79.86 154.00" xmlns="http://www.w3.org/2000/svg" xmlns:xlink="http://www.w3.org/1999/xlink">
<g id="graph0" class="graph" transform="scale(1 1) rotate(0) translate(4 150)">
<title>vm</title>
<polygon fill="white" stroke="none" points="-4,4 -4,-150 75.8643,-150 75.8643,4 -4,4"/>
<!-- Node1 -->
<g id="node1" class="node"><title>Node1</title>
<polygon fill="#bfbfbf" stroke="black" points="0,-0.5 0,-54.5 71.8643,-54.5 71.8643,-0.5 0,-0.5"/>
<text text-anchor="middle" x="35.9321" y="-42.5" font-family="Helvetica,sans-Serif" font-size="10.00">vm</text>
<polyline fill="none" stroke="black" points="0,-36.5 71.8643,-36.5 "/>
<text text-anchor="middle" x="35.9321" y="-24.5" font-family="Helvetica,sans-Serif" font-size="10.00"> </text>
<polyline fill="none" stroke="black" points="0,-18.5 71.8643,-18.5 "/>
<text text-anchor="start" x="8" y="-6.5" font-family="Helvetica,sans-Serif" font-size="10.00">+ SandBox()</text>
</g>
<!-- Node2 -->
<g id="node2" class="node"><title>Node2</title>
<g id="a_node2"><a xlink:href="../../d0/dd3/classmodule.html" target="_top" xlink:title="基础模块对象，所有模块对象均继承于此 ">
<polygon fill="white" stroke="black" points="11.5332,-91.5 11.5332,-145.5 60.3311,-145.5 60.3311,-91.5 11.5332,-91.5"/>
<text text-anchor="middle" x="35.9321" y="-133.5" font-family="Helvetica,sans-Serif" font-size="10.00">module</text>
<polyline fill="none" stroke="black" points="11.5332,-127.5 60.3311,-127.5 "/>
<text text-anchor="middle" x="35.9321" y="-115.5" font-family="Helvetica,sans-Serif" font-size="10.00"> </text>
<polyline fill="none" stroke="black" points="11.5332,-109.5 60.3311,-109.5 "/>
<text text-anchor="middle" x="35.9321" y="-97.5" font-family="Helvetica,sans-Serif" font-size="10.00"> </text>
</a>
</g>
</g>
<!-- Node2&#45;&gt;Node1 -->
<g id="edge1" class="edge"><title>Node2&#45;&gt;Node1</title>
<path fill="none" stroke="midnightblue" d="M35.9321,-81.1155C35.9321,-72.2061 35.9321,-62.8475 35.9321,-54.5341"/>
<polygon fill="none" stroke="midnightblue" points="32.4322,-81.2784 35.9321,-91.2784 39.4322,-81.2785 32.4322,-81.2784"/>
</g>
</g>
</svg>
