<?xml version="1.0" encoding="UTF-8" standalone="no"?>
<!DOCTYPE svg PUBLIC "-//W3C//DTD SVG 1.1//EN"
 "http://www.w3.org/Graphics/SVG/1.1/DTD/svg11.dtd">
<!-- Generated by graphviz version 2.38.0 (20140413.2041)
 -->
<!-- Title: Condition Pages: 1 -->
<svg width="82pt" height="335pt"
 viewBox="0.00 0.00 81.53 335.00" xmlns="http://www.w3.org/2000/svg" xmlns:xlink="http://www.w3.org/1999/xlink">
<g id="graph0" class="graph" transform="scale(1 1) rotate(0) translate(4 331)">
<title>Condition</title>
<polygon fill="white" stroke="none" points="-4,4 -4,-331 77.5293,-331 77.5293,4 -4,4"/>
<!-- Node1 -->
<g id="node1" class="node"><title>Node1</title>
<polygon fill="#bfbfbf" stroke="black" points="0,-0.5 0,-94.5 73.5293,-94.5 73.5293,-0.5 0,-0.5"/>
<text text-anchor="middle" x="36.7646" y="-82.5" font-family="Helvetica,sans-Serif" font-size="10.00">Condition</text>
<polyline fill="none" stroke="black" points="0,-76.5 73.5293,-76.5 "/>
<text text-anchor="middle" x="36.7646" y="-64.5" font-family="Helvetica,sans-Serif" font-size="10.00"> </text>
<polyline fill="none" stroke="black" points="0,-58.5 73.5293,-58.5 "/>
<text text-anchor="start" x="8" y="-46.5" font-family="Helvetica,sans-Serif" font-size="10.00">+ Condition()</text>
<text text-anchor="start" x="8" y="-36.5" font-family="Helvetica,sans-Serif" font-size="10.00">+ Condition()</text>
<text text-anchor="start" x="8" y="-26.5" font-family="Helvetica,sans-Serif" font-size="10.00">+ wait()</text>
<text text-anchor="start" x="8" y="-16.5" font-family="Helvetica,sans-Serif" font-size="10.00">+ notify()</text>
<text text-anchor="start" x="8" y="-6.5" font-family="Helvetica,sans-Serif" font-size="10.00">+ notifyAll()</text>
</g>
<!-- Node2 -->
<g id="node2" class="node"><title>Node2</title>
<g id="a_node2"><a xlink:href="../../d6/d83/classLock.html" target="_top" xlink:title="纤程锁对象 ">
<polygon fill="white" stroke="black" points="4.72656,-131.5 4.72656,-205.5 68.8027,-205.5 68.8027,-131.5 4.72656,-131.5"/>
<text text-anchor="middle" x="36.7646" y="-193.5" font-family="Helvetica,sans-Serif" font-size="10.00">Lock</text>
<polyline fill="none" stroke="black" points="4.72656,-187.5 68.8027,-187.5 "/>
<text text-anchor="middle" x="36.7646" y="-175.5" font-family="Helvetica,sans-Serif" font-size="10.00"> </text>
<polyline fill="none" stroke="black" points="4.72656,-169.5 68.8027,-169.5 "/>
<text text-anchor="start" x="12.7266" y="-157.5" font-family="Helvetica,sans-Serif" font-size="10.00">+ Lock()</text>
<text text-anchor="start" x="12.7266" y="-147.5" font-family="Helvetica,sans-Serif" font-size="10.00">+ acquire()</text>
<text text-anchor="start" x="12.7266" y="-137.5" font-family="Helvetica,sans-Serif" font-size="10.00">+ release()</text>
</a>
</g>
</g>
<!-- Node2&#45;&gt;Node1 -->
<g id="edge1" class="edge"><title>Node2&#45;&gt;Node1</title>
<path fill="none" stroke="midnightblue" d="M36.7646,-121.372C36.7646,-112.564 36.7646,-103.344 36.7646,-94.5391"/>
<polygon fill="none" stroke="midnightblue" points="33.2647,-121.473 36.7646,-131.473 40.2647,-121.473 33.2647,-121.473"/>
</g>
<!-- Node3 -->
<g id="node3" class="node"><title>Node3</title>
<g id="a_node3"><a xlink:href="../../dc/dd8/classobject.html" target="_top" xlink:title="基础对象，所有对象均继承于此 ">
<polygon fill="white" stroke="black" points="3.42773,-242.5 3.42773,-326.5 70.1016,-326.5 70.1016,-242.5 3.42773,-242.5"/>
<text text-anchor="middle" x="36.7646" y="-314.5" font-family="Helvetica,sans-Serif" font-size="10.00">object</text>
<polyline fill="none" stroke="black" points="3.42773,-308.5 70.1016,-308.5 "/>
<text text-anchor="middle" x="36.7646" y="-296.5" font-family="Helvetica,sans-Serif" font-size="10.00"> </text>
<polyline fill="none" stroke="black" points="3.42773,-290.5 70.1016,-290.5 "/>
<text text-anchor="start" x="11.4277" y="-278.5" font-family="Helvetica,sans-Serif" font-size="10.00">+ dispose()</text>
<text text-anchor="start" x="11.4277" y="-268.5" font-family="Helvetica,sans-Serif" font-size="10.00">+ toString()</text>
<text text-anchor="start" x="11.4277" y="-258.5" font-family="Helvetica,sans-Serif" font-size="10.00">+ toJSON()</text>
<text text-anchor="start" x="11.4277" y="-248.5" font-family="Helvetica,sans-Serif" font-size="10.00">+ ValueOf()</text>
</a>
</g>
</g>
<!-- Node3&#45;&gt;Node2 -->
<g id="edge2" class="edge"><title>Node3&#45;&gt;Node2</title>
<path fill="none" stroke="midnightblue" d="M36.7646,-232.328C36.7646,-223.341 36.7646,-214.159 36.7646,-205.688"/>
<polygon fill="none" stroke="midnightblue" points="33.2647,-232.343 36.7646,-242.343 40.2647,-232.343 33.2647,-232.343"/>
</g>
</g>
</svg>
