<?xml version="1.0" encoding="UTF-8" standalone="no"?>
<!DOCTYPE svg PUBLIC "-//W3C//DTD SVG 1.1//EN"
 "http://www.w3.org/Graphics/SVG/1.1/DTD/svg11.dtd">
<!-- Generated by graphviz version 2.38.0 (20140413.2041)
 -->
<!-- Title: Trigger Pages: 1 -->
<svg width="75pt" height="254pt"
 viewBox="0.00 0.00 74.67 254.00" xmlns="http://www.w3.org/2000/svg" xmlns:xlink="http://www.w3.org/1999/xlink">
<g id="graph0" class="graph" transform="scale(1 1) rotate(0) translate(4 250)">
<title>Trigger</title>
<polygon fill="white" stroke="none" points="-4,4 -4,-250 70.6738,-250 70.6738,4 -4,4"/>
<!-- Node1 -->
<g id="node1" class="node"><title>Node1</title>
<polygon fill="#bfbfbf" stroke="black" points="2.13135,-0.5 2.13135,-124.5 64.5425,-124.5 64.5425,-0.5 2.13135,-0.5"/>
<text text-anchor="middle" x="33.3369" y="-112.5" font-family="Helvetica,sans-Serif" font-size="10.00">Trigger</text>
<polyline fill="none" stroke="black" points="2.13135,-106.5 64.5425,-106.5 "/>
<text text-anchor="middle" x="33.3369" y="-94.5" font-family="Helvetica,sans-Serif" font-size="10.00"> </text>
<polyline fill="none" stroke="black" points="2.13135,-88.5 64.5425,-88.5 "/>
<text text-anchor="start" x="10.1313" y="-76.5" font-family="Helvetica,sans-Serif" font-size="10.00">+ Trigger()</text>
<text text-anchor="start" x="10.1313" y="-66.5" font-family="Helvetica,sans-Serif" font-size="10.00">+ on()</text>
<text text-anchor="start" x="10.1313" y="-56.5" font-family="Helvetica,sans-Serif" font-size="10.00">+ on()</text>
<text text-anchor="start" x="10.1313" y="-46.5" font-family="Helvetica,sans-Serif" font-size="10.00">+ once()</text>
<text text-anchor="start" x="10.1313" y="-36.5" font-family="Helvetica,sans-Serif" font-size="10.00">+ once()</text>
<text text-anchor="start" x="10.1313" y="-26.5" font-family="Helvetica,sans-Serif" font-size="10.00">+ off()</text>
<text text-anchor="start" x="10.1313" y="-16.5" font-family="Helvetica,sans-Serif" font-size="10.00">+ off()</text>
<text text-anchor="start" x="10.1313" y="-6.5" font-family="Helvetica,sans-Serif" font-size="10.00">+ trigger()</text>
</g>
<!-- Node2 -->
<g id="node2" class="node"><title>Node2</title>
<g id="a_node2"><a xlink:href="../../dc/dd8/classobject.html" target="_top" xlink:title="基础对象，所有对象均继承于此 ">
<polygon fill="white" stroke="black" points="0,-161.5 0,-245.5 66.6738,-245.5 66.6738,-161.5 0,-161.5"/>
<text text-anchor="middle" x="33.3369" y="-233.5" font-family="Helvetica,sans-Serif" font-size="10.00">object</text>
<polyline fill="none" stroke="black" points="0,-227.5 66.6738,-227.5 "/>
<text text-anchor="middle" x="33.3369" y="-215.5" font-family="Helvetica,sans-Serif" font-size="10.00"> </text>
<polyline fill="none" stroke="black" points="0,-209.5 66.6738,-209.5 "/>
<text text-anchor="start" x="8" y="-197.5" font-family="Helvetica,sans-Serif" font-size="10.00">+ dispose()</text>
<text text-anchor="start" x="8" y="-187.5" font-family="Helvetica,sans-Serif" font-size="10.00">+ toString()</text>
<text text-anchor="start" x="8" y="-177.5" font-family="Helvetica,sans-Serif" font-size="10.00">+ toJSON()</text>
<text text-anchor="start" x="8" y="-167.5" font-family="Helvetica,sans-Serif" font-size="10.00">+ ValueOf()</text>
</a>
</g>
</g>
<!-- Node2&#45;&gt;Node1 -->
<g id="edge1" class="edge"><title>Node2&#45;&gt;Node1</title>
<path fill="none" stroke="midnightblue" d="M33.3369,-150.979C33.3369,-142.432 33.3369,-133.497 33.3369,-124.738"/>
<polygon fill="none" stroke="midnightblue" points="29.837,-151.172 33.3369,-161.172 36.837,-151.172 29.837,-151.172"/>
</g>
</g>
</svg>
