<?xml version="1.0" encoding="UTF-8" standalone="no"?>
<!DOCTYPE svg PUBLIC "-//W3C//DTD SVG 1.1//EN"
 "http://www.w3.org/Graphics/SVG/1.1/DTD/svg11.dtd">
<!-- Generated by graphviz version 2.38.0 (20140413.2041)
 -->
<!-- Title: Lock Pages: 1 -->
<svg width="257pt" height="345pt"
 viewBox="0.00 0.00 257.25 345.00" xmlns="http://www.w3.org/2000/svg" xmlns:xlink="http://www.w3.org/1999/xlink">
<g id="graph0" class="graph" transform="scale(1 1) rotate(0) translate(4 341)">
<title>Lock</title>
<polygon fill="white" stroke="none" points="-4,4 -4,-341 253.253,-341 253.253,4 -4,4"/>
<!-- Node1 -->
<g id="node1" class="node"><title>Node1</title>
<polygon fill="#bfbfbf" stroke="black" points="87.7266,-141.5 87.7266,-215.5 151.803,-215.5 151.803,-141.5 87.7266,-141.5"/>
<text text-anchor="middle" x="119.765" y="-203.5" font-family="Helvetica,sans-Serif" font-size="10.00">Lock</text>
<polyline fill="none" stroke="black" points="87.7266,-197.5 151.803,-197.5 "/>
<text text-anchor="middle" x="119.765" y="-185.5" font-family="Helvetica,sans-Serif" font-size="10.00"> </text>
<polyline fill="none" stroke="black" points="87.7266,-179.5 151.803,-179.5 "/>
<text text-anchor="start" x="95.7266" y="-167.5" font-family="Helvetica,sans-Serif" font-size="10.00">+ Lock()</text>
<text text-anchor="start" x="95.7266" y="-157.5" font-family="Helvetica,sans-Serif" font-size="10.00">+ acquire()</text>
<text text-anchor="start" x="95.7266" y="-147.5" font-family="Helvetica,sans-Serif" font-size="10.00">+ release()</text>
</g>
<!-- Node3 -->
<g id="node3" class="node"><title>Node3</title>
<g id="a_node3"><a xlink:href="../../df/d5f/classCondition.html" target="_top" xlink:title="条件变量对象 ">
<polygon fill="white" stroke="black" points="0,-5.5 0,-99.5 73.5293,-99.5 73.5293,-5.5 0,-5.5"/>
<text text-anchor="middle" x="36.7646" y="-87.5" font-family="Helvetica,sans-Serif" font-size="10.00">Condition</text>
<polyline fill="none" stroke="black" points="0,-81.5 73.5293,-81.5 "/>
<text text-anchor="middle" x="36.7646" y="-69.5" font-family="Helvetica,sans-Serif" font-size="10.00"> </text>
<polyline fill="none" stroke="black" points="0,-63.5 73.5293,-63.5 "/>
<text text-anchor="start" x="8" y="-51.5" font-family="Helvetica,sans-Serif" font-size="10.00">+ Condition()</text>
<text text-anchor="start" x="8" y="-41.5" font-family="Helvetica,sans-Serif" font-size="10.00">+ Condition()</text>
<text text-anchor="start" x="8" y="-31.5" font-family="Helvetica,sans-Serif" font-size="10.00">+ wait()</text>
<text text-anchor="start" x="8" y="-21.5" font-family="Helvetica,sans-Serif" font-size="10.00">+ notify()</text>
<text text-anchor="start" x="8" y="-11.5" font-family="Helvetica,sans-Serif" font-size="10.00">+ notifyAll()</text>
</a>
</g>
</g>
<!-- Node1&#45;&gt;Node3 -->
<g id="edge2" class="edge"><title>Node1&#45;&gt;Node3</title>
<path fill="none" stroke="midnightblue" d="M89.8774,-132.849C82.6642,-122.073 74.9421,-110.536 67.6828,-99.6909"/>
<polygon fill="none" stroke="midnightblue" points="87.0634,-134.937 95.5345,-141.301 92.8806,-131.044 87.0634,-134.937"/>
</g>
<!-- Node4 -->
<g id="node4" class="node"><title>Node4</title>
<g id="a_node4"><a xlink:href="../../d5/da5/classEvent.html" target="_top" xlink:title="信号量对象 ">
<polygon fill="white" stroke="black" points="91.3398,-0.5 91.3398,-104.5 148.189,-104.5 148.189,-0.5 91.3398,-0.5"/>
<text text-anchor="middle" x="119.765" y="-92.5" font-family="Helvetica,sans-Serif" font-size="10.00">Event</text>
<polyline fill="none" stroke="black" points="91.3398,-86.5 148.189,-86.5 "/>
<text text-anchor="middle" x="119.765" y="-74.5" font-family="Helvetica,sans-Serif" font-size="10.00"> </text>
<polyline fill="none" stroke="black" points="91.3398,-68.5 148.189,-68.5 "/>
<text text-anchor="start" x="99.3398" y="-56.5" font-family="Helvetica,sans-Serif" font-size="10.00">+ Event()</text>
<text text-anchor="start" x="99.3398" y="-46.5" font-family="Helvetica,sans-Serif" font-size="10.00">+ isSet()</text>
<text text-anchor="start" x="99.3398" y="-36.5" font-family="Helvetica,sans-Serif" font-size="10.00">+ set()</text>
<text text-anchor="start" x="99.3398" y="-26.5" font-family="Helvetica,sans-Serif" font-size="10.00">+ pulse()</text>
<text text-anchor="start" x="99.3398" y="-16.5" font-family="Helvetica,sans-Serif" font-size="10.00">+ clear()</text>
<text text-anchor="start" x="99.3398" y="-6.5" font-family="Helvetica,sans-Serif" font-size="10.00">+ wait()</text>
</a>
</g>
</g>
<!-- Node1&#45;&gt;Node4 -->
<g id="edge3" class="edge"><title>Node1&#45;&gt;Node4</title>
<path fill="none" stroke="midnightblue" d="M119.765,-131.073C119.765,-122.475 119.765,-113.45 119.765,-104.719"/>
<polygon fill="none" stroke="midnightblue" points="116.265,-131.301 119.765,-141.301 123.265,-131.301 116.265,-131.301"/>
</g>
<!-- Node5 -->
<g id="node5" class="node"><title>Node5</title>
<g id="a_node5"><a xlink:href="../../d6/d72/classSemaphore.html" target="_top" xlink:title="纤程信号量对象 ">
<polygon fill="white" stroke="black" points="166.276,-10.5 166.276,-94.5 249.253,-94.5 249.253,-10.5 166.276,-10.5"/>
<text text-anchor="middle" x="207.765" y="-82.5" font-family="Helvetica,sans-Serif" font-size="10.00">Semaphore</text>
<polyline fill="none" stroke="black" points="166.276,-76.5 249.253,-76.5 "/>
<text text-anchor="middle" x="207.765" y="-64.5" font-family="Helvetica,sans-Serif" font-size="10.00"> </text>
<polyline fill="none" stroke="black" points="166.276,-58.5 249.253,-58.5 "/>
<text text-anchor="start" x="174.276" y="-46.5" font-family="Helvetica,sans-Serif" font-size="10.00">+ Semaphore()</text>
<text text-anchor="start" x="174.276" y="-36.5" font-family="Helvetica,sans-Serif" font-size="10.00">+ wait()</text>
<text text-anchor="start" x="174.276" y="-26.5" font-family="Helvetica,sans-Serif" font-size="10.00">+ post()</text>
<text text-anchor="start" x="174.276" y="-16.5" font-family="Helvetica,sans-Serif" font-size="10.00">+ trywait()</text>
</a>
</g>
</g>
<!-- Node1&#45;&gt;Node5 -->
<g id="edge4" class="edge"><title>Node1&#45;&gt;Node5</title>
<path fill="none" stroke="midnightblue" d="M151.43,-132.881C160.255,-120.445 169.801,-106.994 178.483,-94.7606"/>
<polygon fill="none" stroke="midnightblue" points="148.388,-131.12 145.454,-141.301 154.096,-135.171 148.388,-131.12"/>
</g>
<!-- Node2 -->
<g id="node2" class="node"><title>Node2</title>
<g id="a_node2"><a xlink:href="../../dc/dd8/classobject.html" target="_top" xlink:title="基础对象，所有对象均继承于此 ">
<polygon fill="white" stroke="black" points="86.6206,-252.5 86.6206,-336.5 152.909,-336.5 152.909,-252.5 86.6206,-252.5"/>
<text text-anchor="middle" x="119.765" y="-324.5" font-family="Helvetica,sans-Serif" font-size="10.00">object</text>
<polyline fill="none" stroke="black" points="86.6206,-318.5 152.909,-318.5 "/>
<text text-anchor="middle" x="119.765" y="-306.5" font-family="Helvetica,sans-Serif" font-size="10.00"> </text>
<polyline fill="none" stroke="black" points="86.6206,-300.5 152.909,-300.5 "/>
<text text-anchor="start" x="94.6206" y="-288.5" font-family="Helvetica,sans-Serif" font-size="10.00">+ dispose()</text>
<text text-anchor="start" x="94.6206" y="-278.5" font-family="Helvetica,sans-Serif" font-size="10.00">+ toString()</text>
<text text-anchor="start" x="94.6206" y="-268.5" font-family="Helvetica,sans-Serif" font-size="10.00">+ toJSON()</text>
<text text-anchor="start" x="94.6206" y="-258.5" font-family="Helvetica,sans-Serif" font-size="10.00">+ valueOf()</text>
</a>
</g>
</g>
<!-- Node2&#45;&gt;Node1 -->
<g id="edge1" class="edge"><title>Node2&#45;&gt;Node1</title>
<path fill="none" stroke="midnightblue" d="M119.765,-242.328C119.765,-233.341 119.765,-224.159 119.765,-215.688"/>
<polygon fill="none" stroke="midnightblue" points="116.265,-242.343 119.765,-252.343 123.265,-242.343 116.265,-242.343"/>
</g>
</g>
</svg>
