<?xml version="1.0" encoding="UTF-8" standalone="no"?>
<!DOCTYPE svg PUBLIC "-//W3C//DTD SVG 1.1//EN"
 "http://www.w3.org/Graphics/SVG/1.1/DTD/svg11.dtd">
<!-- Generated by graphviz version 2.38.0 (20140413.2041)
 -->
<!-- Title: Fiber Pages: 1 -->
<svg width="75pt" height="184pt"
 viewBox="0.00 0.00 74.67 184.00" xmlns="http://www.w3.org/2000/svg" xmlns:xlink="http://www.w3.org/1999/xlink">
<g id="graph0" class="graph" transform="scale(1 1) rotate(0) translate(4 180)">
<title>Fiber</title>
<polygon fill="white" stroke="none" points="-4,4 -4,-180 70.6738,-180 70.6738,4 -4,4"/>
<!-- Node1 -->
<g id="node1" class="node"><title>Node1</title>
<polygon fill="#bfbfbf" stroke="black" points="9.07959,-0.5 9.07959,-54.5 57.5942,-54.5 57.5942,-0.5 9.07959,-0.5"/>
<text text-anchor="middle" x="33.3369" y="-42.5" font-family="Helvetica,sans-Serif" font-size="10.00">Fiber</text>
<polyline fill="none" stroke="black" points="9.07959,-36.5 57.5942,-36.5 "/>
<text text-anchor="start" x="17.0796" y="-24.5" font-family="Helvetica,sans-Serif" font-size="10.00">+ caller</text>
<polyline fill="none" stroke="black" points="9.07959,-18.5 57.5942,-18.5 "/>
<text text-anchor="start" x="17.0796" y="-6.5" font-family="Helvetica,sans-Serif" font-size="10.00">+ join()</text>
</g>
<!-- Node2 -->
<g id="node2" class="node"><title>Node2</title>
<g id="a_node2"><a xlink:href="../../dc/dd8/classobject.html" target="_top" xlink:title="基础对象，所有对象均继承于此 ">
<polygon fill="white" stroke="black" points="0,-91.5 0,-175.5 66.6738,-175.5 66.6738,-91.5 0,-91.5"/>
<text text-anchor="middle" x="33.3369" y="-163.5" font-family="Helvetica,sans-Serif" font-size="10.00">object</text>
<polyline fill="none" stroke="black" points="0,-157.5 66.6738,-157.5 "/>
<text text-anchor="middle" x="33.3369" y="-145.5" font-family="Helvetica,sans-Serif" font-size="10.00"> </text>
<polyline fill="none" stroke="black" points="0,-139.5 66.6738,-139.5 "/>
<text text-anchor="start" x="8" y="-127.5" font-family="Helvetica,sans-Serif" font-size="10.00">+ dispose()</text>
<text text-anchor="start" x="8" y="-117.5" font-family="Helvetica,sans-Serif" font-size="10.00">+ toString()</text>
<text text-anchor="start" x="8" y="-107.5" font-family="Helvetica,sans-Serif" font-size="10.00">+ toJSON()</text>
<text text-anchor="start" x="8" y="-97.5" font-family="Helvetica,sans-Serif" font-size="10.00">+ ValueOf()</text>
</a>
</g>
</g>
<!-- Node2&#45;&gt;Node1 -->
<g id="edge1" class="edge"><title>Node2&#45;&gt;Node1</title>
<path fill="none" stroke="midnightblue" d="M33.3369,-81.1106C33.3369,-71.9368 33.3369,-62.7377 33.3369,-54.6555"/>
<polygon fill="none" stroke="midnightblue" points="29.837,-81.3964 33.3369,-91.3964 36.837,-81.3965 29.837,-81.3964"/>
</g>
</g>
</svg>
