<?xml version="1.0" encoding="UTF-8" standalone="no"?>
<!DOCTYPE svg PUBLIC "-//W3C//DTD SVG 1.1//EN"
 "http://www.w3.org/Graphics/SVG/1.1/DTD/svg11.dtd">
<!-- Generated by graphviz version 2.38.0 (20140413.2041)
 -->
<!-- Title: ssl Pages: 1 -->
<svg width="160pt" height="254pt"
 viewBox="0.00 0.00 159.68 254.00" xmlns="http://www.w3.org/2000/svg" xmlns:xlink="http://www.w3.org/1999/xlink">
<g id="graph0" class="graph" transform="scale(1 1) rotate(0) translate(4 250)">
<title>ssl</title>
<polygon fill="white" stroke="none" points="-4,4 -4,-250 155.679,-250 155.679,4 -4,4"/>
<!-- Node1 -->
<g id="node1" class="node"><title>Node1</title>
<polygon fill="#bfbfbf" stroke="black" points="0,-0.5 0,-154.5 151.679,-154.5 151.679,-0.5 0,-0.5"/>
<text text-anchor="middle" x="75.8394" y="-142.5" font-family="Helvetica,sans-Serif" font-size="10.00">ssl</text>
<polyline fill="none" stroke="black" points="0,-136.5 151.679,-136.5 "/>
<text text-anchor="start" x="8" y="-124.5" font-family="Helvetica,sans-Serif" font-size="10.00">+ VERIFY_NONE</text>
<text text-anchor="start" x="8" y="-114.5" font-family="Helvetica,sans-Serif" font-size="10.00">+ VERIFY_OPTIONAL</text>
<text text-anchor="start" x="8" y="-104.5" font-family="Helvetica,sans-Serif" font-size="10.00">+ VERIFY_REQUIRED</text>
<text text-anchor="start" x="8" y="-94.5" font-family="Helvetica,sans-Serif" font-size="10.00">+ BADCERT_EXPIRED</text>
<text text-anchor="start" x="8" y="-84.5" font-family="Helvetica,sans-Serif" font-size="10.00">+ BADCERT_REVOKED</text>
<text text-anchor="start" x="8" y="-74.5" font-family="Helvetica,sans-Serif" font-size="10.00">+ BADCERT_CN_MISMATCH</text>
<text text-anchor="start" x="8" y="-64.5" font-family="Helvetica,sans-Serif" font-size="10.00">+ BADCERT_NOT_TRUSTED</text>
<text text-anchor="start" x="8" y="-54.5" font-family="Helvetica,sans-Serif" font-size="10.00">+ ca</text>
<text text-anchor="start" x="8" y="-44.5" font-family="Helvetica,sans-Serif" font-size="10.00">+ verification</text>
<polyline fill="none" stroke="black" points="0,-38.5 151.679,-38.5 "/>
<text text-anchor="start" x="8" y="-26.5" font-family="Helvetica,sans-Serif" font-size="10.00">+ Socket()</text>
<text text-anchor="start" x="8" y="-16.5" font-family="Helvetica,sans-Serif" font-size="10.00">+ Handler()</text>
<text text-anchor="start" x="8" y="-6.5" font-family="Helvetica,sans-Serif" font-size="10.00">+ Server()</text>
</g>
<!-- Node2 -->
<g id="node2" class="node"><title>Node2</title>
<g id="a_node2"><a xlink:href="../../d0/dd3/classmodule.html" target="_top" xlink:title="基础模块对象，所有模块对象均继承于此 ">
<polygon fill="white" stroke="black" points="51.4404,-191.5 51.4404,-245.5 100.238,-245.5 100.238,-191.5 51.4404,-191.5"/>
<text text-anchor="middle" x="75.8394" y="-233.5" font-family="Helvetica,sans-Serif" font-size="10.00">module</text>
<polyline fill="none" stroke="black" points="51.4404,-227.5 100.238,-227.5 "/>
<text text-anchor="middle" x="75.8394" y="-215.5" font-family="Helvetica,sans-Serif" font-size="10.00"> </text>
<polyline fill="none" stroke="black" points="51.4404,-209.5 100.238,-209.5 "/>
<text text-anchor="middle" x="75.8394" y="-197.5" font-family="Helvetica,sans-Serif" font-size="10.00"> </text>
</a>
</g>
</g>
<!-- Node2&#45;&gt;Node1 -->
<g id="edge1" class="edge"><title>Node2&#45;&gt;Node1</title>
<path fill="none" stroke="midnightblue" d="M75.8394,-181.079C75.8394,-172.869 75.8394,-163.856 75.8394,-154.686"/>
<polygon fill="none" stroke="midnightblue" points="72.3395,-181.355 75.8394,-191.355 79.3395,-181.355 72.3395,-181.355"/>
</g>
</g>
</svg>
