<?xml version="1.0" encoding="UTF-8" standalone="no"?>
<!DOCTYPE svg PUBLIC "-//W3C//DTD SVG 1.1//EN"
 "http://www.w3.org/Graphics/SVG/1.1/DTD/svg11.dtd">
<!-- Generated by graphviz version 2.38.0 (20140413.2041)
 -->
<!-- Title: Regex Pages: 1 -->
<svg width="84pt" height="224pt"
 viewBox="0.00 0.00 83.76 224.00" xmlns="http://www.w3.org/2000/svg" xmlns:xlink="http://www.w3.org/1999/xlink">
<g id="graph0" class="graph" transform="scale(1 1) rotate(0) translate(4 220)">
<title>Regex</title>
<polygon fill="white" stroke="none" points="-4,4 -4,-220 79.7607,-220 79.7607,4 -4,4"/>
<!-- Node1 -->
<g id="node1" class="node"><title>Node1</title>
<polygon fill="#bfbfbf" stroke="black" points="0,-0.5 0,-94.5 75.7607,-94.5 75.7607,-0.5 0,-0.5"/>
<text text-anchor="middle" x="37.8804" y="-82.5" font-family="Helvetica,sans-Serif" font-size="10.00">Regex</text>
<polyline fill="none" stroke="black" points="0,-76.5 75.7607,-76.5 "/>
<text text-anchor="start" x="8" y="-64.5" font-family="Helvetica,sans-Serif" font-size="10.00">+ lastIndex</text>
<text text-anchor="start" x="8" y="-54.5" font-family="Helvetica,sans-Serif" font-size="10.00">+ global</text>
<text text-anchor="start" x="8" y="-44.5" font-family="Helvetica,sans-Serif" font-size="10.00">+ ignoreCase</text>
<text text-anchor="start" x="8" y="-34.5" font-family="Helvetica,sans-Serif" font-size="10.00">+ multiline</text>
<polyline fill="none" stroke="black" points="0,-28.5 75.7607,-28.5 "/>
<text text-anchor="start" x="8" y="-16.5" font-family="Helvetica,sans-Serif" font-size="10.00">+ exec()</text>
<text text-anchor="start" x="8" y="-6.5" font-family="Helvetica,sans-Serif" font-size="10.00">+ test()</text>
</g>
<!-- Node2 -->
<g id="node2" class="node"><title>Node2</title>
<g id="a_node2"><a xlink:href="../../dc/dd8/classobject.html" target="_top" xlink:title="基础对象，所有对象均继承于此 ">
<polygon fill="white" stroke="black" points="4.54346,-131.5 4.54346,-215.5 71.2173,-215.5 71.2173,-131.5 4.54346,-131.5"/>
<text text-anchor="middle" x="37.8804" y="-203.5" font-family="Helvetica,sans-Serif" font-size="10.00">object</text>
<polyline fill="none" stroke="black" points="4.54346,-197.5 71.2173,-197.5 "/>
<text text-anchor="middle" x="37.8804" y="-185.5" font-family="Helvetica,sans-Serif" font-size="10.00"> </text>
<polyline fill="none" stroke="black" points="4.54346,-179.5 71.2173,-179.5 "/>
<text text-anchor="start" x="12.5435" y="-167.5" font-family="Helvetica,sans-Serif" font-size="10.00">+ dispose()</text>
<text text-anchor="start" x="12.5435" y="-157.5" font-family="Helvetica,sans-Serif" font-size="10.00">+ toString()</text>
<text text-anchor="start" x="12.5435" y="-147.5" font-family="Helvetica,sans-Serif" font-size="10.00">+ toJSON()</text>
<text text-anchor="start" x="12.5435" y="-137.5" font-family="Helvetica,sans-Serif" font-size="10.00">+ ValueOf()</text>
</a>
</g>
</g>
<!-- Node2&#45;&gt;Node1 -->
<g id="edge1" class="edge"><title>Node2&#45;&gt;Node1</title>
<path fill="none" stroke="midnightblue" d="M37.8804,-121.122C37.8804,-112.378 37.8804,-103.343 37.8804,-94.7419"/>
<polygon fill="none" stroke="midnightblue" points="34.3805,-121.21 37.8804,-131.21 41.3805,-121.21 34.3805,-121.21"/>
</g>
</g>
</svg>
