<?xml version="1.0" encoding="UTF-8" standalone="no"?>
<!DOCTYPE svg PUBLIC "-//W3C//DTD SVG 1.1//EN"
 "http://www.w3.org/Graphics/SVG/1.1/DTD/svg11.dtd">
<!-- Generated by graphviz version 2.38.0 (20140413.2041)
 -->
<!-- Title: Digest Pages: 1 -->
<svg width="74pt" height="204pt"
 viewBox="0.00 0.00 74.29 204.00" xmlns="http://www.w3.org/2000/svg" xmlns:xlink="http://www.w3.org/1999/xlink">
<g id="graph0" class="graph" transform="scale(1 1) rotate(0) translate(4 200)">
<title>Digest</title>
<polygon fill="white" stroke="none" points="-4,4 -4,-200 70.2881,-200 70.2881,4 -4,4"/>
<!-- Node1 -->
<g id="node1" class="node"><title>Node1</title>
<polygon fill="#bfbfbf" stroke="black" points="2.21191,-0.5 2.21191,-74.5 64.0762,-74.5 64.0762,-0.5 2.21191,-0.5"/>
<text text-anchor="middle" x="33.144" y="-62.5" font-family="Helvetica,sans-Serif" font-size="10.00">Digest</text>
<polyline fill="none" stroke="black" points="2.21191,-56.5 64.0762,-56.5 "/>
<text text-anchor="start" x="10.2119" y="-44.5" font-family="Helvetica,sans-Serif" font-size="10.00">+ size</text>
<polyline fill="none" stroke="black" points="2.21191,-38.5 64.0762,-38.5 "/>
<text text-anchor="start" x="10.2119" y="-26.5" font-family="Helvetica,sans-Serif" font-size="10.00">+ update()</text>
<text text-anchor="start" x="10.2119" y="-16.5" font-family="Helvetica,sans-Serif" font-size="10.00">+ digest()</text>
<text text-anchor="start" x="10.2119" y="-6.5" font-family="Helvetica,sans-Serif" font-size="10.00">+ digest()</text>
</g>
<!-- Node2 -->
<g id="node2" class="node"><title>Node2</title>
<g id="a_node2"><a xlink:href="../../dc/dd8/classobject.html" target="_top" xlink:title="基础对象，所有对象均继承于此 ">
<polygon fill="white" stroke="black" points="0,-111.5 0,-195.5 66.2881,-195.5 66.2881,-111.5 0,-111.5"/>
<text text-anchor="middle" x="33.144" y="-183.5" font-family="Helvetica,sans-Serif" font-size="10.00">object</text>
<polyline fill="none" stroke="black" points="0,-177.5 66.2881,-177.5 "/>
<text text-anchor="middle" x="33.144" y="-165.5" font-family="Helvetica,sans-Serif" font-size="10.00"> </text>
<polyline fill="none" stroke="black" points="0,-159.5 66.2881,-159.5 "/>
<text text-anchor="start" x="8" y="-147.5" font-family="Helvetica,sans-Serif" font-size="10.00">+ dispose()</text>
<text text-anchor="start" x="8" y="-137.5" font-family="Helvetica,sans-Serif" font-size="10.00">+ toString()</text>
<text text-anchor="start" x="8" y="-127.5" font-family="Helvetica,sans-Serif" font-size="10.00">+ toJSON()</text>
<text text-anchor="start" x="8" y="-117.5" font-family="Helvetica,sans-Serif" font-size="10.00">+ valueOf()</text>
</a>
</g>
</g>
<!-- Node2&#45;&gt;Node1 -->
<g id="edge1" class="edge"><title>Node2&#45;&gt;Node1</title>
<path fill="none" stroke="midnightblue" d="M33.144,-101.328C33.144,-92.3412 33.144,-83.159 33.144,-74.6878"/>
<polygon fill="none" stroke="midnightblue" points="29.6441,-101.343 33.144,-111.343 36.6441,-101.343 29.6441,-101.343"/>
</g>
</g>
</svg>
