<?xml version="1.0" encoding="UTF-8" standalone="no"?>
<!DOCTYPE svg PUBLIC "-//W3C//DTD SVG 1.1//EN"
 "http://www.w3.org/Graphics/SVG/1.1/DTD/svg11.dtd">
<!-- Generated by graphviz version 2.38.0 (20140413.2041)
 -->
<!-- Title: Digest Pages: 1 -->
<svg width="75pt" height="214pt"
 viewBox="0.00 0.00 74.67 214.00" xmlns="http://www.w3.org/2000/svg" xmlns:xlink="http://www.w3.org/1999/xlink">
<g id="graph0" class="graph" transform="scale(1 1) rotate(0) translate(4 210)">
<title>Digest</title>
<polygon fill="white" stroke="none" points="-4,4 -4,-210 70.6738,-210 70.6738,4 -4,4"/>
<!-- Node1 -->
<g id="node1" class="node"><title>Node1</title>
<polygon fill="#bfbfbf" stroke="black" points="2.40479,-0.5 2.40479,-84.5 64.269,-84.5 64.269,-0.5 2.40479,-0.5"/>
<text text-anchor="middle" x="33.3369" y="-72.5" font-family="Helvetica,sans-Serif" font-size="10.00">Digest</text>
<polyline fill="none" stroke="black" points="2.40479,-66.5 64.269,-66.5 "/>
<text text-anchor="start" x="10.4048" y="-54.5" font-family="Helvetica,sans-Serif" font-size="10.00">+ size</text>
<polyline fill="none" stroke="black" points="2.40479,-48.5 64.269,-48.5 "/>
<text text-anchor="start" x="10.4048" y="-36.5" font-family="Helvetica,sans-Serif" font-size="10.00">+ update()</text>
<text text-anchor="start" x="10.4048" y="-26.5" font-family="Helvetica,sans-Serif" font-size="10.00">+ update()</text>
<text text-anchor="start" x="10.4048" y="-16.5" font-family="Helvetica,sans-Serif" font-size="10.00">+ digest()</text>
<text text-anchor="start" x="10.4048" y="-6.5" font-family="Helvetica,sans-Serif" font-size="10.00">+ digest()</text>
</g>
<!-- Node2 -->
<g id="node2" class="node"><title>Node2</title>
<g id="a_node2"><a xlink:href="../../dc/dd8/classobject.html" target="_top" xlink:title="基础对象，所有对象均继承于此 ">
<polygon fill="white" stroke="black" points="0,-121.5 0,-205.5 66.6738,-205.5 66.6738,-121.5 0,-121.5"/>
<text text-anchor="middle" x="33.3369" y="-193.5" font-family="Helvetica,sans-Serif" font-size="10.00">object</text>
<polyline fill="none" stroke="black" points="0,-187.5 66.6738,-187.5 "/>
<text text-anchor="middle" x="33.3369" y="-175.5" font-family="Helvetica,sans-Serif" font-size="10.00"> </text>
<polyline fill="none" stroke="black" points="0,-169.5 66.6738,-169.5 "/>
<text text-anchor="start" x="8" y="-157.5" font-family="Helvetica,sans-Serif" font-size="10.00">+ dispose()</text>
<text text-anchor="start" x="8" y="-147.5" font-family="Helvetica,sans-Serif" font-size="10.00">+ toString()</text>
<text text-anchor="start" x="8" y="-137.5" font-family="Helvetica,sans-Serif" font-size="10.00">+ toJSON()</text>
<text text-anchor="start" x="8" y="-127.5" font-family="Helvetica,sans-Serif" font-size="10.00">+ ValueOf()</text>
</a>
</g>
</g>
<!-- Node2&#45;&gt;Node1 -->
<g id="edge1" class="edge"><title>Node2&#45;&gt;Node1</title>
<path fill="none" stroke="midnightblue" d="M33.3369,-111.041C33.3369,-102.241 33.3369,-93.2021 33.3369,-84.7135"/>
<polygon fill="none" stroke="midnightblue" points="29.837,-111.214 33.3369,-121.214 36.837,-111.214 29.837,-111.214"/>
</g>
</g>
</svg>
