<?xml version="1.0" encoding="UTF-8" standalone="no"?>
<!DOCTYPE svg PUBLIC "-//W3C//DTD SVG 1.1//EN"
 "http://www.w3.org/Graphics/SVG/1.1/DTD/svg11.dtd">
<!-- Generated by graphviz version 2.38.0 (20140413.2041)
 -->
<!-- Title: Chain Pages: 1 -->
<svg width="75pt" height="295pt"
 viewBox="0.00 0.00 74.67 295.00" xmlns="http://www.w3.org/2000/svg" xmlns:xlink="http://www.w3.org/1999/xlink">
<g id="graph0" class="graph" transform="scale(1 1) rotate(0) translate(4 291)">
<title>Chain</title>
<polygon fill="white" stroke="none" points="-4,4 -4,-291 70.6738,-291 70.6738,4 -4,4"/>
<!-- Node1 -->
<g id="node1" class="node"><title>Node1</title>
<polygon fill="#bfbfbf" stroke="black" points="1.01318,-0.5 1.01318,-74.5 65.6606,-74.5 65.6606,-0.5 1.01318,-0.5"/>
<text text-anchor="middle" x="33.3369" y="-62.5" font-family="Helvetica,sans-Serif" font-size="10.00">Chain</text>
<polyline fill="none" stroke="black" points="1.01318,-56.5 65.6606,-56.5 "/>
<text text-anchor="middle" x="33.3369" y="-44.5" font-family="Helvetica,sans-Serif" font-size="10.00"> </text>
<polyline fill="none" stroke="black" points="1.01318,-38.5 65.6606,-38.5 "/>
<text text-anchor="start" x="9.01318" y="-26.5" font-family="Helvetica,sans-Serif" font-size="10.00">+ Chain()</text>
<text text-anchor="start" x="9.01318" y="-16.5" font-family="Helvetica,sans-Serif" font-size="10.00">+ append()</text>
<text text-anchor="start" x="9.01318" y="-6.5" font-family="Helvetica,sans-Serif" font-size="10.00">+ append()</text>
</g>
<!-- Node2 -->
<g id="node2" class="node"><title>Node2</title>
<g id="a_node2"><a xlink:href="../../d4/d22/classHandler.html" target="_top" xlink:title="消息处理器接口 ">
<polygon fill="white" stroke="black" points="3.24463,-111.5 3.24463,-165.5 63.4292,-165.5 63.4292,-111.5 3.24463,-111.5"/>
<text text-anchor="middle" x="33.3369" y="-153.5" font-family="Helvetica,sans-Serif" font-size="10.00">Handler</text>
<polyline fill="none" stroke="black" points="3.24463,-147.5 63.4292,-147.5 "/>
<text text-anchor="middle" x="33.3369" y="-135.5" font-family="Helvetica,sans-Serif" font-size="10.00"> </text>
<polyline fill="none" stroke="black" points="3.24463,-129.5 63.4292,-129.5 "/>
<text text-anchor="start" x="11.2446" y="-117.5" font-family="Helvetica,sans-Serif" font-size="10.00">+ invoke()</text>
</a>
</g>
</g>
<!-- Node2&#45;&gt;Node1 -->
<g id="edge1" class="edge"><title>Node2&#45;&gt;Node1</title>
<path fill="none" stroke="midnightblue" d="M33.3369,-101.304C33.3369,-92.6514 33.3369,-83.4132 33.3369,-74.7579"/>
<polygon fill="none" stroke="midnightblue" points="29.837,-101.489 33.3369,-111.489 36.837,-101.489 29.837,-101.489"/>
</g>
<!-- Node3 -->
<g id="node3" class="node"><title>Node3</title>
<g id="a_node3"><a xlink:href="../../dc/dd8/classobject.html" target="_top" xlink:title="基础对象，所有对象均继承于此 ">
<polygon fill="white" stroke="black" points="0,-202.5 0,-286.5 66.6738,-286.5 66.6738,-202.5 0,-202.5"/>
<text text-anchor="middle" x="33.3369" y="-274.5" font-family="Helvetica,sans-Serif" font-size="10.00">object</text>
<polyline fill="none" stroke="black" points="0,-268.5 66.6738,-268.5 "/>
<text text-anchor="middle" x="33.3369" y="-256.5" font-family="Helvetica,sans-Serif" font-size="10.00"> </text>
<polyline fill="none" stroke="black" points="0,-250.5 66.6738,-250.5 "/>
<text text-anchor="start" x="8" y="-238.5" font-family="Helvetica,sans-Serif" font-size="10.00">+ dispose()</text>
<text text-anchor="start" x="8" y="-228.5" font-family="Helvetica,sans-Serif" font-size="10.00">+ toString()</text>
<text text-anchor="start" x="8" y="-218.5" font-family="Helvetica,sans-Serif" font-size="10.00">+ toJSON()</text>
<text text-anchor="start" x="8" y="-208.5" font-family="Helvetica,sans-Serif" font-size="10.00">+ ValueOf()</text>
</a>
</g>
</g>
<!-- Node3&#45;&gt;Node2 -->
<g id="edge2" class="edge"><title>Node3&#45;&gt;Node2</title>
<path fill="none" stroke="midnightblue" d="M33.3369,-192.111C33.3369,-182.937 33.3369,-173.738 33.3369,-165.655"/>
<polygon fill="none" stroke="midnightblue" points="29.837,-192.396 33.3369,-202.396 36.837,-192.396 29.837,-192.396"/>
</g>
</g>
</svg>
