<?xml version="1.0" encoding="UTF-8" standalone="no"?>
<!DOCTYPE svg PUBLIC "-//W3C//DTD SVG 1.1//EN"
 "http://www.w3.org/Graphics/SVG/1.1/DTD/svg11.dtd">
<!-- Generated by graphviz version 2.38.0 (20140413.2041)
 -->
<!-- Title: X509Crl Pages: 1 -->
<svg width="75pt" height="234pt"
 viewBox="0.00 0.00 75.41 234.00" xmlns="http://www.w3.org/2000/svg" xmlns:xlink="http://www.w3.org/1999/xlink">
<g id="graph0" class="graph" transform="scale(1 1) rotate(0) translate(4 230)">
<title>X509Crl</title>
<polygon fill="white" stroke="none" points="-4,4 -4,-230 71.4062,-230 71.4062,4 -4,4"/>
<!-- Node1 -->
<g id="node1" class="node"><title>Node1</title>
<polygon fill="#bfbfbf" stroke="black" points="0,-0.5 0,-104.5 67.4062,-104.5 67.4062,-0.5 0,-0.5"/>
<text text-anchor="middle" x="33.7031" y="-92.5" font-family="Helvetica,sans-Serif" font-size="10.00">X509Crl</text>
<polyline fill="none" stroke="black" points="0,-86.5 67.4062,-86.5 "/>
<text text-anchor="middle" x="33.7031" y="-74.5" font-family="Helvetica,sans-Serif" font-size="10.00"> </text>
<polyline fill="none" stroke="black" points="0,-68.5 67.4062,-68.5 "/>
<text text-anchor="start" x="8" y="-56.5" font-family="Helvetica,sans-Serif" font-size="10.00">+ X509Crl()</text>
<text text-anchor="start" x="8" y="-46.5" font-family="Helvetica,sans-Serif" font-size="10.00">+ load()</text>
<text text-anchor="start" x="8" y="-36.5" font-family="Helvetica,sans-Serif" font-size="10.00">+ load()</text>
<text text-anchor="start" x="8" y="-26.5" font-family="Helvetica,sans-Serif" font-size="10.00">+ loadFile()</text>
<text text-anchor="start" x="8" y="-16.5" font-family="Helvetica,sans-Serif" font-size="10.00">+ dump()</text>
<text text-anchor="start" x="8" y="-6.5" font-family="Helvetica,sans-Serif" font-size="10.00">+ clear()</text>
</g>
<!-- Node2 -->
<g id="node2" class="node"><title>Node2</title>
<g id="a_node2"><a xlink:href="../../dc/dd8/classobject.html" target="_top" xlink:title="基础对象，所有对象均继承于此 ">
<polygon fill="white" stroke="black" points="0.559082,-141.5 0.559082,-225.5 66.8472,-225.5 66.8472,-141.5 0.559082,-141.5"/>
<text text-anchor="middle" x="33.7031" y="-213.5" font-family="Helvetica,sans-Serif" font-size="10.00">object</text>
<polyline fill="none" stroke="black" points="0.559082,-207.5 66.8472,-207.5 "/>
<text text-anchor="middle" x="33.7031" y="-195.5" font-family="Helvetica,sans-Serif" font-size="10.00"> </text>
<polyline fill="none" stroke="black" points="0.559082,-189.5 66.8472,-189.5 "/>
<text text-anchor="start" x="8.55908" y="-177.5" font-family="Helvetica,sans-Serif" font-size="10.00">+ dispose()</text>
<text text-anchor="start" x="8.55908" y="-167.5" font-family="Helvetica,sans-Serif" font-size="10.00">+ toString()</text>
<text text-anchor="start" x="8.55908" y="-157.5" font-family="Helvetica,sans-Serif" font-size="10.00">+ toJSON()</text>
<text text-anchor="start" x="8.55908" y="-147.5" font-family="Helvetica,sans-Serif" font-size="10.00">+ valueOf()</text>
</a>
</g>
</g>
<!-- Node2&#45;&gt;Node1 -->
<g id="edge1" class="edge"><title>Node2&#45;&gt;Node1</title>
<path fill="none" stroke="midnightblue" d="M33.7031,-131.261C33.7031,-122.517 33.7031,-113.434 33.7031,-104.691"/>
<polygon fill="none" stroke="midnightblue" points="30.2032,-131.329 33.7031,-141.329 37.2032,-131.329 30.2032,-131.329"/>
</g>
</g>
</svg>
