<?xml version="1.0" encoding="UTF-8" standalone="no"?>
<!DOCTYPE svg PUBLIC "-//W3C//DTD SVG 1.1//EN"
 "http://www.w3.org/Graphics/SVG/1.1/DTD/svg11.dtd">
<!-- Generated by graphviz version 2.38.0 (20140413.2041)
 -->
<!-- Title: db Pages: 1 -->
<svg width="106pt" height="214pt"
 viewBox="0.00 0.00 105.99 214.00" xmlns="http://www.w3.org/2000/svg" xmlns:xlink="http://www.w3.org/1999/xlink">
<g id="graph0" class="graph" transform="scale(1 1) rotate(0) translate(4 210)">
<title>db</title>
<polygon fill="white" stroke="none" points="-4,4 -4,-210 101.992,-210 101.992,4 -4,4"/>
<!-- Node1 -->
<g id="node1" class="node"><title>Node1</title>
<polygon fill="#bfbfbf" stroke="black" points="0,-0.5 0,-114.5 97.9922,-114.5 97.9922,-0.5 0,-0.5"/>
<text text-anchor="middle" x="48.9961" y="-102.5" font-family="Helvetica,sans-Serif" font-size="10.00">db</text>
<polyline fill="none" stroke="black" points="0,-96.5 97.9922,-96.5 "/>
<text text-anchor="middle" x="48.9961" y="-84.5" font-family="Helvetica,sans-Serif" font-size="10.00"> </text>
<polyline fill="none" stroke="black" points="0,-78.5 97.9922,-78.5 "/>
<text text-anchor="start" x="8" y="-66.5" font-family="Helvetica,sans-Serif" font-size="10.00">+ open()</text>
<text text-anchor="start" x="8" y="-56.5" font-family="Helvetica,sans-Serif" font-size="10.00">+ openMySQL()</text>
<text text-anchor="start" x="8" y="-46.5" font-family="Helvetica,sans-Serif" font-size="10.00">+ openSQLite()</text>
<text text-anchor="start" x="8" y="-36.5" font-family="Helvetica,sans-Serif" font-size="10.00">+ openMongoDB()</text>
<text text-anchor="start" x="8" y="-26.5" font-family="Helvetica,sans-Serif" font-size="10.00">+ format()</text>
<text text-anchor="start" x="8" y="-16.5" font-family="Helvetica,sans-Serif" font-size="10.00">+ formatMySQL()</text>
<text text-anchor="start" x="8" y="-6.5" font-family="Helvetica,sans-Serif" font-size="10.00">+ escape()</text>
</g>
<!-- Node2 -->
<g id="node2" class="node"><title>Node2</title>
<g id="a_node2"><a xlink:href="../../d0/dd3/classmodule.html" target="_top" xlink:title="基础模块对象，所有模块对象均继承于此 ">
<polygon fill="white" stroke="black" points="24.5972,-151.5 24.5972,-205.5 73.395,-205.5 73.395,-151.5 24.5972,-151.5"/>
<text text-anchor="middle" x="48.9961" y="-193.5" font-family="Helvetica,sans-Serif" font-size="10.00">module</text>
<polyline fill="none" stroke="black" points="24.5972,-187.5 73.395,-187.5 "/>
<text text-anchor="middle" x="48.9961" y="-175.5" font-family="Helvetica,sans-Serif" font-size="10.00"> </text>
<polyline fill="none" stroke="black" points="24.5972,-169.5 73.395,-169.5 "/>
<text text-anchor="middle" x="48.9961" y="-157.5" font-family="Helvetica,sans-Serif" font-size="10.00"> </text>
</a>
</g>
</g>
<!-- Node2&#45;&gt;Node1 -->
<g id="edge1" class="edge"><title>Node2&#45;&gt;Node1</title>
<path fill="none" stroke="midnightblue" d="M48.9961,-141.245C48.9961,-132.883 48.9961,-123.795 48.9961,-114.805"/>
<polygon fill="none" stroke="midnightblue" points="45.4962,-141.385 48.9961,-151.385 52.4962,-141.385 45.4962,-141.385"/>
</g>
</g>
</svg>
