<?xml version="1.0" encoding="UTF-8" standalone="no"?>
<!DOCTYPE svg PUBLIC "-//W3C//DTD SVG 1.1//EN"
 "http://www.w3.org/Graphics/SVG/1.1/DTD/svg11.dtd">
<!-- Generated by graphviz version 2.38.0 (20140413.2041)
 -->
<!-- Title: db Pages: 1 -->
<svg width="106pt" height="224pt"
 viewBox="0.00 0.00 105.99 224.00" xmlns="http://www.w3.org/2000/svg" xmlns:xlink="http://www.w3.org/1999/xlink">
<g id="graph0" class="graph" transform="scale(1 1) rotate(0) translate(4 220)">
<title>db</title>
<polygon fill="white" stroke="none" points="-4,4 -4,-220 101.992,-220 101.992,4 -4,4"/>
<!-- Node1 -->
<g id="node1" class="node"><title>Node1</title>
<polygon fill="#bfbfbf" stroke="black" points="0,-0.5 0,-124.5 97.9922,-124.5 97.9922,-0.5 0,-0.5"/>
<text text-anchor="middle" x="48.9961" y="-112.5" font-family="Helvetica,sans-Serif" font-size="10.00">db</text>
<polyline fill="none" stroke="black" points="0,-106.5 97.9922,-106.5 "/>
<text text-anchor="middle" x="48.9961" y="-94.5" font-family="Helvetica,sans-Serif" font-size="10.00"> </text>
<polyline fill="none" stroke="black" points="0,-88.5 97.9922,-88.5 "/>
<text text-anchor="start" x="8" y="-76.5" font-family="Helvetica,sans-Serif" font-size="10.00">+ open()</text>
<text text-anchor="start" x="8" y="-66.5" font-family="Helvetica,sans-Serif" font-size="10.00">+ openMySQL()</text>
<text text-anchor="start" x="8" y="-56.5" font-family="Helvetica,sans-Serif" font-size="10.00">+ openSQLite()</text>
<text text-anchor="start" x="8" y="-46.5" font-family="Helvetica,sans-Serif" font-size="10.00">+ openMongoDB()</text>
<text text-anchor="start" x="8" y="-36.5" font-family="Helvetica,sans-Serif" font-size="10.00">+ openLevelDB()</text>
<text text-anchor="start" x="8" y="-26.5" font-family="Helvetica,sans-Serif" font-size="10.00">+ format()</text>
<text text-anchor="start" x="8" y="-16.5" font-family="Helvetica,sans-Serif" font-size="10.00">+ formatMySQL()</text>
<text text-anchor="start" x="8" y="-6.5" font-family="Helvetica,sans-Serif" font-size="10.00">+ escape()</text>
</g>
<!-- Node2 -->
<g id="node2" class="node"><title>Node2</title>
<g id="a_node2"><a xlink:href="../../d0/dd3/classmodule.html" target="_top" xlink:title="基础模块对象，所有模块对象均继承于此 ">
<polygon fill="white" stroke="black" points="24.5972,-161.5 24.5972,-215.5 73.395,-215.5 73.395,-161.5 24.5972,-161.5"/>
<text text-anchor="middle" x="48.9961" y="-203.5" font-family="Helvetica,sans-Serif" font-size="10.00">module</text>
<polyline fill="none" stroke="black" points="24.5972,-197.5 73.395,-197.5 "/>
<text text-anchor="middle" x="48.9961" y="-185.5" font-family="Helvetica,sans-Serif" font-size="10.00"> </text>
<polyline fill="none" stroke="black" points="24.5972,-179.5 73.395,-179.5 "/>
<text text-anchor="middle" x="48.9961" y="-167.5" font-family="Helvetica,sans-Serif" font-size="10.00"> </text>
</a>
</g>
</g>
<!-- Node2&#45;&gt;Node1 -->
<g id="edge1" class="edge"><title>Node2&#45;&gt;Node1</title>
<path fill="none" stroke="midnightblue" d="M48.9961,-151.127C48.9961,-142.812 48.9961,-133.75 48.9961,-124.711"/>
<polygon fill="none" stroke="midnightblue" points="45.4962,-151.203 48.9961,-161.203 52.4962,-151.203 45.4962,-151.203"/>
</g>
</g>
</svg>
