<?xml version="1.0" encoding="UTF-8" standalone="no"?>
<!DOCTYPE svg PUBLIC "-//W3C//DTD SVG 1.1//EN"
 "http://www.w3.org/Graphics/SVG/1.1/DTD/svg11.dtd">
<!-- Generated by graphviz version 2.38.0 (20140413.2041)
 -->
<!-- Title: process Pages: 1 -->
<svg width="104pt" height="194pt"
 viewBox="0.00 0.00 104.30 194.00" xmlns="http://www.w3.org/2000/svg" xmlns:xlink="http://www.w3.org/1999/xlink">
<g id="graph0" class="graph" transform="scale(1 1) rotate(0) translate(4 190)">
<title>process</title>
<polygon fill="white" stroke="none" points="-4,4 -4,-190 100.298,-190 100.298,4 -4,4"/>
<!-- Node1 -->
<g id="node1" class="node"><title>Node1</title>
<polygon fill="#bfbfbf" stroke="black" points="0,-0.5 0,-94.5 96.2979,-94.5 96.2979,-0.5 0,-0.5"/>
<text text-anchor="middle" x="48.1489" y="-82.5" font-family="Helvetica,sans-Serif" font-size="10.00">process</text>
<polyline fill="none" stroke="black" points="0,-76.5 96.2979,-76.5 "/>
<text text-anchor="start" x="8" y="-64.5" font-family="Helvetica,sans-Serif" font-size="10.00">+ argv</text>
<text text-anchor="start" x="8" y="-54.5" font-family="Helvetica,sans-Serif" font-size="10.00">+ execPath</text>
<polyline fill="none" stroke="black" points="0,-48.5 96.2979,-48.5 "/>
<text text-anchor="start" x="8" y="-36.5" font-family="Helvetica,sans-Serif" font-size="10.00">+ exit()</text>
<text text-anchor="start" x="8" y="-26.5" font-family="Helvetica,sans-Serif" font-size="10.00">+ memoryUsage()</text>
<text text-anchor="start" x="8" y="-16.5" font-family="Helvetica,sans-Serif" font-size="10.00">+ system()</text>
<text text-anchor="start" x="8" y="-6.5" font-family="Helvetica,sans-Serif" font-size="10.00">+ exec()</text>
</g>
<!-- Node2 -->
<g id="node2" class="node"><title>Node2</title>
<g id="a_node2"><a xlink:href="../../d0/dd3/classmodule.html" target="_top" xlink:title="基础模块对象，所有模块对象均继承于此 ">
<polygon fill="white" stroke="black" points="23.75,-131.5 23.75,-185.5 72.5479,-185.5 72.5479,-131.5 23.75,-131.5"/>
<text text-anchor="middle" x="48.1489" y="-173.5" font-family="Helvetica,sans-Serif" font-size="10.00">module</text>
<polyline fill="none" stroke="black" points="23.75,-167.5 72.5479,-167.5 "/>
<text text-anchor="middle" x="48.1489" y="-155.5" font-family="Helvetica,sans-Serif" font-size="10.00"> </text>
<polyline fill="none" stroke="black" points="23.75,-149.5 72.5479,-149.5 "/>
<text text-anchor="middle" x="48.1489" y="-137.5" font-family="Helvetica,sans-Serif" font-size="10.00"> </text>
</a>
</g>
</g>
<!-- Node2&#45;&gt;Node1 -->
<g id="edge1" class="edge"><title>Node2&#45;&gt;Node1</title>
<path fill="none" stroke="midnightblue" d="M48.1489,-121.141C48.1489,-112.716 48.1489,-103.639 48.1489,-94.8505"/>
<polygon fill="none" stroke="midnightblue" points="44.649,-121.392 48.1489,-131.392 51.649,-121.392 44.649,-121.392"/>
</g>
</g>
</svg>
