<?xml version="1.0" encoding="UTF-8" standalone="no"?>
<!DOCTYPE svg PUBLIC "-//W3C//DTD SVG 1.1//EN"
 "http://www.w3.org/Graphics/SVG/1.1/DTD/svg11.dtd">
<!-- Generated by graphviz version 2.38.0 (20140413.2041)
 -->
<!-- Title: utils Pages: 1 -->
<svg width="83pt" height="174pt"
 viewBox="0.00 0.00 82.64 174.00" xmlns="http://www.w3.org/2000/svg" xmlns:xlink="http://www.w3.org/1999/xlink">
<g id="graph0" class="graph" transform="scale(1 1) rotate(0) translate(4 170)">
<title>utils</title>
<polygon fill="white" stroke="none" points="-4,4 -4,-170 78.6377,-170 78.6377,4 -4,4"/>
<!-- Node1 -->
<g id="node1" class="node"><title>Node1</title>
<polygon fill="#bfbfbf" stroke="black" points="0,-0.5 0,-74.5 74.6377,-74.5 74.6377,-0.5 0,-0.5"/>
<text text-anchor="middle" x="37.3188" y="-62.5" font-family="Helvetica,sans-Serif" font-size="10.00">utils</text>
<polyline fill="none" stroke="black" points="0,-56.5 74.6377,-56.5 "/>
<text text-anchor="middle" x="37.3188" y="-44.5" font-family="Helvetica,sans-Serif" font-size="10.00"> </text>
<polyline fill="none" stroke="black" points="0,-38.5 74.6377,-38.5 "/>
<text text-anchor="start" x="8" y="-26.5" font-family="Helvetica,sans-Serif" font-size="10.00">+ Stats()</text>
<text text-anchor="start" x="8" y="-16.5" font-family="Helvetica,sans-Serif" font-size="10.00">+ LruCache()</text>
<text text-anchor="start" x="8" y="-6.5" font-family="Helvetica,sans-Serif" font-size="10.00">+ buildInfo()</text>
</g>
<!-- Node2 -->
<g id="node2" class="node"><title>Node2</title>
<g id="a_node2"><a xlink:href="../../d0/dd3/classmodule.html" target="_top" xlink:title="基础模块对象，所有模块对象均继承于此 ">
<polygon fill="white" stroke="black" points="12.9199,-111.5 12.9199,-165.5 61.7178,-165.5 61.7178,-111.5 12.9199,-111.5"/>
<text text-anchor="middle" x="37.3188" y="-153.5" font-family="Helvetica,sans-Serif" font-size="10.00">module</text>
<polyline fill="none" stroke="black" points="12.9199,-147.5 61.7178,-147.5 "/>
<text text-anchor="middle" x="37.3188" y="-135.5" font-family="Helvetica,sans-Serif" font-size="10.00"> </text>
<polyline fill="none" stroke="black" points="12.9199,-129.5 61.7178,-129.5 "/>
<text text-anchor="middle" x="37.3188" y="-117.5" font-family="Helvetica,sans-Serif" font-size="10.00"> </text>
</a>
</g>
</g>
<!-- Node2&#45;&gt;Node1 -->
<g id="edge1" class="edge"><title>Node2&#45;&gt;Node1</title>
<path fill="none" stroke="midnightblue" d="M37.3188,-101.304C37.3188,-92.6514 37.3188,-83.4132 37.3188,-74.7579"/>
<polygon fill="none" stroke="midnightblue" points="33.8189,-101.489 37.3188,-111.489 40.8189,-101.489 33.8189,-101.489"/>
</g>
</g>
</svg>
