<?xml version="1.0" encoding="UTF-8" standalone="no"?>
<!DOCTYPE svg PUBLIC "-//W3C//DTD SVG 1.1//EN"
 "http://www.w3.org/Graphics/SVG/1.1/DTD/svg11.dtd">
<!-- Generated by graphviz version 2.38.0 (20140413.2041)
 -->
<!-- Title: X509Cert Pages: 1 -->
<svg width="82pt" height="354pt"
 viewBox="0.00 0.00 81.52 354.00" xmlns="http://www.w3.org/2000/svg" xmlns:xlink="http://www.w3.org/1999/xlink">
<g id="graph0" class="graph" transform="scale(1 1) rotate(0) translate(4 350)">
<title>X509Cert</title>
<polygon fill="white" stroke="none" points="-4,4 -4,-350 77.5244,-350 77.5244,4 -4,4"/>
<!-- Node1 -->
<g id="node1" class="node"><title>Node1</title>
<polygon fill="#bfbfbf" stroke="black" points="0,-0.5 0,-224.5 73.5244,-224.5 73.5244,-0.5 0,-0.5"/>
<text text-anchor="middle" x="36.7622" y="-212.5" font-family="Helvetica,sans-Serif" font-size="10.00">X509Cert</text>
<polyline fill="none" stroke="black" points="0,-206.5 73.5244,-206.5 "/>
<text text-anchor="start" x="8" y="-194.5" font-family="Helvetica,sans-Serif" font-size="10.00">+ version</text>
<text text-anchor="start" x="8" y="-184.5" font-family="Helvetica,sans-Serif" font-size="10.00">+ serial</text>
<text text-anchor="start" x="8" y="-174.5" font-family="Helvetica,sans-Serif" font-size="10.00">+ issuer</text>
<text text-anchor="start" x="8" y="-164.5" font-family="Helvetica,sans-Serif" font-size="10.00">+ subject</text>
<text text-anchor="start" x="8" y="-154.5" font-family="Helvetica,sans-Serif" font-size="10.00">+ notBefore</text>
<text text-anchor="start" x="8" y="-144.5" font-family="Helvetica,sans-Serif" font-size="10.00">+ notAfter</text>
<text text-anchor="start" x="8" y="-134.5" font-family="Helvetica,sans-Serif" font-size="10.00">+ ca</text>
<text text-anchor="start" x="8" y="-124.5" font-family="Helvetica,sans-Serif" font-size="10.00">+ pathlen</text>
<text text-anchor="start" x="8" y="-114.5" font-family="Helvetica,sans-Serif" font-size="10.00">+ usage</text>
<text text-anchor="start" x="8" y="-104.5" font-family="Helvetica,sans-Serif" font-size="10.00">+ type</text>
<text text-anchor="start" x="8" y="-94.5" font-family="Helvetica,sans-Serif" font-size="10.00">+ publicKey</text>
<text text-anchor="start" x="8" y="-84.5" font-family="Helvetica,sans-Serif" font-size="10.00">+ next</text>
<polyline fill="none" stroke="black" points="0,-78.5 73.5244,-78.5 "/>
<text text-anchor="start" x="8" y="-66.5" font-family="Helvetica,sans-Serif" font-size="10.00">+ X509Cert()</text>
<text text-anchor="start" x="8" y="-56.5" font-family="Helvetica,sans-Serif" font-size="10.00">+ load()</text>
<text text-anchor="start" x="8" y="-46.5" font-family="Helvetica,sans-Serif" font-size="10.00">+ load()</text>
<text text-anchor="start" x="8" y="-36.5" font-family="Helvetica,sans-Serif" font-size="10.00">+ loadFile()</text>
<text text-anchor="start" x="8" y="-26.5" font-family="Helvetica,sans-Serif" font-size="10.00">+ verify()</text>
<text text-anchor="start" x="8" y="-16.5" font-family="Helvetica,sans-Serif" font-size="10.00">+ dump()</text>
<text text-anchor="start" x="8" y="-6.5" font-family="Helvetica,sans-Serif" font-size="10.00">+ clear()</text>
</g>
<!-- Node2 -->
<g id="node2" class="node"><title>Node2</title>
<g id="a_node2"><a xlink:href="../../dc/dd8/classobject.html" target="_top" xlink:title="基础对象，所有对象均继承于此 ">
<polygon fill="white" stroke="black" points="3.42529,-261.5 3.42529,-345.5 70.0991,-345.5 70.0991,-261.5 3.42529,-261.5"/>
<text text-anchor="middle" x="36.7622" y="-333.5" font-family="Helvetica,sans-Serif" font-size="10.00">object</text>
<polyline fill="none" stroke="black" points="3.42529,-327.5 70.0991,-327.5 "/>
<text text-anchor="middle" x="36.7622" y="-315.5" font-family="Helvetica,sans-Serif" font-size="10.00"> </text>
<polyline fill="none" stroke="black" points="3.42529,-309.5 70.0991,-309.5 "/>
<text text-anchor="start" x="11.4253" y="-297.5" font-family="Helvetica,sans-Serif" font-size="10.00">+ dispose()</text>
<text text-anchor="start" x="11.4253" y="-287.5" font-family="Helvetica,sans-Serif" font-size="10.00">+ toString()</text>
<text text-anchor="start" x="11.4253" y="-277.5" font-family="Helvetica,sans-Serif" font-size="10.00">+ toJSON()</text>
<text text-anchor="start" x="11.4253" y="-267.5" font-family="Helvetica,sans-Serif" font-size="10.00">+ ValueOf()</text>
</a>
</g>
</g>
<!-- Node2&#45;&gt;Node1 -->
<g id="edge1" class="edge"><title>Node2&#45;&gt;Node1</title>
<path fill="none" stroke="midnightblue" d="M36.7622,-251.444C36.7622,-242.945 36.7622,-233.845 36.7622,-224.525"/>
<polygon fill="none" stroke="midnightblue" points="33.2623,-251.49 36.7622,-261.49 40.2623,-251.49 33.2623,-251.49"/>
</g>
</g>
</svg>
