<?xml version="1.0" encoding="UTF-8" standalone="no"?>
<!DOCTYPE svg PUBLIC "-//W3C//DTD SVG 1.1//EN"
 "http://www.w3.org/Graphics/SVG/1.1/DTD/svg11.dtd">
<!-- Generated by graphviz version 2.38.0 (20140413.2041)
 -->
<!-- Title: BufferedStream Pages: 1 -->
<svg width="109pt" height="405pt"
 viewBox="0.00 0.00 109.14 405.00" xmlns="http://www.w3.org/2000/svg" xmlns:xlink="http://www.w3.org/1999/xlink">
<g id="graph0" class="graph" transform="scale(1 1) rotate(0) translate(4 401)">
<title>BufferedStream</title>
<polygon fill="white" stroke="none" points="-4,4 -4,-401 105.137,-401 105.137,4 -4,4"/>
<!-- Node1 -->
<g id="node1" class="node"><title>Node1</title>
<polygon fill="#bfbfbf" stroke="black" points="0,-0.5 0,-154.5 101.137,-154.5 101.137,-0.5 0,-0.5"/>
<text text-anchor="middle" x="50.5684" y="-142.5" font-family="Helvetica,sans-Serif" font-size="10.00">BufferedStream</text>
<polyline fill="none" stroke="black" points="0,-136.5 101.137,-136.5 "/>
<text text-anchor="start" x="8" y="-124.5" font-family="Helvetica,sans-Serif" font-size="10.00">+ stream</text>
<text text-anchor="start" x="8" y="-114.5" font-family="Helvetica,sans-Serif" font-size="10.00">+ charset</text>
<text text-anchor="start" x="8" y="-104.5" font-family="Helvetica,sans-Serif" font-size="10.00">+ EOL</text>
<polyline fill="none" stroke="black" points="0,-98.5 101.137,-98.5 "/>
<text text-anchor="start" x="8" y="-86.5" font-family="Helvetica,sans-Serif" font-size="10.00">+ BufferedStream()</text>
<text text-anchor="start" x="8" y="-76.5" font-family="Helvetica,sans-Serif" font-size="10.00">+ readText()</text>
<text text-anchor="start" x="8" y="-66.5" font-family="Helvetica,sans-Serif" font-size="10.00">+ readLine()</text>
<text text-anchor="start" x="8" y="-56.5" font-family="Helvetica,sans-Serif" font-size="10.00">+ readLines()</text>
<text text-anchor="start" x="8" y="-46.5" font-family="Helvetica,sans-Serif" font-size="10.00">+ readUntil()</text>
<text text-anchor="start" x="8" y="-36.5" font-family="Helvetica,sans-Serif" font-size="10.00">+ readPacket()</text>
<text text-anchor="start" x="8" y="-26.5" font-family="Helvetica,sans-Serif" font-size="10.00">+ writeText()</text>
<text text-anchor="start" x="8" y="-16.5" font-family="Helvetica,sans-Serif" font-size="10.00">+ writeLine()</text>
<text text-anchor="start" x="8" y="-6.5" font-family="Helvetica,sans-Serif" font-size="10.00">+ writePacket()</text>
</g>
<!-- Node2 -->
<g id="node2" class="node"><title>Node2</title>
<g id="a_node2"><a xlink:href="../../dc/de8/classStream.html" target="_top" xlink:title="流操作对象，用于二进制数据流读写 ">
<polygon fill="white" stroke="black" points="19.0869,-191.5 19.0869,-275.5 82.0498,-275.5 82.0498,-191.5 19.0869,-191.5"/>
<text text-anchor="middle" x="50.5684" y="-263.5" font-family="Helvetica,sans-Serif" font-size="10.00">Stream</text>
<polyline fill="none" stroke="black" points="19.0869,-257.5 82.0498,-257.5 "/>
<text text-anchor="middle" x="50.5684" y="-245.5" font-family="Helvetica,sans-Serif" font-size="10.00"> </text>
<polyline fill="none" stroke="black" points="19.0869,-239.5 82.0498,-239.5 "/>
<text text-anchor="start" x="27.0869" y="-227.5" font-family="Helvetica,sans-Serif" font-size="10.00">+ read()</text>
<text text-anchor="start" x="27.0869" y="-217.5" font-family="Helvetica,sans-Serif" font-size="10.00">+ write()</text>
<text text-anchor="start" x="27.0869" y="-207.5" font-family="Helvetica,sans-Serif" font-size="10.00">+ close()</text>
<text text-anchor="start" x="27.0869" y="-197.5" font-family="Helvetica,sans-Serif" font-size="10.00">+ copyTo()</text>
</a>
</g>
</g>
<!-- Node2&#45;&gt;Node1 -->
<g id="edge1" class="edge"><title>Node2&#45;&gt;Node1</title>
<path fill="none" stroke="midnightblue" d="M50.5684,-181.12C50.5684,-172.612 50.5684,-163.633 50.5684,-154.67"/>
<polygon fill="none" stroke="midnightblue" points="47.0685,-181.231 50.5684,-191.231 54.0685,-181.231 47.0685,-181.231"/>
</g>
<!-- Node3 -->
<g id="node3" class="node"><title>Node3</title>
<g id="a_node3"><a xlink:href="../../dc/dd8/classobject.html" target="_top" xlink:title="基础对象，所有对象均继承于此 ">
<polygon fill="white" stroke="black" points="17.2314,-312.5 17.2314,-396.5 83.9053,-396.5 83.9053,-312.5 17.2314,-312.5"/>
<text text-anchor="middle" x="50.5684" y="-384.5" font-family="Helvetica,sans-Serif" font-size="10.00">object</text>
<polyline fill="none" stroke="black" points="17.2314,-378.5 83.9053,-378.5 "/>
<text text-anchor="middle" x="50.5684" y="-366.5" font-family="Helvetica,sans-Serif" font-size="10.00"> </text>
<polyline fill="none" stroke="black" points="17.2314,-360.5 83.9053,-360.5 "/>
<text text-anchor="start" x="25.2314" y="-348.5" font-family="Helvetica,sans-Serif" font-size="10.00">+ dispose()</text>
<text text-anchor="start" x="25.2314" y="-338.5" font-family="Helvetica,sans-Serif" font-size="10.00">+ toString()</text>
<text text-anchor="start" x="25.2314" y="-328.5" font-family="Helvetica,sans-Serif" font-size="10.00">+ toJSON()</text>
<text text-anchor="start" x="25.2314" y="-318.5" font-family="Helvetica,sans-Serif" font-size="10.00">+ ValueOf()</text>
</a>
</g>
</g>
<!-- Node3&#45;&gt;Node2 -->
<g id="edge2" class="edge"><title>Node3&#45;&gt;Node2</title>
<path fill="none" stroke="midnightblue" d="M50.5684,-302.041C50.5684,-293.241 50.5684,-284.202 50.5684,-275.713"/>
<polygon fill="none" stroke="midnightblue" points="47.0685,-302.214 50.5684,-312.214 54.0685,-302.214 47.0685,-302.214"/>
</g>
</g>
</svg>
