<?xml version="1.0" encoding="UTF-8" standalone="no"?>
<!DOCTYPE svg PUBLIC "-//W3C//DTD SVG 1.1//EN"
 "http://www.w3.org/Graphics/SVG/1.1/DTD/svg11.dtd">
<!-- Generated by graphviz version 2.38.0 (20140413.2041)
 -->
<!-- Title: Stats Pages: 1 -->
<svg width="102pt" height="244pt"
 viewBox="0.00 0.00 101.54 244.00" xmlns="http://www.w3.org/2000/svg" xmlns:xlink="http://www.w3.org/1999/xlink">
<g id="graph0" class="graph" transform="scale(1 1) rotate(0) translate(4 240)">
<title>Stats</title>
<polygon fill="white" stroke="none" points="-4,4 -4,-240 97.5439,-240 97.5439,4 -4,4"/>
<!-- Node1 -->
<g id="node1" class="node"><title>Node1</title>
<polygon fill="#bfbfbf" stroke="black" points="0,-0.5 0,-114.5 93.5439,-114.5 93.5439,-0.5 0,-0.5"/>
<text text-anchor="middle" x="46.772" y="-102.5" font-family="Helvetica,sans-Serif" font-size="10.00">Stats</text>
<polyline fill="none" stroke="black" points="0,-96.5 93.5439,-96.5 "/>
<text text-anchor="start" x="8" y="-84.5" font-family="Helvetica,sans-Serif" font-size="10.00">+ operator[String]</text>
<polyline fill="none" stroke="black" points="0,-78.5 93.5439,-78.5 "/>
<text text-anchor="start" x="8" y="-66.5" font-family="Helvetica,sans-Serif" font-size="10.00">+ Stats()</text>
<text text-anchor="start" x="8" y="-56.5" font-family="Helvetica,sans-Serif" font-size="10.00">+ Stats()</text>
<text text-anchor="start" x="8" y="-46.5" font-family="Helvetica,sans-Serif" font-size="10.00">+ inc()</text>
<text text-anchor="start" x="8" y="-36.5" font-family="Helvetica,sans-Serif" font-size="10.00">+ dec()</text>
<text text-anchor="start" x="8" y="-26.5" font-family="Helvetica,sans-Serif" font-size="10.00">+ add()</text>
<text text-anchor="start" x="8" y="-16.5" font-family="Helvetica,sans-Serif" font-size="10.00">+ reset()</text>
<text text-anchor="start" x="8" y="-6.5" font-family="Helvetica,sans-Serif" font-size="10.00">+ uptime()</text>
</g>
<!-- Node2 -->
<g id="node2" class="node"><title>Node2</title>
<g id="a_node2"><a xlink:href="../../dc/dd8/classobject.html" target="_top" xlink:title="基础对象，所有对象均继承于此 ">
<polygon fill="white" stroke="black" points="13.4351,-151.5 13.4351,-235.5 80.1089,-235.5 80.1089,-151.5 13.4351,-151.5"/>
<text text-anchor="middle" x="46.772" y="-223.5" font-family="Helvetica,sans-Serif" font-size="10.00">object</text>
<polyline fill="none" stroke="black" points="13.4351,-217.5 80.1089,-217.5 "/>
<text text-anchor="middle" x="46.772" y="-205.5" font-family="Helvetica,sans-Serif" font-size="10.00"> </text>
<polyline fill="none" stroke="black" points="13.4351,-199.5 80.1089,-199.5 "/>
<text text-anchor="start" x="21.4351" y="-187.5" font-family="Helvetica,sans-Serif" font-size="10.00">+ dispose()</text>
<text text-anchor="start" x="21.4351" y="-177.5" font-family="Helvetica,sans-Serif" font-size="10.00">+ toString()</text>
<text text-anchor="start" x="21.4351" y="-167.5" font-family="Helvetica,sans-Serif" font-size="10.00">+ toJSON()</text>
<text text-anchor="start" x="21.4351" y="-157.5" font-family="Helvetica,sans-Serif" font-size="10.00">+ ValueOf()</text>
</a>
</g>
</g>
<!-- Node2&#45;&gt;Node1 -->
<g id="edge1" class="edge"><title>Node2&#45;&gt;Node1</title>
<path fill="none" stroke="midnightblue" d="M46.772,-140.94C46.772,-132.347 46.772,-123.397 46.772,-114.696"/>
<polygon fill="none" stroke="midnightblue" points="43.2721,-141.202 46.772,-151.202 50.2721,-141.202 43.2721,-141.202"/>
</g>
</g>
</svg>
