<?xml version="1.0" encoding="UTF-8" standalone="no"?>
<!DOCTYPE svg PUBLIC "-//W3C//DTD SVG 1.1//EN"
 "http://www.w3.org/Graphics/SVG/1.1/DTD/svg11.dtd">
<!-- Generated by graphviz version 2.38.0 (20140413.2041)
 -->
<!-- Title: PacketHandler Pages: 1 -->
<svg width="105pt" height="285pt"
 viewBox="0.00 0.00 104.87 285.00" xmlns="http://www.w3.org/2000/svg" xmlns:xlink="http://www.w3.org/1999/xlink">
<g id="graph0" class="graph" transform="scale(1 1) rotate(0) translate(4 281)">
<title>PacketHandler</title>
<polygon fill="white" stroke="none" points="-4,4 -4,-281 100.869,-281 100.869,4 -4,4"/>
<!-- Node1 -->
<g id="node1" class="node"><title>Node1</title>
<polygon fill="#bfbfbf" stroke="black" points="0,-0.5 0,-64.5 96.8691,-64.5 96.8691,-0.5 0,-0.5"/>
<text text-anchor="middle" x="48.4346" y="-52.5" font-family="Helvetica,sans-Serif" font-size="10.00">PacketHandler</text>
<polyline fill="none" stroke="black" points="0,-46.5 96.8691,-46.5 "/>
<text text-anchor="start" x="8" y="-34.5" font-family="Helvetica,sans-Serif" font-size="10.00">+ maxSize</text>
<text text-anchor="start" x="8" y="-24.5" font-family="Helvetica,sans-Serif" font-size="10.00">+ stats</text>
<polyline fill="none" stroke="black" points="0,-18.5 96.8691,-18.5 "/>
<text text-anchor="start" x="8" y="-6.5" font-family="Helvetica,sans-Serif" font-size="10.00">+ PacketHandler()</text>
</g>
<!-- Node2 -->
<g id="node2" class="node"><title>Node2</title>
<g id="a_node2"><a xlink:href="../../d4/d22/classHandler.html" target="_top" xlink:title="消息处理器接口 ">
<polygon fill="white" stroke="black" points="18.3423,-101.5 18.3423,-155.5 78.5269,-155.5 78.5269,-101.5 18.3423,-101.5"/>
<text text-anchor="middle" x="48.4346" y="-143.5" font-family="Helvetica,sans-Serif" font-size="10.00">Handler</text>
<polyline fill="none" stroke="black" points="18.3423,-137.5 78.5269,-137.5 "/>
<text text-anchor="middle" x="48.4346" y="-125.5" font-family="Helvetica,sans-Serif" font-size="10.00"> </text>
<polyline fill="none" stroke="black" points="18.3423,-119.5 78.5269,-119.5 "/>
<text text-anchor="start" x="26.3423" y="-107.5" font-family="Helvetica,sans-Serif" font-size="10.00">+ invoke()</text>
</a>
</g>
</g>
<!-- Node2&#45;&gt;Node1 -->
<g id="edge1" class="edge"><title>Node2&#45;&gt;Node1</title>
<path fill="none" stroke="midnightblue" d="M48.4346,-91.2838C48.4346,-82.4601 48.4346,-73.1003 48.4346,-64.5417"/>
<polygon fill="none" stroke="midnightblue" points="44.9347,-91.3157 48.4346,-101.316 51.9347,-91.3158 44.9347,-91.3157"/>
</g>
<!-- Node3 -->
<g id="node3" class="node"><title>Node3</title>
<g id="a_node3"><a xlink:href="../../dc/dd8/classobject.html" target="_top" xlink:title="基础对象，所有对象均继承于此 ">
<polygon fill="white" stroke="black" points="15.0977,-192.5 15.0977,-276.5 81.7715,-276.5 81.7715,-192.5 15.0977,-192.5"/>
<text text-anchor="middle" x="48.4346" y="-264.5" font-family="Helvetica,sans-Serif" font-size="10.00">object</text>
<polyline fill="none" stroke="black" points="15.0977,-258.5 81.7715,-258.5 "/>
<text text-anchor="middle" x="48.4346" y="-246.5" font-family="Helvetica,sans-Serif" font-size="10.00"> </text>
<polyline fill="none" stroke="black" points="15.0977,-240.5 81.7715,-240.5 "/>
<text text-anchor="start" x="23.0977" y="-228.5" font-family="Helvetica,sans-Serif" font-size="10.00">+ dispose()</text>
<text text-anchor="start" x="23.0977" y="-218.5" font-family="Helvetica,sans-Serif" font-size="10.00">+ toString()</text>
<text text-anchor="start" x="23.0977" y="-208.5" font-family="Helvetica,sans-Serif" font-size="10.00">+ toJSON()</text>
<text text-anchor="start" x="23.0977" y="-198.5" font-family="Helvetica,sans-Serif" font-size="10.00">+ ValueOf()</text>
</a>
</g>
</g>
<!-- Node3&#45;&gt;Node2 -->
<g id="edge2" class="edge"><title>Node3&#45;&gt;Node2</title>
<path fill="none" stroke="midnightblue" d="M48.4346,-182.111C48.4346,-172.937 48.4346,-163.738 48.4346,-155.655"/>
<polygon fill="none" stroke="midnightblue" points="44.9347,-182.396 48.4346,-192.396 51.9347,-182.396 44.9347,-182.396"/>
</g>
</g>
</svg>
