<?xml version="1.0" encoding="UTF-8" standalone="no"?>
<!DOCTYPE svg PUBLIC "-//W3C//DTD SVG 1.1//EN"
 "http://www.w3.org/Graphics/SVG/1.1/DTD/svg11.dtd">
<!-- Generated by graphviz version 2.38.0 (20140413.2041)
 -->
<!-- Title: MongoDB Pages: 1 -->
<svg width="102pt" height="234pt"
 viewBox="0.00 0.00 101.54 234.00" xmlns="http://www.w3.org/2000/svg" xmlns:xlink="http://www.w3.org/1999/xlink">
<g id="graph0" class="graph" transform="scale(1 1) rotate(0) translate(4 230)">
<title>MongoDB</title>
<polygon fill="white" stroke="none" points="-4,4 -4,-230 97.5439,-230 97.5439,4 -4,4"/>
<!-- Node1 -->
<g id="node1" class="node"><title>Node1</title>
<polygon fill="#bfbfbf" stroke="black" points="0,-0.5 0,-104.5 93.5439,-104.5 93.5439,-0.5 0,-0.5"/>
<text text-anchor="middle" x="46.772" y="-92.5" font-family="Helvetica,sans-Serif" font-size="10.00">MongoDB</text>
<polyline fill="none" stroke="black" points="0,-86.5 93.5439,-86.5 "/>
<text text-anchor="start" x="8" y="-74.5" font-family="Helvetica,sans-Serif" font-size="10.00">+ operator[String]</text>
<text text-anchor="start" x="8" y="-64.5" font-family="Helvetica,sans-Serif" font-size="10.00">+ fs</text>
<polyline fill="none" stroke="black" points="0,-58.5 93.5439,-58.5 "/>
<text text-anchor="start" x="8" y="-46.5" font-family="Helvetica,sans-Serif" font-size="10.00">+ getCollection()</text>
<text text-anchor="start" x="8" y="-36.5" font-family="Helvetica,sans-Serif" font-size="10.00">+ runCommand()</text>
<text text-anchor="start" x="8" y="-26.5" font-family="Helvetica,sans-Serif" font-size="10.00">+ runCommand()</text>
<text text-anchor="start" x="8" y="-16.5" font-family="Helvetica,sans-Serif" font-size="10.00">+ oid()</text>
<text text-anchor="start" x="8" y="-6.5" font-family="Helvetica,sans-Serif" font-size="10.00">+ close()</text>
</g>
<!-- Node2 -->
<g id="node2" class="node"><title>Node2</title>
<g id="a_node2"><a xlink:href="../../dc/dd8/classobject.html" target="_top" xlink:title="基础对象，所有对象均继承于此 ">
<polygon fill="white" stroke="black" points="13.4351,-141.5 13.4351,-225.5 80.1089,-225.5 80.1089,-141.5 13.4351,-141.5"/>
<text text-anchor="middle" x="46.772" y="-213.5" font-family="Helvetica,sans-Serif" font-size="10.00">object</text>
<polyline fill="none" stroke="black" points="13.4351,-207.5 80.1089,-207.5 "/>
<text text-anchor="middle" x="46.772" y="-195.5" font-family="Helvetica,sans-Serif" font-size="10.00"> </text>
<polyline fill="none" stroke="black" points="13.4351,-189.5 80.1089,-189.5 "/>
<text text-anchor="start" x="21.4351" y="-177.5" font-family="Helvetica,sans-Serif" font-size="10.00">+ dispose()</text>
<text text-anchor="start" x="21.4351" y="-167.5" font-family="Helvetica,sans-Serif" font-size="10.00">+ toString()</text>
<text text-anchor="start" x="21.4351" y="-157.5" font-family="Helvetica,sans-Serif" font-size="10.00">+ toJSON()</text>
<text text-anchor="start" x="21.4351" y="-147.5" font-family="Helvetica,sans-Serif" font-size="10.00">+ ValueOf()</text>
</a>
</g>
</g>
<!-- Node2&#45;&gt;Node1 -->
<g id="edge1" class="edge"><title>Node2&#45;&gt;Node1</title>
<path fill="none" stroke="midnightblue" d="M46.772,-131.261C46.772,-122.517 46.772,-113.434 46.772,-104.691"/>
<polygon fill="none" stroke="midnightblue" points="43.2721,-131.329 46.772,-141.329 50.2721,-131.329 43.2721,-131.329"/>
</g>
</g>
</svg>
