<?xml version="1.0" encoding="UTF-8" standalone="no"?>
<!DOCTYPE svg PUBLIC "-//W3C//DTD SVG 1.1//EN"
 "http://www.w3.org/Graphics/SVG/1.1/DTD/svg11.dtd">
<!-- Generated by graphviz version 2.38.0 (20140413.2041)
 -->
<!-- Title: DBResult Pages: 1 -->
<svg width="75pt" height="415pt"
 viewBox="0.00 0.00 75.42 415.00" xmlns="http://www.w3.org/2000/svg" xmlns:xlink="http://www.w3.org/1999/xlink">
<g id="graph0" class="graph" transform="scale(1 1) rotate(0) translate(4 411)">
<title>DBResult</title>
<polygon fill="white" stroke="none" points="-4,4 -4,-411 71.4209,-411 71.4209,4 -4,4"/>
<!-- Node1 -->
<g id="node1" class="node"><title>Node1</title>
<polygon fill="#bfbfbf" stroke="black" points="3.69873,-0.5 3.69873,-74.5 63.7222,-74.5 63.7222,-0.5 3.69873,-0.5"/>
<text text-anchor="middle" x="33.7104" y="-62.5" font-family="Helvetica,sans-Serif" font-size="10.00">DBResult</text>
<polyline fill="none" stroke="black" points="3.69873,-56.5 63.7222,-56.5 "/>
<text text-anchor="start" x="11.6987" y="-44.5" font-family="Helvetica,sans-Serif" font-size="10.00">+ insertId</text>
<text text-anchor="start" x="11.6987" y="-34.5" font-family="Helvetica,sans-Serif" font-size="10.00">+ affected</text>
<text text-anchor="start" x="11.6987" y="-24.5" font-family="Helvetica,sans-Serif" font-size="10.00">+ fields</text>
<polyline fill="none" stroke="black" points="3.69873,-18.5 63.7222,-18.5 "/>
<text text-anchor="middle" x="33.7104" y="-6.5" font-family="Helvetica,sans-Serif" font-size="10.00"> </text>
</g>
<!-- Node2 -->
<g id="node2" class="node"><title>Node2</title>
<g id="a_node2"><a xlink:href="../../d6/da9/classList.html" target="_top" xlink:title="Variant 数组对象，一般用以返回一组 Variant 数据 ">
<polygon fill="white" stroke="black" points="0,-111.5 0,-285.5 67.4209,-285.5 67.4209,-111.5 0,-111.5"/>
<text text-anchor="middle" x="33.7104" y="-273.5" font-family="Helvetica,sans-Serif" font-size="10.00">List</text>
<polyline fill="none" stroke="black" points="0,-267.5 67.4209,-267.5 "/>
<text text-anchor="start" x="8" y="-255.5" font-family="Helvetica,sans-Serif" font-size="10.00">+ operator[]</text>
<text text-anchor="start" x="8" y="-245.5" font-family="Helvetica,sans-Serif" font-size="10.00">+ length</text>
<polyline fill="none" stroke="black" points="0,-239.5 67.4209,-239.5 "/>
<text text-anchor="start" x="8" y="-227.5" font-family="Helvetica,sans-Serif" font-size="10.00">+ List()</text>
<text text-anchor="start" x="8" y="-217.5" font-family="Helvetica,sans-Serif" font-size="10.00">+ resize()</text>
<text text-anchor="start" x="8" y="-207.5" font-family="Helvetica,sans-Serif" font-size="10.00">+ push()</text>
<text text-anchor="start" x="8" y="-197.5" font-family="Helvetica,sans-Serif" font-size="10.00">+ push()</text>
<text text-anchor="start" x="8" y="-187.5" font-family="Helvetica,sans-Serif" font-size="10.00">+ pop()</text>
<text text-anchor="start" x="8" y="-177.5" font-family="Helvetica,sans-Serif" font-size="10.00">+ slice()</text>
<text text-anchor="start" x="8" y="-167.5" font-family="Helvetica,sans-Serif" font-size="10.00">+ concat()</text>
<text text-anchor="start" x="8" y="-157.5" font-family="Helvetica,sans-Serif" font-size="10.00">+ every()</text>
<text text-anchor="start" x="8" y="-147.5" font-family="Helvetica,sans-Serif" font-size="10.00">+ filter()</text>
<text text-anchor="start" x="8" y="-137.5" font-family="Helvetica,sans-Serif" font-size="10.00">+ forEach()</text>
<text text-anchor="start" x="8" y="-127.5" font-family="Helvetica,sans-Serif" font-size="10.00">+ map()</text>
<text text-anchor="start" x="8" y="-117.5" font-family="Helvetica,sans-Serif" font-size="10.00">+ toArray()</text>
</a>
</g>
</g>
<!-- Node2&#45;&gt;Node1 -->
<g id="edge1" class="edge"><title>Node2&#45;&gt;Node1</title>
<path fill="none" stroke="midnightblue" d="M33.7104,-101.482C33.7104,-91.9752 33.7104,-82.7977 33.7104,-74.5268"/>
<polygon fill="none" stroke="midnightblue" points="30.2105,-101.485 33.7104,-111.485 37.2105,-101.485 30.2105,-101.485"/>
</g>
<!-- Node3 -->
<g id="node3" class="node"><title>Node3</title>
<g id="a_node3"><a xlink:href="../../dc/dd8/classobject.html" target="_top" xlink:title="基础对象，所有对象均继承于此 ">
<polygon fill="white" stroke="black" points="0.373535,-322.5 0.373535,-406.5 67.0474,-406.5 67.0474,-322.5 0.373535,-322.5"/>
<text text-anchor="middle" x="33.7104" y="-394.5" font-family="Helvetica,sans-Serif" font-size="10.00">object</text>
<polyline fill="none" stroke="black" points="0.373535,-388.5 67.0474,-388.5 "/>
<text text-anchor="middle" x="33.7104" y="-376.5" font-family="Helvetica,sans-Serif" font-size="10.00"> </text>
<polyline fill="none" stroke="black" points="0.373535,-370.5 67.0474,-370.5 "/>
<text text-anchor="start" x="8.37354" y="-358.5" font-family="Helvetica,sans-Serif" font-size="10.00">+ dispose()</text>
<text text-anchor="start" x="8.37354" y="-348.5" font-family="Helvetica,sans-Serif" font-size="10.00">+ toString()</text>
<text text-anchor="start" x="8.37354" y="-338.5" font-family="Helvetica,sans-Serif" font-size="10.00">+ toJSON()</text>
<text text-anchor="start" x="8.37354" y="-328.5" font-family="Helvetica,sans-Serif" font-size="10.00">+ ValueOf()</text>
</a>
</g>
</g>
<!-- Node3&#45;&gt;Node2 -->
<g id="edge2" class="edge"><title>Node3&#45;&gt;Node2</title>
<path fill="none" stroke="midnightblue" d="M33.7104,-312.097C33.7104,-303.653 33.7104,-294.704 33.7104,-285.687"/>
<polygon fill="none" stroke="midnightblue" points="30.2105,-312.116 33.7104,-322.116 37.2105,-312.116 30.2105,-312.116"/>
</g>
</g>
</svg>
