<?xml version="1.0" encoding="UTF-8" standalone="no"?>
<!DOCTYPE svg PUBLIC "-//W3C//DTD SVG 1.1//EN"
 "http://www.w3.org/Graphics/SVG/1.1/DTD/svg11.dtd">
<!-- Generated by graphviz version 2.38.0 (20140413.2041)
 -->
<!-- Title: Semaphore Pages: 1 -->
<svg width="91pt" height="325pt"
 viewBox="0.00 0.00 90.98 325.00" xmlns="http://www.w3.org/2000/svg" xmlns:xlink="http://www.w3.org/1999/xlink">
<g id="graph0" class="graph" transform="scale(1 1) rotate(0) translate(4 321)">
<title>Semaphore</title>
<polygon fill="white" stroke="none" points="-4,4 -4,-321 86.9775,-321 86.9775,4 -4,4"/>
<!-- Node1 -->
<g id="node1" class="node"><title>Node1</title>
<polygon fill="#bfbfbf" stroke="black" points="0,-0.5 0,-84.5 82.9775,-84.5 82.9775,-0.5 0,-0.5"/>
<text text-anchor="middle" x="41.4888" y="-72.5" font-family="Helvetica,sans-Serif" font-size="10.00">Semaphore</text>
<polyline fill="none" stroke="black" points="0,-66.5 82.9775,-66.5 "/>
<text text-anchor="middle" x="41.4888" y="-54.5" font-family="Helvetica,sans-Serif" font-size="10.00"> </text>
<polyline fill="none" stroke="black" points="0,-48.5 82.9775,-48.5 "/>
<text text-anchor="start" x="8" y="-36.5" font-family="Helvetica,sans-Serif" font-size="10.00">+ Semaphore()</text>
<text text-anchor="start" x="8" y="-26.5" font-family="Helvetica,sans-Serif" font-size="10.00">+ wait()</text>
<text text-anchor="start" x="8" y="-16.5" font-family="Helvetica,sans-Serif" font-size="10.00">+ post()</text>
<text text-anchor="start" x="8" y="-6.5" font-family="Helvetica,sans-Serif" font-size="10.00">+ trywait()</text>
</g>
<!-- Node2 -->
<g id="node2" class="node"><title>Node2</title>
<g id="a_node2"><a xlink:href="../../d6/d83/classLock.html" target="_top" xlink:title="纤程锁对象 ">
<polygon fill="white" stroke="black" points="9.45068,-121.5 9.45068,-195.5 73.5269,-195.5 73.5269,-121.5 9.45068,-121.5"/>
<text text-anchor="middle" x="41.4888" y="-183.5" font-family="Helvetica,sans-Serif" font-size="10.00">Lock</text>
<polyline fill="none" stroke="black" points="9.45068,-177.5 73.5269,-177.5 "/>
<text text-anchor="middle" x="41.4888" y="-165.5" font-family="Helvetica,sans-Serif" font-size="10.00"> </text>
<polyline fill="none" stroke="black" points="9.45068,-159.5 73.5269,-159.5 "/>
<text text-anchor="start" x="17.4507" y="-147.5" font-family="Helvetica,sans-Serif" font-size="10.00">+ Lock()</text>
<text text-anchor="start" x="17.4507" y="-137.5" font-family="Helvetica,sans-Serif" font-size="10.00">+ acquire()</text>
<text text-anchor="start" x="17.4507" y="-127.5" font-family="Helvetica,sans-Serif" font-size="10.00">+ release()</text>
</a>
</g>
</g>
<!-- Node2&#45;&gt;Node1 -->
<g id="edge1" class="edge"><title>Node2&#45;&gt;Node1</title>
<path fill="none" stroke="midnightblue" d="M41.4888,-111.365C41.4888,-102.609 41.4888,-93.4971 41.4888,-84.8984"/>
<polygon fill="none" stroke="midnightblue" points="37.9889,-111.43 41.4888,-121.43 44.9889,-111.43 37.9889,-111.43"/>
</g>
<!-- Node3 -->
<g id="node3" class="node"><title>Node3</title>
<g id="a_node3"><a xlink:href="../../dc/dd8/classobject.html" target="_top" xlink:title="基础对象，所有对象均继承于此 ">
<polygon fill="white" stroke="black" points="8.34473,-232.5 8.34473,-316.5 74.6328,-316.5 74.6328,-232.5 8.34473,-232.5"/>
<text text-anchor="middle" x="41.4888" y="-304.5" font-family="Helvetica,sans-Serif" font-size="10.00">object</text>
<polyline fill="none" stroke="black" points="8.34473,-298.5 74.6328,-298.5 "/>
<text text-anchor="middle" x="41.4888" y="-286.5" font-family="Helvetica,sans-Serif" font-size="10.00"> </text>
<polyline fill="none" stroke="black" points="8.34473,-280.5 74.6328,-280.5 "/>
<text text-anchor="start" x="16.3447" y="-268.5" font-family="Helvetica,sans-Serif" font-size="10.00">+ dispose()</text>
<text text-anchor="start" x="16.3447" y="-258.5" font-family="Helvetica,sans-Serif" font-size="10.00">+ toString()</text>
<text text-anchor="start" x="16.3447" y="-248.5" font-family="Helvetica,sans-Serif" font-size="10.00">+ toJSON()</text>
<text text-anchor="start" x="16.3447" y="-238.5" font-family="Helvetica,sans-Serif" font-size="10.00">+ valueOf()</text>
</a>
</g>
</g>
<!-- Node3&#45;&gt;Node2 -->
<g id="edge2" class="edge"><title>Node3&#45;&gt;Node2</title>
<path fill="none" stroke="midnightblue" d="M41.4888,-222.328C41.4888,-213.341 41.4888,-204.159 41.4888,-195.688"/>
<polygon fill="none" stroke="midnightblue" points="37.9889,-222.343 41.4888,-232.343 44.9889,-222.343 37.9889,-222.343"/>
</g>
</g>
</svg>
