<?xml version="1.0" encoding="UTF-8" standalone="no"?>
<!DOCTYPE svg PUBLIC "-//W3C//DTD SVG 1.1//EN"
 "http://www.w3.org/Graphics/SVG/1.1/DTD/svg11.dtd">
<!-- Generated by graphviz version 2.38.0 (20140413.2041)
 -->
<!-- Title: HttpResponse Pages: 1 -->
<svg width="116pt" height="576pt"
 viewBox="0.00 0.00 115.99 576.00" xmlns="http://www.w3.org/2000/svg" xmlns:xlink="http://www.w3.org/1999/xlink">
<g id="graph0" class="graph" transform="scale(1 1) rotate(0) translate(4 572)">
<title>HttpResponse</title>
<polygon fill="white" stroke="none" points="-4,4 -4,-572 111.992,-572 111.992,4 -4,4"/>
<!-- Node1 -->
<g id="node1" class="node"><title>Node1</title>
<polygon fill="#bfbfbf" stroke="black" points="6.67236,-0.5 6.67236,-64.5 101.32,-64.5 101.32,-0.5 6.67236,-0.5"/>
<text text-anchor="middle" x="53.9961" y="-52.5" font-family="Helvetica,sans-Serif" font-size="10.00">HttpResponse</text>
<polyline fill="none" stroke="black" points="6.67236,-46.5 101.32,-46.5 "/>
<text text-anchor="start" x="14.6724" y="-34.5" font-family="Helvetica,sans-Serif" font-size="10.00">+ status</text>
<polyline fill="none" stroke="black" points="6.67236,-28.5 101.32,-28.5 "/>
<text text-anchor="start" x="14.6724" y="-16.5" font-family="Helvetica,sans-Serif" font-size="10.00">+ HttpResponse()</text>
<text text-anchor="start" x="14.6724" y="-6.5" font-family="Helvetica,sans-Serif" font-size="10.00">+ redirect()</text>
</g>
<!-- Node2 -->
<g id="node2" class="node"><title>Node2</title>
<g id="a_node2"><a xlink:href="../../dd/d77/classHttpMessage.html" target="_top" xlink:title="http 基础消息对象 ">
<polygon fill="white" stroke="black" points="0,-101.5 0,-265.5 107.992,-265.5 107.992,-101.5 0,-101.5"/>
<text text-anchor="middle" x="53.9961" y="-253.5" font-family="Helvetica,sans-Serif" font-size="10.00">HttpMessage</text>
<polyline fill="none" stroke="black" points="0,-247.5 107.992,-247.5 "/>
<text text-anchor="start" x="8" y="-235.5" font-family="Helvetica,sans-Serif" font-size="10.00">+ protocol</text>
<text text-anchor="start" x="8" y="-225.5" font-family="Helvetica,sans-Serif" font-size="10.00">+ headers</text>
<text text-anchor="start" x="8" y="-215.5" font-family="Helvetica,sans-Serif" font-size="10.00">+ keepAlive</text>
<text text-anchor="start" x="8" y="-205.5" font-family="Helvetica,sans-Serif" font-size="10.00">+ maxHeadersCount</text>
<text text-anchor="start" x="8" y="-195.5" font-family="Helvetica,sans-Serif" font-size="10.00">+ maxUploadSize</text>
<polyline fill="none" stroke="black" points="0,-189.5 107.992,-189.5 "/>
<text text-anchor="start" x="8" y="-177.5" font-family="Helvetica,sans-Serif" font-size="10.00">+ hasHeader()</text>
<text text-anchor="start" x="8" y="-167.5" font-family="Helvetica,sans-Serif" font-size="10.00">+ firstHeader()</text>
<text text-anchor="start" x="8" y="-157.5" font-family="Helvetica,sans-Serif" font-size="10.00">+ allHeader()</text>
<text text-anchor="start" x="8" y="-147.5" font-family="Helvetica,sans-Serif" font-size="10.00">+ addHeader()</text>
<text text-anchor="start" x="8" y="-137.5" font-family="Helvetica,sans-Serif" font-size="10.00">+ addHeader()</text>
<text text-anchor="start" x="8" y="-127.5" font-family="Helvetica,sans-Serif" font-size="10.00">+ setHeader()</text>
<text text-anchor="start" x="8" y="-117.5" font-family="Helvetica,sans-Serif" font-size="10.00">+ setHeader()</text>
<text text-anchor="start" x="8" y="-107.5" font-family="Helvetica,sans-Serif" font-size="10.00">+ removeHeader()</text>
</a>
</g>
</g>
<!-- Node2&#45;&gt;Node1 -->
<g id="edge1" class="edge"><title>Node2&#45;&gt;Node1</title>
<path fill="none" stroke="midnightblue" d="M53.9961,-91.406C53.9961,-81.8645 53.9961,-72.7055 53.9961,-64.5992"/>
<polygon fill="none" stroke="midnightblue" points="50.4962,-91.4596 53.9961,-101.46 57.4962,-91.4597 50.4962,-91.4596"/>
</g>
<!-- Node3 -->
<g id="node3" class="node"><title>Node3</title>
<g id="a_node3"><a xlink:href="../../d6/d28/classMessage.html" target="_top" xlink:title="基础消息对象 ">
<polygon fill="white" stroke="black" points="16.6846,-302.5 16.6846,-446.5 91.3076,-446.5 91.3076,-302.5 16.6846,-302.5"/>
<text text-anchor="middle" x="53.9961" y="-434.5" font-family="Helvetica,sans-Serif" font-size="10.00">Message</text>
<polyline fill="none" stroke="black" points="16.6846,-428.5 91.3076,-428.5 "/>
<text text-anchor="start" x="24.6846" y="-416.5" font-family="Helvetica,sans-Serif" font-size="10.00">+ value</text>
<text text-anchor="start" x="24.6846" y="-406.5" font-family="Helvetica,sans-Serif" font-size="10.00">+ params</text>
<text text-anchor="start" x="24.6846" y="-396.5" font-family="Helvetica,sans-Serif" font-size="10.00">+ result</text>
<text text-anchor="start" x="24.6846" y="-386.5" font-family="Helvetica,sans-Serif" font-size="10.00">+ body</text>
<text text-anchor="start" x="24.6846" y="-376.5" font-family="Helvetica,sans-Serif" font-size="10.00">+ length</text>
<text text-anchor="start" x="24.6846" y="-366.5" font-family="Helvetica,sans-Serif" font-size="10.00">+ stream</text>
<text text-anchor="start" x="24.6846" y="-356.5" font-family="Helvetica,sans-Serif" font-size="10.00">+ response</text>
<polyline fill="none" stroke="black" points="16.6846,-350.5 91.3076,-350.5 "/>
<text text-anchor="start" x="24.6846" y="-338.5" font-family="Helvetica,sans-Serif" font-size="10.00">+ Message()</text>
<text text-anchor="start" x="24.6846" y="-328.5" font-family="Helvetica,sans-Serif" font-size="10.00">+ clear()</text>
<text text-anchor="start" x="24.6846" y="-318.5" font-family="Helvetica,sans-Serif" font-size="10.00">+ sendTo()</text>
<text text-anchor="start" x="24.6846" y="-308.5" font-family="Helvetica,sans-Serif" font-size="10.00">+ readFrom()</text>
</a>
</g>
</g>
<!-- Node3&#45;&gt;Node2 -->
<g id="edge2" class="edge"><title>Node3&#45;&gt;Node2</title>
<path fill="none" stroke="midnightblue" d="M53.9961,-292.144C53.9961,-283.404 53.9961,-274.51 53.9961,-265.77"/>
<polygon fill="none" stroke="midnightblue" points="50.4962,-292.316 53.9961,-302.317 57.4962,-292.317 50.4962,-292.316"/>
</g>
<!-- Node4 -->
<g id="node4" class="node"><title>Node4</title>
<g id="a_node4"><a xlink:href="../../dc/dd8/classobject.html" target="_top" xlink:title="基础对象，所有对象均继承于此 ">
<polygon fill="white" stroke="black" points="20.6592,-483.5 20.6592,-567.5 87.333,-567.5 87.333,-483.5 20.6592,-483.5"/>
<text text-anchor="middle" x="53.9961" y="-555.5" font-family="Helvetica,sans-Serif" font-size="10.00">object</text>
<polyline fill="none" stroke="black" points="20.6592,-549.5 87.333,-549.5 "/>
<text text-anchor="middle" x="53.9961" y="-537.5" font-family="Helvetica,sans-Serif" font-size="10.00"> </text>
<polyline fill="none" stroke="black" points="20.6592,-531.5 87.333,-531.5 "/>
<text text-anchor="start" x="28.6592" y="-519.5" font-family="Helvetica,sans-Serif" font-size="10.00">+ dispose()</text>
<text text-anchor="start" x="28.6592" y="-509.5" font-family="Helvetica,sans-Serif" font-size="10.00">+ toString()</text>
<text text-anchor="start" x="28.6592" y="-499.5" font-family="Helvetica,sans-Serif" font-size="10.00">+ toJSON()</text>
<text text-anchor="start" x="28.6592" y="-489.5" font-family="Helvetica,sans-Serif" font-size="10.00">+ ValueOf()</text>
</a>
</g>
</g>
<!-- Node4&#45;&gt;Node3 -->
<g id="edge3" class="edge"><title>Node4&#45;&gt;Node3</title>
<path fill="none" stroke="midnightblue" d="M53.9961,-473.237C53.9961,-464.701 53.9961,-455.712 53.9961,-446.785"/>
<polygon fill="none" stroke="midnightblue" points="50.4962,-473.391 53.9961,-483.391 57.4962,-473.391 50.4962,-473.391"/>
</g>
</g>
</svg>
