<?xml version="1.0" encoding="UTF-8" standalone="no"?>
<!DOCTYPE svg PUBLIC "-//W3C//DTD SVG 1.1//EN"
 "http://www.w3.org/Graphics/SVG/1.1/DTD/svg11.dtd">
<!-- Generated by graphviz version 2.38.0 (20140413.2041)
 -->
<!-- Title: Cipher Pages: 1 -->
<svg width="100pt" height="264pt"
 viewBox="0.00 0.00 99.88 264.00" xmlns="http://www.w3.org/2000/svg" xmlns:xlink="http://www.w3.org/1999/xlink">
<g id="graph0" class="graph" transform="scale(1 1) rotate(0) translate(4 260)">
<title>Cipher</title>
<polygon fill="white" stroke="none" points="-4,4 -4,-260 95.8838,-260 95.8838,4 -4,4"/>
<!-- Node1 -->
<g id="node1" class="node"><title>Node1</title>
<polygon fill="#bfbfbf" stroke="black" points="0,-0.5 0,-134.5 91.8838,-134.5 91.8838,-0.5 0,-0.5"/>
<text text-anchor="middle" x="45.9419" y="-122.5" font-family="Helvetica,sans-Serif" font-size="10.00">Cipher</text>
<polyline fill="none" stroke="black" points="0,-116.5 91.8838,-116.5 "/>
<text text-anchor="start" x="8" y="-104.5" font-family="Helvetica,sans-Serif" font-size="10.00">+ name</text>
<text text-anchor="start" x="8" y="-94.5" font-family="Helvetica,sans-Serif" font-size="10.00">+ keySize</text>
<text text-anchor="start" x="8" y="-84.5" font-family="Helvetica,sans-Serif" font-size="10.00">+ ivSize</text>
<text text-anchor="start" x="8" y="-74.5" font-family="Helvetica,sans-Serif" font-size="10.00">+ blockSize</text>
<polyline fill="none" stroke="black" points="0,-68.5 91.8838,-68.5 "/>
<text text-anchor="start" x="8" y="-56.5" font-family="Helvetica,sans-Serif" font-size="10.00">+ Cipher()</text>
<text text-anchor="start" x="8" y="-46.5" font-family="Helvetica,sans-Serif" font-size="10.00">+ Cipher()</text>
<text text-anchor="start" x="8" y="-36.5" font-family="Helvetica,sans-Serif" font-size="10.00">+ Cipher()</text>
<text text-anchor="start" x="8" y="-26.5" font-family="Helvetica,sans-Serif" font-size="10.00">+ paddingMode()</text>
<text text-anchor="start" x="8" y="-16.5" font-family="Helvetica,sans-Serif" font-size="10.00">+ encrypt()</text>
<text text-anchor="start" x="8" y="-6.5" font-family="Helvetica,sans-Serif" font-size="10.00">+ decrypt()</text>
</g>
<!-- Node2 -->
<g id="node2" class="node"><title>Node2</title>
<g id="a_node2"><a xlink:href="../../dc/dd8/classobject.html" target="_top" xlink:title="基础对象，所有对象均继承于此 ">
<polygon fill="white" stroke="black" points="12.7979,-171.5 12.7979,-255.5 79.0859,-255.5 79.0859,-171.5 12.7979,-171.5"/>
<text text-anchor="middle" x="45.9419" y="-243.5" font-family="Helvetica,sans-Serif" font-size="10.00">object</text>
<polyline fill="none" stroke="black" points="12.7979,-237.5 79.0859,-237.5 "/>
<text text-anchor="middle" x="45.9419" y="-225.5" font-family="Helvetica,sans-Serif" font-size="10.00"> </text>
<polyline fill="none" stroke="black" points="12.7979,-219.5 79.0859,-219.5 "/>
<text text-anchor="start" x="20.7979" y="-207.5" font-family="Helvetica,sans-Serif" font-size="10.00">+ dispose()</text>
<text text-anchor="start" x="20.7979" y="-197.5" font-family="Helvetica,sans-Serif" font-size="10.00">+ toString()</text>
<text text-anchor="start" x="20.7979" y="-187.5" font-family="Helvetica,sans-Serif" font-size="10.00">+ toJSON()</text>
<text text-anchor="start" x="20.7979" y="-177.5" font-family="Helvetica,sans-Serif" font-size="10.00">+ valueOf()</text>
</a>
</g>
</g>
<!-- Node2&#45;&gt;Node1 -->
<g id="edge1" class="edge"><title>Node2&#45;&gt;Node1</title>
<path fill="none" stroke="midnightblue" d="M45.9419,-161.005C45.9419,-152.416 45.9419,-143.401 45.9419,-134.509"/>
<polygon fill="none" stroke="midnightblue" points="42.442,-161.235 45.9419,-171.235 49.442,-161.235 42.442,-161.235"/>
</g>
</g>
</svg>
