<?xml version="1.0" encoding="UTF-8" standalone="no"?>
<!DOCTYPE svg PUBLIC "-//W3C//DTD SVG 1.1//EN"
 "http://www.w3.org/Graphics/SVG/1.1/DTD/svg11.dtd">
<!-- Generated by graphviz version 2.38.0 (20140413.2041)
 -->
<!-- Title: 类继承关系图 Pages: 1 -->
<svg width="150pt" height="989pt"
 viewBox="0.00 0.00 150.49 989.00" xmlns="http://www.w3.org/2000/svg" xmlns:xlink="http://www.w3.org/1999/xlink">
<g id="graph0" class="graph" transform="scale(1 1) rotate(0) translate(4 985)">
<title>类继承关系图</title>
<polygon fill="white" stroke="none" points="-4,4 -4,-985 146.487,-985 146.487,4 -4,4"/>
<!-- Node1 -->
<g id="node1" class="node"><title>Node1</title>
<g id="a_node1"><a xlink:href="d0/dd3/classmodule.html" target="_top" xlink:title="基础模块对象，所有模块对象均继承于此 ">
<polygon fill="white" stroke="black" points="0,-481.5 0,-499.5 48.7979,-499.5 48.7979,-481.5 0,-481.5"/>
<text text-anchor="middle" x="24.3989" y="-487.5" font-family="Helvetica,sans-Serif" font-size="10.00">module</text>
</a>
</g>
</g>
<!-- Node2 -->
<g id="node2" class="node"><title>Node2</title>
<g id="a_node2"><a xlink:href="de/d1c/classassert.html" target="_top" xlink:title="断言测试模块，如果测试值为假，则报错，报错行为可设定继续运行或者错误抛出 ">
<polygon fill="white" stroke="black" points="92.0269,-962.5 92.0269,-980.5 135.258,-980.5 135.258,-962.5 92.0269,-962.5"/>
<text text-anchor="middle" x="113.643" y="-968.5" font-family="Helvetica,sans-Serif" font-size="10.00">assert</text>
</a>
</g>
</g>
<!-- Node1&#45;&gt;Node2 -->
<g id="edge1" class="edge"><title>Node1&#45;&gt;Node2</title>
<path fill="none" stroke="midnightblue" d="M25.7569,-510.197C27.5054,-588.591 37.1296,-877.849 84.7979,-953.5 87.0073,-957.006 90.1765,-959.964 93.5908,-962.405"/>
<polygon fill="midnightblue" stroke="midnightblue" points="29.2491,-509.774 25.5458,-499.848 22.2506,-509.917 29.2491,-509.774"/>
</g>
<!-- Node3 -->
<g id="node3" class="node"><title>Node3</title>
<g id="a_node3"><a xlink:href="d3/d2d/classcollection.html" target="_top" xlink:title="基础容器模块 ">
<polygon fill="white" stroke="black" points="84.7979,-925.5 84.7979,-943.5 142.487,-943.5 142.487,-925.5 84.7979,-925.5"/>
<text text-anchor="middle" x="113.643" y="-931.5" font-family="Helvetica,sans-Serif" font-size="10.00">collection</text>
</a>
</g>
</g>
<!-- Node1&#45;&gt;Node3 -->
<g id="edge2" class="edge"><title>Node1&#45;&gt;Node3</title>
<path fill="none" stroke="midnightblue" d="M25.9977,-510.03C28.5885,-584.167 40.7753,-847.475 84.7979,-916.5 87.0265,-919.994 90.204,-922.947 93.6205,-925.386"/>
<polygon fill="midnightblue" stroke="midnightblue" points="29.4886,-509.693 25.6608,-499.814 22.4924,-509.924 29.4886,-509.693"/>
</g>
<!-- Node4 -->
<g id="node4" class="node"><title>Node4</title>
<g id="a_node4"><a xlink:href="d6/df8/classconsole.html" target="_top" xlink:title="控制台访问对象 ">
<polygon fill="white" stroke="black" points="88.4087,-888.5 88.4087,-906.5 138.876,-906.5 138.876,-888.5 88.4087,-888.5"/>
<text text-anchor="middle" x="113.643" y="-894.5" font-family="Helvetica,sans-Serif" font-size="10.00">console</text>
</a>
</g>
</g>
<!-- Node1&#45;&gt;Node4 -->
<g id="edge3" class="edge"><title>Node1&#45;&gt;Node4</title>
<path fill="none" stroke="midnightblue" d="M26.2907,-510.091C29.7937,-580.114 44.4562,-817.143 84.7979,-879.5 87.0491,-882.98 90.2366,-885.926 93.6556,-888.364"/>
<polygon fill="midnightblue" stroke="midnightblue" points="29.7666,-509.502 25.792,-499.681 22.7746,-509.837 29.7666,-509.502"/>
</g>
<!-- Node5 -->
<g id="node5" class="node"><title>Node5</title>
<g id="a_node5"><a xlink:href="d2/dd1/classcoroutine.html" target="_top" xlink:title="并发控制模块 ">
<polygon fill="white" stroke="black" points="85.0737,-851.5 85.0737,-869.5 142.211,-869.5 142.211,-851.5 85.0737,-851.5"/>
<text text-anchor="middle" x="113.643" y="-857.5" font-family="Helvetica,sans-Serif" font-size="10.00">coroutine</text>
</a>
</g>
</g>
<!-- Node1&#45;&gt;Node5 -->
<g id="edge4" class="edge"><title>Node1&#45;&gt;Node5</title>
<path fill="none" stroke="midnightblue" d="M26.6285,-509.901C31.082,-575.302 48.0776,-786.703 84.7979,-842.5 87.0762,-845.962 90.2756,-848.901 93.6977,-851.336"/>
<polygon fill="midnightblue" stroke="midnightblue" points="30.1106,-509.514 25.9604,-499.765 23.1258,-509.974 30.1106,-509.514"/>
</g>
<!-- Node6 -->
<g id="node6" class="node"><title>Node6</title>
<g id="a_node6"><a xlink:href="d8/d48/classcrypto.html" target="_top" xlink:title="加密算法模块 ">
<polygon fill="white" stroke="black" points="92.0269,-814.5 92.0269,-832.5 135.258,-832.5 135.258,-814.5 92.0269,-814.5"/>
<text text-anchor="middle" x="113.643" y="-820.5" font-family="Helvetica,sans-Serif" font-size="10.00">crypto</text>
</a>
</g>
</g>
<!-- Node1&#45;&gt;Node6 -->
<g id="edge5" class="edge"><title>Node1&#45;&gt;Node6</title>
<path fill="none" stroke="midnightblue" d="M27.0458,-509.793C32.5266,-570.461 51.702,-756.247 84.7979,-805.5 87.1094,-808.94 90.3232,-811.869 93.749,-814.302"/>
<polygon fill="midnightblue" stroke="midnightblue" points="30.5202,-509.347 26.1567,-499.693 23.5471,-509.961 30.5202,-509.347"/>
</g>
<!-- Node7 -->
<g id="node7" class="node"><title>Node7</title>
<g id="a_node7"><a xlink:href="de/d5f/classdb.html" target="_top" xlink:title="数据库访问模块 ">
<polygon fill="white" stroke="black" points="99.1426,-777.5 99.1426,-795.5 128.143,-795.5 128.143,-777.5 99.1426,-777.5"/>
<text text-anchor="middle" x="113.643" y="-783.5" font-family="Helvetica,sans-Serif" font-size="10.00">db</text>
</a>
</g>
</g>
<!-- Node1&#45;&gt;Node7 -->
<g id="edge6" class="edge"><title>Node1&#45;&gt;Node7</title>
<path fill="none" stroke="midnightblue" d="M24.6828,-509.874C23.8529,-558.089 27.5946,-685.549 84.7979,-768.5 88.3271,-773.618 93.8343,-777.621 99.0225,-780.539"/>
<polygon fill="midnightblue" stroke="midnightblue" points="28.188,-509.722 24.954,-499.633 21.1904,-509.537 28.188,-509.722"/>
</g>
<!-- Node8 -->
<g id="node8" class="node"><title>Node8</title>
<g id="a_node8"><a xlink:href="d0/d52/classencoding.html" target="_top" xlink:title="编码与解码模块，用于处理不同的数据编码格式与二进制之间的转换 引用方式： ">
<polygon fill="white" stroke="black" points="85.3472,-740.5 85.3472,-758.5 141.938,-758.5 141.938,-740.5 85.3472,-740.5"/>
<text text-anchor="middle" x="113.643" y="-746.5" font-family="Helvetica,sans-Serif" font-size="10.00">encoding</text>
</a>
</g>
</g>
<!-- Node1&#45;&gt;Node8 -->
<g id="edge7" class="edge"><title>Node1&#45;&gt;Node8</title>
<path fill="none" stroke="midnightblue" d="M25.4988,-509.9C26.6475,-553.576 34.742,-661.279 84.7979,-731.5 87.2704,-734.969 90.6401,-737.936 94.1817,-740.402"/>
<polygon fill="midnightblue" stroke="midnightblue" points="28.9967,-509.738 25.3323,-499.797 21.9977,-509.854 28.9967,-509.738"/>
</g>
<!-- Node9 -->
<g id="node9" class="node"><title>Node9</title>
<g id="a_node9"><a xlink:href="dc/d2f/classfs.html" target="_top" xlink:title="文件系统处理模块 ">
<polygon fill="white" stroke="black" points="99.1426,-703.5 99.1426,-721.5 128.143,-721.5 128.143,-703.5 99.1426,-703.5"/>
<text text-anchor="middle" x="113.643" y="-709.5" font-family="Helvetica,sans-Serif" font-size="10.00">fs</text>
</a>
</g>
</g>
<!-- Node1&#45;&gt;Node9 -->
<g id="edge8" class="edge"><title>Node1&#45;&gt;Node9</title>
<path fill="none" stroke="midnightblue" d="M26.599,-509.995C29.8778,-548.785 41.8681,-636.857 84.7979,-694.5 88.4424,-699.394 93.8427,-703.321 98.9199,-706.243"/>
<polygon fill="midnightblue" stroke="midnightblue" points="30.0606,-509.344 25.8365,-499.627 23.0794,-509.857 30.0606,-509.344"/>
</g>
<!-- Node10 -->
<g id="node10" class="node"><title>Node10</title>
<g id="a_node10"><a xlink:href="de/d65/classFunction.html" target="_top" xlink:title="Function 模块不可直接引用，仅用于实现对 javascript Function 对象的扩展 ">
<polygon fill="white" stroke="black" points="86.4653,-666.5 86.4653,-684.5 140.82,-684.5 140.82,-666.5 86.4653,-666.5"/>
<text text-anchor="middle" x="113.643" y="-672.5" font-family="Helvetica,sans-Serif" font-size="10.00">Function</text>
</a>
</g>
</g>
<!-- Node1&#45;&gt;Node10 -->
<g id="edge9" class="edge"><title>Node1&#45;&gt;Node10</title>
<path fill="none" stroke="midnightblue" d="M28.1607,-510.065C33.7185,-543.442 48.9314,-612.166 84.7979,-657.5 87.5122,-660.931 91.069,-663.911 94.7288,-666.406"/>
<polygon fill="midnightblue" stroke="midnightblue" points="31.5653,-509.178 26.5795,-499.829 24.6474,-510.247 31.5653,-509.178"/>
</g>
<!-- Node11 -->
<g id="node11" class="node"><title>Node11</title>
<g id="a_node11"><a xlink:href="d5/d5d/classgd.html" target="_top" xlink:title="图像文件处理模块 ">
<polygon fill="white" stroke="black" points="99.1426,-629.5 99.1426,-647.5 128.143,-647.5 128.143,-629.5 99.1426,-629.5"/>
<text text-anchor="middle" x="113.643" y="-635.5" font-family="Helvetica,sans-Serif" font-size="10.00">gd</text>
</a>
</g>
</g>
<!-- Node1&#45;&gt;Node11 -->
<g id="edge10" class="edge"><title>Node1&#45;&gt;Node11</title>
<path fill="none" stroke="midnightblue" d="M30.3654,-509.453C38.227,-536.561 55.7046,-586.84 84.7979,-620.5 88.7126,-625.029 94.0421,-628.849 98.9907,-631.789"/>
<polygon fill="midnightblue" stroke="midnightblue" points="33.699,-508.376 27.6584,-499.672 26.9526,-510.243 33.699,-508.376"/>
</g>
<!-- Node12 -->
<g id="node12" class="node"><title>Node12</title>
<g id="a_node12"><a xlink:href="df/d84/classglobal.html" target="_top" xlink:title="全局对象，所有脚本均可以访问的基础对象 ">
<polygon fill="white" stroke="black" points="92.2979,-592.5 92.2979,-610.5 134.987,-610.5 134.987,-592.5 92.2979,-592.5"/>
<text text-anchor="middle" x="113.643" y="-598.5" font-family="Helvetica,sans-Serif" font-size="10.00">global</text>
</a>
</g>
</g>
<!-- Node1&#45;&gt;Node12 -->
<g id="edge11" class="edge"><title>Node1&#45;&gt;Node12</title>
<path fill="none" stroke="midnightblue" d="M34.0922,-508.829C44.23,-528.852 62.4795,-561.059 84.7979,-583.5 88.1263,-586.847 92.1794,-589.896 96.1513,-592.496"/>
<polygon fill="midnightblue" stroke="midnightblue" points="37.102,-507.018 29.5516,-499.585 30.819,-510.104 37.102,-507.018"/>
</g>
<!-- Node13 -->
<g id="node13" class="node"><title>Node13</title>
<g id="a_node13"><a xlink:href="d5/df6/classhash.html" target="_top" xlink:title="信息摘要计算模块，可用于计算信息摘要和摘要签名 ">
<polygon fill="white" stroke="black" points="94.8003,-555.5 94.8003,-573.5 132.485,-573.5 132.485,-555.5 94.8003,-555.5"/>
<text text-anchor="middle" x="113.643" y="-561.5" font-family="Helvetica,sans-Serif" font-size="10.00">hash</text>
</a>
</g>
</g>
<!-- Node1&#45;&gt;Node13 -->
<g id="edge12" class="edge"><title>Node1&#45;&gt;Node13</title>
<path fill="none" stroke="midnightblue" d="M41.3779,-507.096C52.9405,-518.713 69.2108,-534.28 84.7979,-546.5 88.7843,-549.625 93.3203,-552.729 97.557,-555.457"/>
<polygon fill="midnightblue" stroke="midnightblue" points="43.6939,-504.459 34.1914,-499.773 38.698,-509.362 43.6939,-504.459"/>
</g>
<!-- Node14 -->
<g id="node14" class="node"><title>Node14</title>
<g id="a_node14"><a xlink:href="d6/da8/classhttp.html" target="_top" xlink:title="超文本传输协议模块，用以支持 http 协议处理 ">
<polygon fill="white" stroke="black" points="97.3027,-518.5 97.3027,-536.5 129.982,-536.5 129.982,-518.5 97.3027,-518.5"/>
<text text-anchor="middle" x="113.643" y="-524.5" font-family="Helvetica,sans-Serif" font-size="10.00">http</text>
</a>
</g>
</g>
<!-- Node1&#45;&gt;Node14 -->
<g id="edge13" class="edge"><title>Node1&#45;&gt;Node14</title>
<path fill="none" stroke="midnightblue" d="M56.5639,-503.717C70.3035,-509.544 85.8427,-516.134 97.0735,-520.897"/>
<polygon fill="midnightblue" stroke="midnightblue" points="57.5376,-500.328 46.9648,-499.646 54.8045,-506.773 57.5376,-500.328"/>
</g>
<!-- Node15 -->
<g id="node15" class="node"><title>Node15</title>
<g id="a_node15"><a xlink:href="d9/da1/classio.html" target="_top" xlink:title="输入输出处理模块 ">
<polygon fill="white" stroke="black" points="99.1426,-481.5 99.1426,-499.5 128.143,-499.5 128.143,-481.5 99.1426,-481.5"/>
<text text-anchor="middle" x="113.643" y="-487.5" font-family="Helvetica,sans-Serif" font-size="10.00">io</text>
</a>
</g>
</g>
<!-- Node1&#45;&gt;Node15 -->
<g id="edge14" class="edge"><title>Node1&#45;&gt;Node15</title>
<path fill="none" stroke="midnightblue" d="M59.4768,-490.5C73.3394,-490.5 88.5542,-490.5 99.1423,-490.5"/>
<polygon fill="midnightblue" stroke="midnightblue" points="59.2387,-487 49.2386,-490.5 59.2386,-494 59.2387,-487"/>
</g>
<!-- Node16 -->
<g id="node16" class="node"><title>Node16</title>
<g id="a_node16"><a xlink:href="d4/d86/classmq.html" target="_top" xlink:title="消息队列模块 ">
<polygon fill="white" stroke="black" points="98.6968,-444.5 98.6968,-462.5 128.588,-462.5 128.588,-444.5 98.6968,-444.5"/>
<text text-anchor="middle" x="113.643" y="-450.5" font-family="Helvetica,sans-Serif" font-size="10.00">mq</text>
</a>
</g>
</g>
<!-- Node1&#45;&gt;Node16 -->
<g id="edge15" class="edge"><title>Node1&#45;&gt;Node16</title>
<path fill="none" stroke="midnightblue" d="M56.5379,-477.294C70.949,-471.182 87.3449,-464.229 98.6738,-459.424"/>
<polygon fill="midnightblue" stroke="midnightblue" points="54.8045,-474.227 46.9648,-481.354 57.5376,-480.672 54.8045,-474.227"/>
</g>
<!-- Node17 -->
<g id="node17" class="node"><title>Node17</title>
<g id="a_node17"><a xlink:href="d3/d75/classnet.html" target="_top" xlink:title="网络访问模块 ">
<polygon fill="white" stroke="black" points="98.6919,-407.5 98.6919,-425.5 128.593,-425.5 128.593,-407.5 98.6919,-407.5"/>
<text text-anchor="middle" x="113.643" y="-413.5" font-family="Helvetica,sans-Serif" font-size="10.00">net</text>
</a>
</g>
</g>
<!-- Node1&#45;&gt;Node17 -->
<g id="edge16" class="edge"><title>Node1&#45;&gt;Node17</title>
<path fill="none" stroke="midnightblue" d="M41.5185,-474.348C53.147,-463.007 69.4382,-447.741 84.7979,-435.5 89.1,-432.071 93.9969,-428.599 98.4719,-425.577"/>
<polygon fill="midnightblue" stroke="midnightblue" points="38.9429,-471.973 34.2818,-481.487 43.8588,-476.956 38.9429,-471.973"/>
</g>
<!-- Node18 -->
<g id="node18" class="node"><title>Node18</title>
<g id="a_node18"><a xlink:href="d7/db0/classos.html" target="_top" xlink:title="操作系统与文件系统处理模块 ">
<polygon fill="white" stroke="black" points="99.1426,-370.5 99.1426,-388.5 128.143,-388.5 128.143,-370.5 99.1426,-370.5"/>
<text text-anchor="middle" x="113.643" y="-376.5" font-family="Helvetica,sans-Serif" font-size="10.00">os</text>
</a>
</g>
</g>
<!-- Node1&#45;&gt;Node18 -->
<g id="edge17" class="edge"><title>Node1&#45;&gt;Node18</title>
<path fill="none" stroke="midnightblue" d="M34.4003,-472.172C44.6989,-452.439 62.9865,-420.874 84.7979,-398.5 88.9647,-394.226 94.2315,-390.341 99.0603,-387.214"/>
<polygon fill="midnightblue" stroke="midnightblue" points="31.1718,-470.8 29.7668,-481.301 37.4138,-473.968 31.1718,-470.8"/>
</g>
<!-- Node19 -->
<g id="node19" class="node"><title>Node19</title>
<g id="a_node19"><a xlink:href="dc/d8a/classpath.html" target="_top" xlink:title="文件路径处理模块 ">
<polygon fill="white" stroke="black" points="95.9111,-333.5 95.9111,-351.5 131.374,-351.5 131.374,-333.5 95.9111,-333.5"/>
<text text-anchor="middle" x="113.643" y="-339.5" font-family="Helvetica,sans-Serif" font-size="10.00">path</text>
</a>
</g>
</g>
<!-- Node1&#45;&gt;Node19 -->
<g id="edge18" class="edge"><title>Node1&#45;&gt;Node19</title>
<path fill="none" stroke="midnightblue" d="M30.5147,-471.79C38.5592,-445.01 56.2591,-395.261 84.7979,-361.5 87.9714,-357.746 92.0603,-354.409 96.1221,-351.621"/>
<polygon fill="midnightblue" stroke="midnightblue" points="27.1371,-470.872 27.7364,-481.449 33.8643,-472.807 27.1371,-470.872"/>
</g>
<!-- Node20 -->
<g id="node20" class="node"><title>Node20</title>
<g id="a_node20"><a xlink:href="d4/d82/classprocess.html" target="_top" xlink:title="进程处理模块，用以管理当前进程的资源 ">
<polygon fill="white" stroke="black" points="88.1353,-296.5 88.1353,-314.5 139.15,-314.5 139.15,-296.5 88.1353,-296.5"/>
<text text-anchor="middle" x="113.643" y="-302.5" font-family="Helvetica,sans-Serif" font-size="10.00">process</text>
</a>
</g>
</g>
<!-- Node1&#45;&gt;Node20 -->
<g id="edge19" class="edge"><title>Node1&#45;&gt;Node20</title>
<path fill="none" stroke="midnightblue" d="M28.3121,-471.146C34.0975,-438.109 49.6432,-370.001 84.7979,-324.5 87.7319,-320.702 91.6432,-317.388 95.6046,-314.638"/>
<polygon fill="midnightblue" stroke="midnightblue" points="24.8156,-470.84 26.6566,-481.274 31.7239,-471.969 24.8156,-470.84"/>
</g>
<!-- Node21 -->
<g id="node21" class="node"><title>Node21</title>
<g id="a_node21"><a xlink:href="de/de2/classre.html" target="_top" xlink:title="正则表达式处理模块 ">
<polygon fill="white" stroke="black" points="99.1426,-259.5 99.1426,-277.5 128.143,-277.5 128.143,-259.5 99.1426,-259.5"/>
<text text-anchor="middle" x="113.643" y="-265.5" font-family="Helvetica,sans-Serif" font-size="10.00">re</text>
</a>
</g>
</g>
<!-- Node1&#45;&gt;Node21 -->
<g id="edge20" class="edge"><title>Node1&#45;&gt;Node21</title>
<path fill="none" stroke="midnightblue" d="M26.7486,-471.19C30.2953,-432.751 42.7419,-345.383 84.7979,-287.5 88.4442,-282.481 93.8449,-278.361 98.9219,-275.256"/>
<polygon fill="midnightblue" stroke="midnightblue" points="23.2354,-471.21 25.9107,-481.462 30.2122,-471.78 23.2354,-471.21"/>
</g>
<!-- Node22 -->
<g id="node22" class="node"><title>Node22</title>
<g id="a_node22"><a xlink:href="de/d2a/classrpc.html" target="_top" xlink:title="远程过程调用消息转换模块 ">
<polygon fill="white" stroke="black" points="98.6968,-222.5 98.6968,-240.5 128.588,-240.5 128.588,-222.5 98.6968,-222.5"/>
<text text-anchor="middle" x="113.643" y="-228.5" font-family="Helvetica,sans-Serif" font-size="10.00">rpc</text>
</a>
</g>
</g>
<!-- Node1&#45;&gt;Node22 -->
<g id="edge21" class="edge"><title>Node1&#45;&gt;Node22</title>
<path fill="none" stroke="midnightblue" d="M25.6471,-471.268C27.1002,-427.952 35.7789,-321.038 84.7979,-250.5 88.2712,-245.502 93.5179,-241.429 98.5239,-238.355"/>
<polygon fill="midnightblue" stroke="midnightblue" points="22.1477,-471.204 25.407,-481.285 29.1457,-471.372 22.1477,-471.204"/>
</g>
<!-- Node23 -->
<g id="node23" class="node"><title>Node23</title>
<g id="a_node23"><a xlink:href="dd/d36/classssl.html" target="_top" xlink:title="ssl/tls 模块 ">
<polygon fill="white" stroke="black" points="99.1426,-185.5 99.1426,-203.5 128.143,-203.5 128.143,-185.5 99.1426,-185.5"/>
<text text-anchor="middle" x="113.643" y="-191.5" font-family="Helvetica,sans-Serif" font-size="10.00">ssl</text>
</a>
</g>
</g>
<!-- Node1&#45;&gt;Node23 -->
<g id="edge22" class="edge"><title>Node1&#45;&gt;Node23</title>
<path fill="none" stroke="midnightblue" d="M24.8305,-471.281C24.3389,-423.437 28.7948,-296.849 84.7979,-213.5 88.3229,-208.254 93.8294,-204.052 99.0182,-200.948"/>
<polygon fill="midnightblue" stroke="midnightblue" points="21.3342,-471.511 25.0268,-481.442 28.3329,-471.376 21.3342,-471.511"/>
</g>
<!-- Node24 -->
<g id="node24" class="node"><title>Node24</title>
<g id="a_node24"><a xlink:href="de/d01/classtest.html" target="_top" xlink:title="测试套件模块，用以定义管理测试套件 ">
<polygon fill="white" stroke="black" points="97.5835,-148.5 97.5835,-166.5 129.702,-166.5 129.702,-148.5 97.5835,-148.5"/>
<text text-anchor="middle" x="113.643" y="-154.5" font-family="Helvetica,sans-Serif" font-size="10.00">test</text>
</a>
</g>
</g>
<!-- Node1&#45;&gt;Node24 -->
<g id="edge23" class="edge"><title>Node1&#45;&gt;Node24</title>
<path fill="none" stroke="midnightblue" d="M27.1045,-471.301C32.7608,-410.927 52.4034,-226 84.7979,-176.5 87.9385,-171.701 92.7551,-167.792 97.5042,-164.795"/>
<polygon fill="midnightblue" stroke="midnightblue" points="23.6106,-471.076 26.1855,-481.353 30.5815,-471.713 23.6106,-471.076"/>
</g>
<!-- Node25 -->
<g id="node25" class="node"><title>Node25</title>
<g id="a_node25"><a xlink:href="d8/d61/classutil.html" target="_top" xlink:title="常用工具模块 ">
<polygon fill="white" stroke="black" points="99.1426,-111.5 99.1426,-129.5 128.143,-129.5 128.143,-111.5 99.1426,-111.5"/>
<text text-anchor="middle" x="113.643" y="-117.5" font-family="Helvetica,sans-Serif" font-size="10.00">util</text>
</a>
</g>
</g>
<!-- Node1&#45;&gt;Node25 -->
<g id="edge24" class="edge"><title>Node1&#45;&gt;Node25</title>
<path fill="none" stroke="midnightblue" d="M26.6873,-471.187C31.3298,-406.08 48.862,-195.587 84.7979,-139.5 88.2077,-134.178 93.6962,-129.965 98.9027,-126.872"/>
<polygon fill="midnightblue" stroke="midnightblue" points="23.1878,-471.06 25.9892,-481.277 30.1711,-471.543 23.1878,-471.06"/>
</g>
<!-- Node26 -->
<g id="node26" class="node"><title>Node26</title>
<g id="a_node26"><a xlink:href="d9/d4e/classuuid.html" target="_top" xlink:title="uuid 唯一 id 模块 ">
<polygon fill="white" stroke="black" points="96.1895,-74.5 96.1895,-92.5 131.096,-92.5 131.096,-74.5 96.1895,-74.5"/>
<text text-anchor="middle" x="113.643" y="-80.5" font-family="Helvetica,sans-Serif" font-size="10.00">uuid</text>
</a>
</g>
</g>
<!-- Node1&#45;&gt;Node26 -->
<g id="edge25" class="edge"><title>Node1&#45;&gt;Node26</title>
<path fill="none" stroke="midnightblue" d="M26.3498,-470.993C30.0551,-401.265 45.3235,-165.189 84.7979,-102.5 87.542,-98.142 91.6898,-94.535 95.952,-91.6776"/>
<polygon fill="midnightblue" stroke="midnightblue" points="22.8351,-471.193 25.8204,-481.358 29.826,-471.55 22.8351,-471.193"/>
</g>
<!-- Node27 -->
<g id="node27" class="node"><title>Node27</title>
<g id="a_node27"><a xlink:href="d0/d0a/classvm.html" target="_top" xlink:title="安全沙箱模块，用于隔离不同安全等级的运行环境 ">
<polygon fill="white" stroke="black" points="98.9775,-37.5 98.9775,-55.5 128.308,-55.5 128.308,-37.5 98.9775,-37.5"/>
<text text-anchor="middle" x="113.643" y="-43.5" font-family="Helvetica,sans-Serif" font-size="10.00">vm</text>
</a>
</g>
</g>
<!-- Node1&#45;&gt;Node27 -->
<g id="edge26" class="edge"><title>Node1&#45;&gt;Node27</title>
<path fill="none" stroke="midnightblue" d="M26.0564,-471.049C28.8615,-397.208 41.7268,-134.901 84.7979,-65.5 88.1308,-60.1296 93.6073,-55.9089 98.8256,-52.8237"/>
<polygon fill="midnightblue" stroke="midnightblue" points="22.5523,-471.104 25.6895,-481.224 29.5477,-471.357 22.5523,-471.104"/>
</g>
<!-- Node28 -->
<g id="node28" class="node"><title>Node28</title>
<g id="a_node28"><a xlink:href="d8/d09/classzlib.html" target="_top" xlink:title="zlib 压缩解压模块 ">
<polygon fill="white" stroke="black" points="98.1401,-0.5 98.1401,-18.5 129.145,-18.5 129.145,-0.5 98.1401,-0.5"/>
<text text-anchor="middle" x="113.643" y="-6.5" font-family="Helvetica,sans-Serif" font-size="10.00">zlib</text>
</a>
</g>
</g>
<!-- Node1&#45;&gt;Node28 -->
<g id="edge27" class="edge"><title>Node1&#45;&gt;Node28</title>
<path fill="none" stroke="midnightblue" d="M25.816,-470.879C27.7911,-392.782 38.1646,-104.571 84.7979,-28.5 87.9177,-23.4108 92.9718,-19.3607 97.9236,-16.3297"/>
<polygon fill="midnightblue" stroke="midnightblue" points="22.3098,-471.109 25.5745,-481.188 29.3079,-471.273 22.3098,-471.109"/>
</g>
</g>
</svg>
