<?xml version="1.0" encoding="UTF-8" standalone="no"?>
<!DOCTYPE svg PUBLIC "-//W3C//DTD SVG 1.1//EN"
 "http://www.w3.org/Graphics/SVG/1.1/DTD/svg11.dtd">
<!-- Generated by graphviz version 2.38.0 (20140413.2041)
 -->
<!-- Title: path Pages: 1 -->
<svg width="86pt" height="194pt"
 viewBox="0.00 0.00 85.98 194.00" xmlns="http://www.w3.org/2000/svg" xmlns:xlink="http://www.w3.org/1999/xlink">
<g id="graph0" class="graph" transform="scale(1 1) rotate(0) translate(4 190)">
<title>path</title>
<polygon fill="white" stroke="none" points="-4,4 -4,-190 81.9775,-190 81.9775,4 -4,4"/>
<!-- Node1 -->
<g id="node1" class="node"><title>Node1</title>
<polygon fill="#bfbfbf" stroke="black" points="0,-0.5 0,-94.5 77.9775,-94.5 77.9775,-0.5 0,-0.5"/>
<text text-anchor="middle" x="38.9888" y="-82.5" font-family="Helvetica,sans-Serif" font-size="10.00">path</text>
<polyline fill="none" stroke="black" points="0,-76.5 77.9775,-76.5 "/>
<text text-anchor="middle" x="38.9888" y="-64.5" font-family="Helvetica,sans-Serif" font-size="10.00"> </text>
<polyline fill="none" stroke="black" points="0,-58.5 77.9775,-58.5 "/>
<text text-anchor="start" x="8" y="-46.5" font-family="Helvetica,sans-Serif" font-size="10.00">+ normalize()</text>
<text text-anchor="start" x="8" y="-36.5" font-family="Helvetica,sans-Serif" font-size="10.00">+ basename()</text>
<text text-anchor="start" x="8" y="-26.5" font-family="Helvetica,sans-Serif" font-size="10.00">+ extname()</text>
<text text-anchor="start" x="8" y="-16.5" font-family="Helvetica,sans-Serif" font-size="10.00">+ dirname()</text>
<text text-anchor="start" x="8" y="-6.5" font-family="Helvetica,sans-Serif" font-size="10.00">+ combine()</text>
</g>
<!-- Node2 -->
<g id="node2" class="node"><title>Node2</title>
<g id="a_node2"><a xlink:href="../../d0/dd3/classmodule.html" target="_top" xlink:title="基础模块对象，所有模块对象均继承于此 ">
<polygon fill="white" stroke="black" points="14.5898,-131.5 14.5898,-185.5 63.3877,-185.5 63.3877,-131.5 14.5898,-131.5"/>
<text text-anchor="middle" x="38.9888" y="-173.5" font-family="Helvetica,sans-Serif" font-size="10.00">module</text>
<polyline fill="none" stroke="black" points="14.5898,-167.5 63.3877,-167.5 "/>
<text text-anchor="middle" x="38.9888" y="-155.5" font-family="Helvetica,sans-Serif" font-size="10.00"> </text>
<polyline fill="none" stroke="black" points="14.5898,-149.5 63.3877,-149.5 "/>
<text text-anchor="middle" x="38.9888" y="-137.5" font-family="Helvetica,sans-Serif" font-size="10.00"> </text>
</a>
</g>
</g>
<!-- Node2&#45;&gt;Node1 -->
<g id="edge1" class="edge"><title>Node2&#45;&gt;Node1</title>
<path fill="none" stroke="midnightblue" d="M38.9888,-121.141C38.9888,-112.716 38.9888,-103.639 38.9888,-94.8505"/>
<polygon fill="none" stroke="midnightblue" points="35.4889,-121.392 38.9888,-131.392 42.4889,-121.392 35.4889,-121.392"/>
</g>
</g>
</svg>
