<?xml version="1.0" encoding="UTF-8" standalone="no"?>
<!DOCTYPE svg PUBLIC "-//W3C//DTD SVG 1.1//EN"
 "http://www.w3.org/Graphics/SVG/1.1/DTD/svg11.dtd">
<!-- Generated by graphviz version 2.38.0 (20140413.2041)
 -->
<!-- Title: Function Pages: 1 -->
<svg width="62pt" height="154pt"
 viewBox="0.00 0.00 62.35 154.00" xmlns="http://www.w3.org/2000/svg" xmlns:xlink="http://www.w3.org/1999/xlink">
<g id="graph0" class="graph" transform="scale(1 1) rotate(0) translate(4 150)">
<title>Function</title>
<polygon fill="white" stroke="none" points="-4,4 -4,-150 58.3545,-150 58.3545,4 -4,4"/>
<!-- Node1 -->
<g id="node1" class="node"><title>Node1</title>
<polygon fill="#bfbfbf" stroke="black" points="0,-0.5 0,-54.5 54.3545,-54.5 54.3545,-0.5 0,-0.5"/>
<text text-anchor="middle" x="27.1772" y="-42.5" font-family="Helvetica,sans-Serif" font-size="10.00">Function</text>
<polyline fill="none" stroke="black" points="0,-36.5 54.3545,-36.5 "/>
<text text-anchor="middle" x="27.1772" y="-24.5" font-family="Helvetica,sans-Serif" font-size="10.00"> </text>
<polyline fill="none" stroke="black" points="0,-18.5 54.3545,-18.5 "/>
<text text-anchor="start" x="8" y="-6.5" font-family="Helvetica,sans-Serif" font-size="10.00">+ start()</text>
</g>
<!-- Node2 -->
<g id="node2" class="node"><title>Node2</title>
<g id="a_node2"><a xlink:href="../../d0/dd3/classmodule.html" target="_top" xlink:title="基础模块对象，所有模块对象均继承于此 ">
<polygon fill="white" stroke="black" points="2.77832,-91.5 2.77832,-145.5 51.5762,-145.5 51.5762,-91.5 2.77832,-91.5"/>
<text text-anchor="middle" x="27.1772" y="-133.5" font-family="Helvetica,sans-Serif" font-size="10.00">module</text>
<polyline fill="none" stroke="black" points="2.77832,-127.5 51.5762,-127.5 "/>
<text text-anchor="middle" x="27.1772" y="-115.5" font-family="Helvetica,sans-Serif" font-size="10.00"> </text>
<polyline fill="none" stroke="black" points="2.77832,-109.5 51.5762,-109.5 "/>
<text text-anchor="middle" x="27.1772" y="-97.5" font-family="Helvetica,sans-Serif" font-size="10.00"> </text>
</a>
</g>
</g>
<!-- Node2&#45;&gt;Node1 -->
<g id="edge1" class="edge"><title>Node2&#45;&gt;Node1</title>
<path fill="none" stroke="midnightblue" d="M27.1772,-81.1155C27.1772,-72.2061 27.1772,-62.8475 27.1772,-54.5341"/>
<polygon fill="none" stroke="midnightblue" points="23.6773,-81.2784 27.1772,-91.2784 30.6773,-81.2785 23.6773,-81.2784"/>
</g>
</g>
</svg>
