<?xml version="1.0" encoding="UTF-8" standalone="no"?>
<!DOCTYPE svg PUBLIC "-//W3C//DTD SVG 1.1//EN"
 "http://www.w3.org/Graphics/SVG/1.1/DTD/svg11.dtd">
<!-- Generated by graphviz version 2.38.0 (20140413.2041)
 -->
<!-- Title: global Pages: 1 -->
<svg width="70pt" height="194pt"
 viewBox="0.00 0.00 70.41 194.00" xmlns="http://www.w3.org/2000/svg" xmlns:xlink="http://www.w3.org/1999/xlink">
<g id="graph0" class="graph" transform="scale(1 1) rotate(0) translate(4 190)">
<title>global</title>
<polygon fill="white" stroke="none" points="-4,4 -4,-190 66.4062,-190 66.4062,4 -4,4"/>
<!-- Node1 -->
<g id="node1" class="node"><title>Node1</title>
<polygon fill="#bfbfbf" stroke="black" points="0,-0.5 0,-94.5 62.4062,-94.5 62.4062,-0.5 0,-0.5"/>
<text text-anchor="middle" x="31.2031" y="-82.5" font-family="Helvetica,sans-Serif" font-size="10.00">global</text>
<polyline fill="none" stroke="black" points="0,-76.5 62.4062,-76.5 "/>
<text text-anchor="start" x="8" y="-64.5" font-family="Helvetica,sans-Serif" font-size="10.00">+ console</text>
<polyline fill="none" stroke="black" points="0,-58.5 62.4062,-58.5 "/>
<text text-anchor="start" x="8" y="-46.5" font-family="Helvetica,sans-Serif" font-size="10.00">+ Buffer()</text>
<text text-anchor="start" x="8" y="-36.5" font-family="Helvetica,sans-Serif" font-size="10.00">+ Int64()</text>
<text text-anchor="start" x="8" y="-26.5" font-family="Helvetica,sans-Serif" font-size="10.00">+ run()</text>
<text text-anchor="start" x="8" y="-16.5" font-family="Helvetica,sans-Serif" font-size="10.00">+ require()</text>
<text text-anchor="start" x="8" y="-6.5" font-family="Helvetica,sans-Serif" font-size="10.00">+ GC()</text>
</g>
<!-- Node2 -->
<g id="node2" class="node"><title>Node2</title>
<g id="a_node2"><a xlink:href="../../d0/dd3/classmodule.html" target="_top" xlink:title="基础模块对象，所有模块对象均继承于此 ">
<polygon fill="white" stroke="black" points="6.8042,-131.5 6.8042,-185.5 55.6021,-185.5 55.6021,-131.5 6.8042,-131.5"/>
<text text-anchor="middle" x="31.2031" y="-173.5" font-family="Helvetica,sans-Serif" font-size="10.00">module</text>
<polyline fill="none" stroke="black" points="6.8042,-167.5 55.6021,-167.5 "/>
<text text-anchor="middle" x="31.2031" y="-155.5" font-family="Helvetica,sans-Serif" font-size="10.00"> </text>
<polyline fill="none" stroke="black" points="6.8042,-149.5 55.6021,-149.5 "/>
<text text-anchor="middle" x="31.2031" y="-137.5" font-family="Helvetica,sans-Serif" font-size="10.00"> </text>
</a>
</g>
</g>
<!-- Node2&#45;&gt;Node1 -->
<g id="edge1" class="edge"><title>Node2&#45;&gt;Node1</title>
<path fill="none" stroke="midnightblue" d="M31.2031,-121.141C31.2031,-112.716 31.2031,-103.639 31.2031,-94.8505"/>
<polygon fill="none" stroke="midnightblue" points="27.7032,-121.392 31.2031,-131.392 34.7032,-121.392 27.7032,-121.392"/>
</g>
</g>
</svg>
