<?xml version="1.0" encoding="UTF-8" standalone="no"?>
<!DOCTYPE svg PUBLIC "-//W3C//DTD SVG 1.1//EN"
 "http://www.w3.org/Graphics/SVG/1.1/DTD/svg11.dtd">
<!-- Generated by graphviz version 2.38.0 (20140413.2041)
 -->
<!-- Title: global Pages: 1 -->
<svg width="70pt" height="204pt"
 viewBox="0.00 0.00 70.41 204.00" xmlns="http://www.w3.org/2000/svg" xmlns:xlink="http://www.w3.org/1999/xlink">
<g id="graph0" class="graph" transform="scale(1 1) rotate(0) translate(4 200)">
<title>global</title>
<polygon fill="white" stroke="none" points="-4,4 -4,-200 66.4062,-200 66.4062,4 -4,4"/>
<!-- Node1 -->
<g id="node1" class="node"><title>Node1</title>
<polygon fill="#bfbfbf" stroke="black" points="0,-0.5 0,-104.5 62.4062,-104.5 62.4062,-0.5 0,-0.5"/>
<text text-anchor="middle" x="31.2031" y="-92.5" font-family="Helvetica,sans-Serif" font-size="10.00">global</text>
<polyline fill="none" stroke="black" points="0,-86.5 62.4062,-86.5 "/>
<text text-anchor="start" x="8" y="-74.5" font-family="Helvetica,sans-Serif" font-size="10.00">+ console</text>
<polyline fill="none" stroke="black" points="0,-68.5 62.4062,-68.5 "/>
<text text-anchor="start" x="8" y="-56.5" font-family="Helvetica,sans-Serif" font-size="10.00">+ Buffer()</text>
<text text-anchor="start" x="8" y="-46.5" font-family="Helvetica,sans-Serif" font-size="10.00">+ run()</text>
<text text-anchor="start" x="8" y="-36.5" font-family="Helvetica,sans-Serif" font-size="10.00">+ repl()</text>
<text text-anchor="start" x="8" y="-26.5" font-family="Helvetica,sans-Serif" font-size="10.00">+ define()</text>
<text text-anchor="start" x="8" y="-16.5" font-family="Helvetica,sans-Serif" font-size="10.00">+ require()</text>
<text text-anchor="start" x="8" y="-6.5" font-family="Helvetica,sans-Serif" font-size="10.00">+ GC()</text>
</g>
<!-- Node2 -->
<g id="node2" class="node"><title>Node2</title>
<g id="a_node2"><a xlink:href="../../d0/dd3/classmodule.html" target="_top" xlink:title="基础模块对象，所有模块对象均继承于此 ">
<polygon fill="white" stroke="black" points="6.8042,-141.5 6.8042,-195.5 55.6021,-195.5 55.6021,-141.5 6.8042,-141.5"/>
<text text-anchor="middle" x="31.2031" y="-183.5" font-family="Helvetica,sans-Serif" font-size="10.00">module</text>
<polyline fill="none" stroke="black" points="6.8042,-177.5 55.6021,-177.5 "/>
<text text-anchor="middle" x="31.2031" y="-165.5" font-family="Helvetica,sans-Serif" font-size="10.00"> </text>
<polyline fill="none" stroke="black" points="6.8042,-159.5 55.6021,-159.5 "/>
<text text-anchor="middle" x="31.2031" y="-147.5" font-family="Helvetica,sans-Serif" font-size="10.00"> </text>
</a>
</g>
</g>
<!-- Node2&#45;&gt;Node1 -->
<g id="edge1" class="edge"><title>Node2&#45;&gt;Node1</title>
<path fill="none" stroke="midnightblue" d="M31.2031,-131.123C31.2031,-122.708 31.2031,-113.598 31.2031,-104.681"/>
<polygon fill="none" stroke="midnightblue" points="27.7032,-131.346 31.2031,-141.346 34.7032,-131.346 27.7032,-131.346"/>
</g>
</g>
</svg>
