<?xml version="1.0" encoding="UTF-8" standalone="no"?>
<!DOCTYPE svg PUBLIC "-//W3C//DTD SVG 1.1//EN"
 "http://www.w3.org/Graphics/SVG/1.1/DTD/svg11.dtd">
<!-- Generated by graphviz version 2.38.0 (20140413.2041)
 -->
<!-- Title: RedisHash Pages: 1 -->
<svg width="74pt" height="314pt"
 viewBox="0.00 0.00 74.29 314.00" xmlns="http://www.w3.org/2000/svg" xmlns:xlink="http://www.w3.org/1999/xlink">
<g id="graph0" class="graph" transform="scale(1 1) rotate(0) translate(4 310)">
<title>RedisHash</title>
<polygon fill="white" stroke="none" points="-4,4 -4,-310 70.2881,-310 70.2881,4 -4,4"/>
<!-- Node1 -->
<g id="node1" class="node"><title>Node1</title>
<polygon fill="#bfbfbf" stroke="black" points="0.688477,-0.5 0.688477,-184.5 65.5996,-184.5 65.5996,-0.5 0.688477,-0.5"/>
<text text-anchor="middle" x="33.144" y="-172.5" font-family="Helvetica,sans-Serif" font-size="10.00">RedisHash</text>
<polyline fill="none" stroke="black" points="0.688477,-166.5 65.5996,-166.5 "/>
<text text-anchor="middle" x="33.144" y="-154.5" font-family="Helvetica,sans-Serif" font-size="10.00"> </text>
<polyline fill="none" stroke="black" points="0.688477,-148.5 65.5996,-148.5 "/>
<text text-anchor="start" x="8.68848" y="-136.5" font-family="Helvetica,sans-Serif" font-size="10.00">+ set()</text>
<text text-anchor="start" x="8.68848" y="-126.5" font-family="Helvetica,sans-Serif" font-size="10.00">+ setNX()</text>
<text text-anchor="start" x="8.68848" y="-116.5" font-family="Helvetica,sans-Serif" font-size="10.00">+ mset()</text>
<text text-anchor="start" x="8.68848" y="-106.5" font-family="Helvetica,sans-Serif" font-size="10.00">+ mset()</text>
<text text-anchor="start" x="8.68848" y="-96.5" font-family="Helvetica,sans-Serif" font-size="10.00">+ get()</text>
<text text-anchor="start" x="8.68848" y="-86.5" font-family="Helvetica,sans-Serif" font-size="10.00">+ mget()</text>
<text text-anchor="start" x="8.68848" y="-76.5" font-family="Helvetica,sans-Serif" font-size="10.00">+ mget()</text>
<text text-anchor="start" x="8.68848" y="-66.5" font-family="Helvetica,sans-Serif" font-size="10.00">+ incr()</text>
<text text-anchor="start" x="8.68848" y="-56.5" font-family="Helvetica,sans-Serif" font-size="10.00">+ getAll()</text>
<text text-anchor="start" x="8.68848" y="-46.5" font-family="Helvetica,sans-Serif" font-size="10.00">+ keys()</text>
<text text-anchor="start" x="8.68848" y="-36.5" font-family="Helvetica,sans-Serif" font-size="10.00">+ len()</text>
<text text-anchor="start" x="8.68848" y="-26.5" font-family="Helvetica,sans-Serif" font-size="10.00">+ exists()</text>
<text text-anchor="start" x="8.68848" y="-16.5" font-family="Helvetica,sans-Serif" font-size="10.00">+ del()</text>
<text text-anchor="start" x="8.68848" y="-6.5" font-family="Helvetica,sans-Serif" font-size="10.00">+ del()</text>
</g>
<!-- Node2 -->
<g id="node2" class="node"><title>Node2</title>
<g id="a_node2"><a xlink:href="../../dc/dd8/classobject.html" target="_top" xlink:title="基础对象，所有对象均继承于此 ">
<polygon fill="white" stroke="black" points="0,-221.5 0,-305.5 66.2881,-305.5 66.2881,-221.5 0,-221.5"/>
<text text-anchor="middle" x="33.144" y="-293.5" font-family="Helvetica,sans-Serif" font-size="10.00">object</text>
<polyline fill="none" stroke="black" points="0,-287.5 66.2881,-287.5 "/>
<text text-anchor="middle" x="33.144" y="-275.5" font-family="Helvetica,sans-Serif" font-size="10.00"> </text>
<polyline fill="none" stroke="black" points="0,-269.5 66.2881,-269.5 "/>
<text text-anchor="start" x="8" y="-257.5" font-family="Helvetica,sans-Serif" font-size="10.00">+ dispose()</text>
<text text-anchor="start" x="8" y="-247.5" font-family="Helvetica,sans-Serif" font-size="10.00">+ toString()</text>
<text text-anchor="start" x="8" y="-237.5" font-family="Helvetica,sans-Serif" font-size="10.00">+ toJSON()</text>
<text text-anchor="start" x="8" y="-227.5" font-family="Helvetica,sans-Serif" font-size="10.00">+ valueOf()</text>
</a>
</g>
</g>
<!-- Node2&#45;&gt;Node1 -->
<g id="edge1" class="edge"><title>Node2&#45;&gt;Node1</title>
<path fill="none" stroke="midnightblue" d="M33.144,-210.905C33.144,-202.573 33.144,-193.735 33.144,-184.796"/>
<polygon fill="none" stroke="midnightblue" points="29.6441,-211.158 33.144,-221.158 36.6441,-211.158 29.6441,-211.158"/>
</g>
</g>
</svg>
